<svg width="1440" height="1044" viewBox="0 0 1440 1044" fill="none" xmlns="http://www.w3.org/2000/svg">
<path d="M1455.91 1033.9C1666.03 999.993 1834.32 878.872 1956.22 673.097C2040.2 531.1 2088.36 405.105 2093.39 314.457C2099.92 184.903 2038.8 95.1434 1905.26 38.3891C1832.29 7.43513 1785.94 -1.43883 1708.25 0.182933C1626.74 2.37684 1574 19.2246 1462.91 79.6094C1367.81 131.295 1310.62 156.109 1231.08 179.421C1042.96 235.018 827.714 244.924 635.339 207.605C609.835 202.233 522.39 178.47 441.867 154.563C274.617 104.417 222.1 95.1801 136.799 100.406C60.7281 105.438 1.03404 120.955 -75.1904 155.516C-226.091 225.097 -358.818 354.334 -397.209 468.806C-411.678 512.904 -411.102 577.355 -394.949 613.924C-364.213 685.618 -286.786 745.512 -189.24 773.985C-133.493 790.536 -126.55 791.375 -56.5702 789.422C7.26724 788.089 24.9056 785.261 81.5335 770.3C267.455 719.671 265.927 720.195 334.369 718.274C460.506 715.641 534.158 742.152 736.708 861.436C904.975 960.276 1001.24 1001.08 1129.49 1025.96C1233.79 1046.42 1358.5 1049.22 1455.91 1033.9Z" fill="#E3A438"/>
</svg>
