<svg width="487" height="422" viewBox="0 0 487 422" fill="none" xmlns="http://www.w3.org/2000/svg">
<path d="M134.865 136.828C134.865 136.828 118.847 131.181 104.701 92.5169C90.5544 53.8525 57.5664 44.4614 24.4595 55.7546C-8.64741 67.0478 -0.979923 102.889 9.39199 106.663C19.7639 110.437 28.2338 91.5956 49.9286 81.2237C71.6235 70.8518 82.9167 94.4189 88.5633 111.388C94.2099 128.358 117.034 147.2 129.219 147.2C141.404 147.2 137.837 146.278 134.865 136.828Z" fill="#263238" stroke="#263238" stroke-linecap="round" stroke-linejoin="round"/>
<path d="M146.188 151.925C146.188 151.925 149.16 116.114 178.225 96.2913C207.29 76.4688 256.475 99.2632 265.896 117.095C271.821 129.18 275.343 142.301 276.268 155.729L146.188 151.925Z" fill="#263238" stroke="#263238" stroke-linecap="round" stroke-linejoin="round"/>
<path d="M203.011 112.904C203.011 112.904 186.725 125.446 185.477 142.98C184.229 160.514 234.364 163.04 250.65 156.769C266.936 150.499 263.162 116.678 241.735 100.303C220.307 83.9281 203.011 112.904 203.011 112.904Z" fill="white" stroke="#263238" stroke-linecap="round" stroke-linejoin="round"/>
<path d="M472.383 100.066C461.061 92.5169 436.542 101.017 436.542 101.017C436.542 101.017 443.14 87.8214 443.14 77.4495C443.14 67.0776 413.926 56.6462 413.926 56.6462C407.64 50.7759 400.172 46.3154 392.023 43.5632C383.874 40.811 375.232 39.8304 366.673 40.687C366.673 40.687 368.545 3.92472 364.771 4.84601C360.997 5.7673 341.204 18.0412 321.411 49.157C301.618 80.2727 325.483 104.969 331.159 120.988C331.159 121.463 331.486 121.879 331.635 122.325C327.028 129.458 320.401 139.503 316.27 145.03C311.099 151.925 355.499 148.418 377.55 146.278H456.216C457.371 143.256 458.014 140.062 458.118 136.828C457.793 131.771 457.158 126.739 456.216 121.76C457.819 125.432 460.763 128.353 464.447 129.928C468.132 131.502 472.278 131.61 476.039 130.23C490.274 125.535 483.677 107.614 472.383 100.066Z" fill="white" stroke="#263238" stroke-linecap="round" stroke-linejoin="round"/>
<path d="M436.542 101.017C430.424 105.676 425.404 111.624 421.84 118.439C418.276 125.254 416.254 132.77 415.918 140.454" stroke="#263238" stroke-linecap="round" stroke-linejoin="round"/>
<path d="M386.585 65.2052C392.465 55.4799 399.294 46.3612 406.972 37.9826C411.341 33.5842 425.517 19.8244 432.976 23.4799C437.612 25.7682 433.897 34.1192 432.768 37.8638C427.122 56.7056 427.122 84.998 416.75 93.4679C406.378 101.938 387.536 92.5169 387.536 92.5169" fill="white"/>
<path d="M386.585 65.2052C392.465 55.4799 399.294 46.3612 406.972 37.9826C411.341 33.5842 425.517 19.8244 432.976 23.4799C437.612 25.7682 433.897 34.1192 432.768 37.8638C427.122 56.7056 427.122 84.998 416.75 93.4679C406.378 101.938 387.536 92.5169 387.536 92.5169" stroke="#263238" stroke-linecap="round" stroke-linejoin="round"/>
<path d="M366.673 40.6872C366.673 40.6872 342.155 41.6085 328.96 59.529" stroke="#263238" stroke-linecap="round" stroke-linejoin="round"/>
<path d="M462.012 136.828H114.122V420.584H462.012V136.828Z" fill="#6AC5C4" stroke="#263238" stroke-linecap="round" stroke-linejoin="round"/>
<path d="M66.9873 136.828L45.2925 198.108H83.0058L66.9873 136.828Z" fill="#51A9A8" stroke="#263238" stroke-linecap="round" stroke-linejoin="round"/>
<path d="M114.122 136.828H66.9873V381.95L114.122 420.614V136.828Z" fill="#6BBEBD" stroke="#263238" stroke-linecap="round" stroke-linejoin="round"/>
<path d="M114.122 136.828L144.286 231.126H486.5L462.012 136.828H114.122Z" fill="#6AC5C4" stroke="#263238" stroke-linecap="round" stroke-linejoin="round"/>
<path d="M219.713 29.3642C219.713 29.3642 256.475 8.56098 260.25 17.12C264.024 25.6791 242.418 50.1081 242.418 50.1081L219.713 29.3642Z" fill="#263238" stroke="#263238" stroke-linecap="round" stroke-linejoin="round"/>
<path d="M225.36 120.809C186.725 125.535 174.451 107.614 166.932 103.84C159.413 100.066 143.365 104.791 138.64 103.84C133.914 102.889 140.512 80.2728 153.707 58.578C161 46.1859 170.604 35.3099 182 26.541C182 26.541 205.567 21.8156 223.606 27.4919C241.646 33.1682 250.948 51.0591 262.241 51.9804C273.534 52.9017 272.583 60.48 271.662 70.8519C270.74 81.2238 270.711 89.6937 262.241 100.066C256.444 106.746 249.371 112.202 241.438 116.114" fill="white"/>
<path d="M225.36 120.809C186.725 125.535 174.451 107.614 166.932 103.84C159.413 100.066 143.365 104.791 138.64 103.84C133.914 102.889 140.512 80.2728 153.707 58.578C161 46.1859 170.604 35.3099 182 26.541C182 26.541 205.567 21.8156 223.606 27.4919C241.646 33.1682 250.948 51.0591 262.241 51.9804C273.534 52.9017 272.583 60.48 271.662 70.8519C270.74 81.2238 270.711 89.6937 262.241 100.066C256.444 106.746 249.371 112.202 241.438 116.114" stroke="#263238" stroke-linecap="round" stroke-linejoin="round"/>
<path d="M182 26.541C170.604 35.3099 161 46.1859 153.707 58.578C140.512 80.2728 133.914 102.889 138.64 103.84C143.365 104.791 159.443 100.066 166.932 103.84C172.698 106.812 181.316 117.897 202.417 120.869C201.958 116.461 202.601 112.009 204.289 107.911C210.53 90.3773 238.109 82.8583 249.372 66.5426C260.636 50.2269 241.854 38.9932 241.854 38.9932V38.4582C236.55 33.6103 230.324 29.8807 223.547 27.4919C205.567 21.8156 182 26.541 182 26.541Z" fill="#263238" stroke="#263238" stroke-linecap="round" stroke-linejoin="round"/>
<path d="M165.387 46.6309C165.387 46.6309 179.117 10.0469 201.792 0.952856C215.107 -4.42627 211.243 39.8847 211.243 39.8847" fill="#263238"/>
<path d="M165.387 46.6309C165.387 46.6309 179.117 10.0469 201.792 0.952856C215.107 -4.42627 211.243 39.8847 211.243 39.8847" stroke="#263238" stroke-linecap="round" stroke-linejoin="round"/>
<path d="M262.152 51.9804C262.152 51.9804 255.524 53.8824 260.25 61.431C264.975 68.9796 269.671 75.5475 273.445 67.0776C277.219 58.6077 268.749 49.1571 262.152 51.9804Z" fill="white" stroke="#263238" stroke-linecap="round" stroke-linejoin="round"/>
<path d="M199.712 7.75856C199.712 7.75856 182.951 45.3827 194.274 48.2358C205.596 51.0888 209.341 38.7852 211.243 21.8157C213.145 4.84613 208.182 -0.741061 199.712 7.75856Z" fill="white" stroke="#263238" stroke-linecap="round" stroke-linejoin="round"/>
<path d="M241.14 51.3265C243.458 54.2984 244.112 57.8943 242.656 58.9939C241.2 60.0935 238.05 58.459 235.731 55.3386C233.413 52.2181 232.76 48.7706 234.216 47.6413C235.672 46.512 238.882 48.1763 241.14 51.3265Z" fill="white"/>
<path d="M190.499 125.535L174.451 106.663C174.451 106.663 164.079 100.066 157.482 105.742C150.884 111.418 134.865 143.425 149.012 155.789C163.158 168.152 172.579 136.917 175.402 134.094L178.374 131.27" fill="#263238"/>
<path d="M190.499 125.535L174.451 106.663C174.451 106.663 164.079 100.066 157.482 105.742C150.884 111.418 134.865 143.425 149.012 155.789C163.158 168.152 172.579 136.917 175.402 134.094L178.374 131.27" stroke="#263238" stroke-linecap="round" stroke-linejoin="round"/>
<path d="M174.332 135.699C171.345 131.45 167.527 127.853 163.108 125.125C158.689 122.397 153.762 120.595 148.625 119.829C143.306 131.716 139.918 147.824 149.012 155.7C161.612 166.696 170.528 142.772 174.332 135.699Z" fill="white" stroke="#263238" stroke-linecap="round" stroke-linejoin="round"/>
<path d="M260.339 124.435L268.749 106.604C268.749 106.604 279.121 100.006 285.719 105.683C292.316 111.359 308.335 143.366 294.189 155.64C280.042 167.914 270.622 136.769 267.798 133.945L264.975 131.122" fill="#263238"/>
<path d="M260.339 124.435L268.749 106.604C268.749 106.604 279.121 100.006 285.719 105.683C292.316 111.359 308.335 143.366 294.189 155.64C280.042 167.914 270.622 136.769 267.798 133.945L264.975 131.122" stroke="#263238" stroke-linecap="round" stroke-linejoin="round"/>
<path d="M296.626 124.94C281.38 127.288 274.752 134.837 272.018 142.148C276.654 151.509 284.263 164.318 294.189 155.699C302.034 148.894 300.578 136.025 296.626 124.94Z" fill="white" stroke="#263238" stroke-linecap="round" stroke-linejoin="round"/>
</svg>
