<svg width="400" height="400" viewBox="0 0 400 400" fill="none" xmlns="http://www.w3.org/2000/svg">
<path d="M338.336 68.448C336.992 67.1253 335.605 65.8453 334.176 64.608C304.424 38.8 264.92 25.296 226.4 19.84C187.36 14.312 145.952 19.32 112.312 41.032C108.579 43.4587 104.955 46.0613 101.44 48.84C73.4081 71.2 60.0561 102.4 56.3841 137.536C53.6001 164.36 40.2561 185.368 31.1121 210.16C21.1681 237.128 21.2881 270.296 34.4001 296.24C49.9681 327.048 81.0641 342.792 112.728 352.376C166.192 368.552 226.112 368.504 278.208 347.296C314.32 332.592 351.008 307.336 365.864 269.936C379.104 236.528 379.736 199.008 375.4 163.76C371.2 129.488 364 93.544 338.336 68.448Z" fill="#6AC5C4"/>
<path opacity="0.7" d="M338.336 68.448C336.992 67.1253 335.605 65.8453 334.176 64.608C304.424 38.8 264.92 25.296 226.4 19.84C187.36 14.312 145.952 19.32 112.312 41.032C108.579 43.4587 104.955 46.0613 101.44 48.84C73.4081 71.2 60.0561 102.4 56.3841 137.536C53.6001 164.36 40.2561 185.368 31.1121 210.16C21.1681 237.128 21.2881 270.296 34.4001 296.24C49.9681 327.048 81.0641 342.792 112.728 352.376C166.192 368.552 226.112 368.504 278.208 347.296C314.32 332.592 351.008 307.336 365.864 269.936C379.104 236.528 379.736 199.008 375.4 163.76C371.2 129.488 364 93.544 338.336 68.448Z" fill="#FAF9FA"/>
<path d="M348.304 29.9761H249.536V173.408H348.304V29.9761Z" stroke="#2E2E2E" stroke-linecap="round" stroke-linejoin="round"/>
<path d="M340.28 41.6401H257.568V161.752H340.28V41.6401Z" stroke="#2E2E2E" stroke-linecap="round" stroke-linejoin="round"/>
<path d="M320.896 69.7842H276.944V133.608H320.896V69.7842Z" stroke="#2E2E2E" stroke-linecap="round" stroke-linejoin="round"/>
<path d="M238.648 29.9761H180.896V104.416H238.648V29.9761Z" stroke="#2E2E2E" stroke-linecap="round" stroke-linejoin="round"/>
<path d="M233.952 36.032H185.592V98.376H233.952V36.032Z" stroke="#2E2E2E" stroke-linecap="round" stroke-linejoin="round"/>
<path d="M222.624 50.6401H196.928V83.7681H222.624V50.6401Z" stroke="#2E2E2E" stroke-linecap="round" stroke-linejoin="round"/>
<path d="M127.2 110.656C127.2 110.656 110.624 98.8561 108.392 84.2001C106.16 69.5441 109.672 49.1361 101.696 38.2961C93.72 27.4561 64.56 26.4001 62.832 43.7121C61.552 56.4641 76.216 53.3121 83.864 50.4081C91.512 47.5041 94.064 57.4241 93.464 78.1361C92.864 98.8481 106.208 121.168 119.6 125.952C132.992 130.736 127.2 110.656 127.2 110.656Z" fill="#6AC5C4" stroke="#2E2E2E" stroke-linecap="round" stroke-linejoin="round"/>
<path d="M145.528 181.504C145.528 181.504 148.608 188.344 153.568 192.28C158.528 196.216 161.568 196.216 161.568 196.216C161.568 196.216 160.712 201.512 162.424 204.08C164.136 206.648 176.104 224.944 177.984 226.48C179.864 228.016 184.48 227.848 187.736 227.672C190.992 227.496 191.84 225.792 189.96 222.544C188.08 219.296 183.112 218.264 183.112 218.264C183.112 218.264 181.232 211.936 182.944 205.784C184.656 199.632 186.536 196.184 191.152 194.32C195.768 192.456 214.24 192.616 215.44 194.152C218.651 198.897 223.437 202.352 228.952 203.904C237.504 206.304 242.288 205.096 244.856 207.496C247.424 209.896 246.904 215.192 250.84 215.704C254.776 216.216 257 213.304 255.8 208.176C254.6 203.048 251.184 200.136 246.568 195.376C241.952 190.616 235.104 184.6 233.056 179.296C231.008 173.992 223.456 154.672 218.008 142.872C212.56 131.072 206.888 110.376 182.808 99.6002C158.728 88.8242 129.792 101.144 121.208 114.48C112.624 127.816 109.208 143.384 113.336 161.68C117.464 179.976 122.4 178.44 122.744 188.88C123.088 199.32 122.912 206.84 128.728 215.736C134.544 224.632 137.456 226.512 140.192 226.848C142.928 227.184 147.032 227.536 147.544 225.48C148.056 223.424 147.888 219.84 145.832 218.472C143.776 217.104 141.56 218.64 139.68 215.736C137.8 212.832 135.4 200.344 138.824 195.896C142.248 191.448 145.192 188.688 145.528 181.504Z" fill="#FAF9FA" stroke="#2E2E2E" stroke-linecap="round" stroke-linejoin="round"/>
<path d="M169.816 144.736C169.816 144.736 155.28 156.736 153.736 173.808C152.192 190.88 158.696 184.752 161.432 183.048C164.168 181.344 163.488 186.296 163.488 186.296C163.488 186.296 161.608 193.136 161.608 196.216C161.608 199.296 163.144 203.224 166.224 201.688C169.304 200.152 164.512 197.408 170.504 188.688C176.496 179.968 176.312 183.384 188.632 171.76C200.952 160.136 193.248 142.68 187.264 142.856C181.28 143.032 175.976 149.008 175.8 145.76C175.624 142.512 172.72 143.2 169.816 144.736Z" fill="#6AC5C4"/>
<path d="M132.8 103.904C127.704 107.016 123.672 110.696 121.256 114.464C112.704 127.808 109.256 143.368 113.384 161.664C114.273 165.928 115.614 170.085 117.384 174.064C120.104 178.992 122.696 181.328 124.184 183.56C126.92 187.664 133.08 188.176 133.592 178.424C134.104 168.672 120.248 145.76 123.192 123.872C124.424 114.104 128.584 107.848 132.8 103.904Z" fill="#6AC5C4"/>
<path d="M215.2 136.296C210.168 124.432 202.904 108.568 182.808 99.5841C176.45 96.7932 169.567 95.3966 162.624 95.4881C154.44 96.7521 143.304 100.888 134.408 113.088C118.328 135.152 136.456 171.24 142.96 174.312C149.464 177.384 149.624 173.8 151.336 157.384C153.048 140.968 176.304 125.064 182.464 126.256C188.624 127.448 175.264 132.584 175.448 136.656C175.632 140.728 176.648 139.568 190.648 135.12C198.699 132.486 207.438 132.904 215.2 136.296Z" fill="#6AC5C4"/>
<path d="M145.528 181.504C145.528 181.504 148.608 188.344 153.568 192.28C158.528 196.216 161.568 196.216 161.568 196.216C161.568 196.216 160.712 201.512 162.424 204.08C164.136 206.648 176.104 224.944 177.984 226.48C179.864 228.016 184.48 227.848 187.736 227.672C190.992 227.496 191.84 225.792 189.96 222.544C188.08 219.296 183.112 218.264 183.112 218.264C183.112 218.264 181.232 211.936 182.944 205.784C184.656 199.632 186.536 196.184 191.152 194.32C195.768 192.456 214.24 192.616 215.44 194.152C218.651 198.897 223.437 202.352 228.952 203.904C237.504 206.304 242.288 205.096 244.856 207.496C247.424 209.896 246.904 215.192 250.84 215.704C254.776 216.216 257 213.304 255.8 208.176C254.6 203.048 251.184 200.136 246.568 195.376C241.952 190.616 235.104 184.6 233.056 179.296C231.008 173.992 223.456 154.672 218.008 142.872C212.56 131.072 206.888 110.376 182.808 99.6002C158.728 88.8242 129.792 101.144 121.208 114.48C112.624 127.816 109.208 143.384 113.336 161.68C117.464 179.976 122.4 178.44 122.744 188.88C123.088 199.32 122.912 206.84 128.728 215.736C134.544 224.632 137.456 226.512 140.192 226.848C142.928 227.184 147.032 227.536 147.544 225.48C148.056 223.424 147.888 219.84 145.832 218.472C143.776 217.104 141.56 218.64 139.68 215.736C137.8 212.832 135.4 200.344 138.824 195.896C142.248 191.448 145.192 188.688 145.528 181.504Z" stroke="#2E2E2E" stroke-linecap="round" stroke-linejoin="round"/>
<path d="M141.68 168.216C141.52 167.328 141.392 166.464 141.312 165.64" stroke="#2E2E2E" stroke-linecap="round" stroke-linejoin="round"/>
<path d="M145.528 181.504C144.245 178.081 143.161 174.588 142.28 171.04" stroke="#2E2E2E" stroke-linecap="round" stroke-linejoin="round"/>
<path d="M205.816 200.36C205.816 200.36 209.104 202.168 212.256 200.744C215.408 199.32 215.592 197.08 215.592 197.08C215.592 197.08 210.712 195.008 208.608 196.088C207.837 196.528 207.182 197.145 206.697 197.888C206.212 198.63 205.91 199.478 205.816 200.36Z" stroke="#2E2E2E" stroke-linecap="round" stroke-linejoin="round"/>
<path d="M171.488 166.984C171.488 166.984 168.8 180.584 169.304 182.984C169.808 185.384 174.008 181.304 174.008 181.304C174.008 181.304 174.344 192.904 177.544 194.248C180.744 195.592 181.24 193.24 181.24 193.24C183.059 194.703 185.307 195.53 187.64 195.592C191.336 195.592 194.84 195.592 196.048 197.616C196.68 198.79 197.631 199.761 198.793 200.415C199.954 201.069 201.277 201.38 202.608 201.312C205.808 201.144 208.832 197.952 210.176 197.784C211.52 197.616 213.704 199.128 217.072 197.616C220.44 196.104 221.608 190.888 222.448 190.552C223.288 190.216 228.168 187.352 230.688 187.688C233.208 188.024 236.576 180.12 236.576 180.12C236.576 180.12 238.76 182.144 239.6 179.784C240.44 177.424 239.936 168.52 239.936 168.52C239.936 168.52 243.64 170.536 243.304 166.504C242.968 162.472 236.904 153.704 236.904 153.704C236.904 153.704 230.68 143.112 211.68 141.096C211.68 141.096 195.872 139.744 185.448 147.144C175.024 154.544 171.488 166.984 171.488 166.984Z" fill="#6AC5C4" stroke="#2E2E2E" stroke-linecap="round" stroke-linejoin="round"/>
<path d="M186.456 153.528C186.456 153.528 183.936 150.328 177.208 149.832C170.48 149.336 160.592 149.28 160.912 152.232C161.232 155.184 176.216 168.976 176.216 168.976" fill="#6AC5C4"/>
<path d="M186.456 153.528C186.456 153.528 183.936 150.328 177.208 149.832C170.48 149.336 160.592 149.28 160.912 152.232C161.232 155.184 176.216 168.976 176.216 168.976" stroke="#2E2E2E" stroke-linecap="round" stroke-linejoin="round"/>
<path d="M160.912 152.248C160.912 152.248 167.112 151.512 176.704 155.04C186.296 158.568 184.752 161.592 183.256 164.12C181.072 167.824 176.856 169.16 176.216 168.992C175.576 168.824 160.592 158.696 160.912 152.248Z" fill="#FAF9FA" stroke="#2E2E2E" stroke-linecap="round" stroke-linejoin="round"/>
<path d="M213.984 149.28C213.984 149.28 214.952 145.32 220.856 142.08C226.76 138.84 235.728 134.672 236.672 137.496C237.616 140.32 229.728 159.096 229.728 159.096" fill="#6AC5C4"/>
<path d="M213.984 149.28C213.984 149.28 214.952 145.32 220.856 142.08C226.76 138.84 235.728 134.672 236.672 137.496C237.616 140.32 229.728 159.096 229.728 159.096" stroke="#2E2E2E" stroke-linecap="round" stroke-linejoin="round"/>
<path d="M236.672 137.48C236.672 137.48 230.728 139.392 223.48 146.592C216.232 153.792 218.888 155.904 221.296 157.584C224.824 160.032 229.184 159.512 229.728 159.08C230.272 158.648 239.648 143.2 236.672 137.48Z" fill="#FAF9FA" stroke="#2E2E2E" stroke-linecap="round" stroke-linejoin="round"/>
<path d="M230.496 186.752C229.784 175.728 219.824 177.304 218.64 179.016C217.456 180.728 215.816 180.28 215.36 177.168C214.904 174.056 205.512 165.6 202.4 168.992C199.288 172.384 196.752 179.864 198.024 181.84C199.296 183.816 197.6 185.224 195.768 185.04C193.936 184.856 190.544 185.888 188.712 190.264C187.536 193.064 188.152 194.184 188.712 194.632C191.984 194.632 194.936 194.84 195.992 196.648C196.624 197.822 197.575 198.793 198.736 199.447C199.898 200.101 201.221 200.412 202.552 200.344C205.752 200.176 208.776 196.984 210.12 196.816C211.464 196.648 213.648 198.16 217.016 196.648C220.384 195.136 221.552 189.92 222.392 189.584C223.232 189.248 227.928 186.568 230.496 186.752Z" fill="#FAF9FA"/>
<path d="M192.192 180.736C191.392 178.416 192.616 175.872 198.232 176.024" stroke="#2E2E2E" stroke-width="3" stroke-linecap="round" stroke-linejoin="round"/>
<path d="M210.4 173.6C210.4 173.6 216 168.32 218.96 173.6" stroke="#2E2E2E" stroke-width="3" stroke-linecap="round" stroke-linejoin="round"/>
<path d="M199.008 193.928L188.128 198.008" stroke="#2E2E2E" stroke-linecap="round" stroke-linejoin="round"/>
<path d="M198.096 196.04L193.264 199.968" stroke="#2E2E2E" stroke-linecap="round" stroke-linejoin="round"/>
<path d="M198.552 197.248L195.376 202.992" stroke="#2E2E2E" stroke-linecap="round" stroke-linejoin="round"/>
<path d="M216.904 191L228.52 191.064" stroke="#2E2E2E" stroke-linecap="round" stroke-linejoin="round"/>
<path d="M218.488 192.672L224.376 194.68" stroke="#2E2E2E" stroke-linecap="round" stroke-linejoin="round"/>
<path d="M218.48 193.96L223.44 198.248" stroke="#2E2E2E" stroke-linecap="round" stroke-linejoin="round"/>
<path d="M217.12 181.68C216.152 183.28 214.632 184.08 213.72 183.544C212.808 183.008 212.848 181.256 213.816 179.664C214.784 178.072 216.304 177.264 217.216 177.8C218.128 178.336 218.088 180.096 217.12 181.68Z" fill="#2E2E2E"/>
<path d="M196.88 185.648C198.328 186.808 200.08 187.08 200.712 186.248C201.344 185.416 200.752 183.792 199.296 182.632C197.84 181.472 196.096 181.2 195.464 182.032C194.832 182.864 195.432 184.488 196.88 185.648Z" fill="#2E2E2E"/>
<path d="M211.32 188.392C211.24 187.368 209.992 187.2 208.976 187.344C207.376 187.568 204.848 188.096 204.656 189.264C204.36 191 206.648 193.136 208.96 192.68C210.544 192.368 211.464 190.176 211.32 188.392Z" fill="#6AC5C4" stroke="#2E2E2E" stroke-linecap="round" stroke-linejoin="round"/>
<path d="M208.96 192.68L209.416 195.872" stroke="#2E2E2E" stroke-linecap="round" stroke-linejoin="round"/>
<path d="M119.232 175.672L142.864 226.824H124.104L117.696 192.088L119.232 175.672Z" fill="#2E2E2E"/>
<path d="M119.624 226.904H65.3521L76.456 158.032H130.728L119.624 226.904Z" fill="#2E2E2E"/>
<path d="M117.056 226.904H62.7839L73.8879 158.032H128.16L117.056 226.904Z" fill="#C6CEDA" stroke="#2E2E2E" stroke-linecap="round" stroke-linejoin="round"/>
<path d="M111.544 218.112H71.1279L79.3999 166.824H119.816L111.544 218.112Z" fill="#FAF9FA" stroke="#2E2E2E" stroke-linecap="round" stroke-linejoin="round"/>
<path d="M99.1998 182.192C99.1998 181.728 99.1118 181.344 99.0878 181.08C98.7758 178.064 97.7038 174.832 95.1518 172.96C91.8478 170.56 89.6478 170.32 89.6478 170.32L90.3038 176.488L83.9038 174.944V180.888L79.7198 178.688C79.7198 178.688 78.6238 181.992 83.0238 185.736C87.4238 189.48 97.7678 187.936 97.7758 187.936C99.4878 187.6 99.3758 184.2 99.1998 182.192Z" fill="#6AC5C4"/>
<path d="M94.0401 197.064C93.9521 196.736 93.872 196.464 93.816 196.264C93.216 194.152 92.0401 191.984 89.9841 190.976C88.6826 190.242 87.2218 189.835 85.7281 189.792L86.9761 194.096L82.2401 193.808L82.992 198.04L79.7281 197C79.7281 197 79.3601 199.496 82.9761 201.608C86.5921 203.72 93.752 201.312 93.76 201.304C94.936 200.88 94.4001 198.472 94.0401 197.064Z" fill="#6AC5C4"/>
<path d="M104.8 200.48C104.8 200.48 102.4 195.416 104.576 185.952C105.744 180.569 107.831 175.427 110.744 170.752C110.744 170.752 112.064 171.632 111.4 185.952C110.736 200.272 107.656 206.648 107.656 206.648L104.8 200.48Z" fill="#6AC5C4"/>
<path d="M106.4 212.592C105.675 211.321 104.694 210.215 103.519 209.344C102.345 208.472 101.002 207.854 99.576 207.528C94.512 206.208 81.304 207.752 81.304 207.752C81.304 207.752 84.824 212.368 94.736 214.576C104.648 216.784 106.4 212.592 106.4 212.592Z" fill="#6AC5C4"/>
<path d="M93.76 201.328C93.76 201.328 103.728 204.664 108.352 211.728Z" fill="#FAF9FA"/>
<path d="M93.76 201.328C93.76 201.328 103.728 204.664 108.352 211.728" stroke="#2E2E2E" stroke-linecap="round" stroke-linejoin="round"/>
<path d="M97.7838 187.936C97.4238 188.096 109.784 215.272 111.544 218.112Z" fill="#FAF9FA"/>
<path d="M97.7838 187.936C97.4238 188.096 109.784 215.272 111.544 218.112" stroke="#2E2E2E" stroke-linecap="round" stroke-linejoin="round"/>
<path d="M63.2322 368.16V235.608H325.808V369.92" fill="#FAF9FA"/>
<path d="M63.2322 368.16V235.608H325.808V369.92" stroke="#2E2E2E" stroke-linecap="round" stroke-linejoin="round"/>
<path d="M325.8 235.608H63.2322V246.424H325.8V235.608Z" fill="#2E2E2E"/>
<path d="M309.416 251.496H77.6482V304.456H309.416V251.496Z" fill="#FAF9FA" stroke="#2E2E2E" stroke-linecap="round" stroke-linejoin="round"/>
<path d="M195.736 284.152C198.661 284.152 201.032 281.781 201.032 278.856C201.032 275.931 198.661 273.56 195.736 273.56C192.811 273.56 190.44 275.931 190.44 278.856C190.44 281.781 192.811 284.152 195.736 284.152Z" fill="#2E2E2E"/>
<path d="M309.416 312.936H77.6482V365.896H309.416V312.936Z" fill="#FAF9FA" stroke="#2E2E2E" stroke-linecap="round" stroke-linejoin="round"/>
<path d="M195.736 345.6C198.661 345.6 201.032 343.229 201.032 340.304C201.032 337.379 198.661 335.008 195.736 335.008C192.811 335.008 190.44 337.379 190.44 340.304C190.44 343.229 192.811 345.6 195.736 345.6Z" fill="#2E2E2E"/>
<path d="M337.608 227.224H48.1201V240.464H337.608V227.224Z" fill="#FAF9FA" stroke="#2E2E2E" stroke-linecap="round" stroke-linejoin="round"/>
<path d="M308.968 317.6C309.096 318.504 298.28 320.736 284.816 322.576C271.352 324.416 260.344 325.184 260.216 324.272C260.088 323.36 270.904 321.136 284.368 319.296C297.832 317.456 308.848 316.696 308.968 317.6Z" fill="#FAF9FA" stroke="#2E2E2E" stroke-linecap="round" stroke-linejoin="round"/>
<path d="M271.152 318.496C268.99 325.363 265.96 331.925 262.136 338.024C255.52 348.8 244.92 365.6 244.088 370.472C243.256 375.344 246.4 366.112 260.8 354.4C275.368 342.512 276.408 315.08 276.408 315.08L271.152 318.496Z" fill="#6AC5C4" stroke="#2E2E2E" stroke-miterlimit="10"/>
<path d="M278.448 314.8C278.448 314.8 282.36 328.056 277.696 348.784C273.032 369.512 271.856 378.384 271.856 378.384" stroke="#2E2E2E" stroke-width="2" stroke-linecap="round" stroke-linejoin="round"/>
<path d="M283.248 312.648C283.248 312.648 290.24 337.448 295.32 346.072C300.4 354.696 301.6 356.904 301.6 356.904" stroke="#2E2E2E" stroke-width="2" stroke-linecap="round" stroke-linejoin="round"/>
<path d="M295.32 346.072C295.32 346.072 290.656 348.472 291.856 355.84C293.68 366.984 305.816 368 305.816 368L307.184 364.8L310.792 364.904C310.792 364.904 311.352 355.832 306.6 349.584C305.365 347.843 303.592 346.556 301.554 345.922C299.515 345.287 297.325 345.34 295.32 346.072Z" fill="#6AC5C4" stroke="#2E2E2E" stroke-miterlimit="10"/>
<path d="M275.032 359.944C275.032 359.944 271.888 358.872 264.24 366.52C256.592 374.168 257.984 386.56 257.984 386.56L267.336 382.56L271.552 387.08L276.704 383.08L283.944 387.784C283.944 387.784 289.336 370.28 275.032 359.944Z" fill="#6AC5C4" stroke="#2E2E2E" stroke-miterlimit="10"/>
<path d="M277.6 311.848C279.897 318.67 281.317 325.756 281.824 332.936C282.856 345.56 284.168 365.328 286.392 369.784C288.616 374.24 285.712 364.88 290.392 346.96C295.2 328.8 279.84 306.008 279.84 306.008L277.6 311.848Z" fill="#6AC5C4" stroke="#2E2E2E" stroke-miterlimit="10"/>
<path d="M284.632 317.336C290.677 321.24 296.199 325.899 301.064 331.2C309.72 340.44 323.048 355.104 327.568 357.208C332.088 359.312 323.984 353.8 316.496 336.848C308.896 319.656 282.728 311.368 282.728 311.368L284.632 317.336Z" fill="#6AC5C4" stroke="#2E2E2E" stroke-miterlimit="10"/>
<path d="M259.944 324.28L260.224 324.24C260.352 323.312 271.064 321.12 284.368 319.296C297.392 317.512 308.12 316.744 308.92 317.52C305.047 313.072 301.921 308.025 299.664 302.576C298.005 298.567 297.27 294.235 297.514 289.903C297.757 285.571 298.974 281.35 301.072 277.552C305.424 269.432 307.36 259.072 305.872 248.176C302.752 225.352 285.824 208.824 268.064 211.256C250.304 213.688 238.464 234.16 241.56 256.976C243.16 268.808 248.512 278.952 255.752 285.632C259.297 288.942 261.927 293.112 263.387 297.737C264.848 302.362 265.089 307.286 264.088 312.032C263.229 316.273 261.837 320.389 259.944 324.28Z" fill="#2E2E2E"/>
<path opacity="0.3" d="M291.384 228C291.951 229.986 291.914 232.097 291.277 234.062C290.64 236.027 289.432 237.758 287.808 239.034C286.183 240.31 284.216 241.073 282.156 241.227C280.096 241.38 278.037 240.916 276.241 239.895C274.446 238.873 272.995 237.34 272.074 235.491C271.153 233.642 270.804 231.56 271.071 229.512C271.338 227.464 272.208 225.541 273.572 223.989C274.936 222.438 276.731 221.328 278.728 220.8C280.032 220.438 281.394 220.338 282.737 220.505C284.08 220.671 285.376 221.101 286.552 221.77C287.728 222.439 288.76 223.334 289.59 224.403C290.419 225.472 291.029 226.695 291.384 228Z" fill="#FAF9FA"/>
<path d="M283.416 219.64C283.684 220.566 283.671 221.55 283.377 222.468C283.084 223.386 282.523 224.196 281.767 224.793C281.011 225.391 280.094 225.75 279.133 225.824C278.172 225.899 277.211 225.685 276.372 225.21C275.534 224.736 274.855 224.022 274.424 223.16C273.993 222.298 273.828 221.327 273.952 220.371C274.075 219.415 274.48 218.518 275.116 217.794C275.751 217.069 276.588 216.551 277.52 216.304C278.744 215.967 280.052 216.129 281.157 216.754C282.262 217.38 283.074 218.417 283.416 219.64Z" fill="#FAF9FA"/>
</svg>
