<svg width="110" height="167" viewBox="0 0 110 167" fill="none" xmlns="http://www.w3.org/2000/svg">
<path d="M36.6825 120.27C31.8205 125.686 34.7999 132.29 34.0943 142.084C33.121 156.338 39.278 161.401 44.3815 158.314C49.4006 155.42 48.7681 146.302 53.3757 141.952C57.7343 137.214 65.3229 138.984 68.4333 133.272C71.4594 127.754 67.9 120.08 55.5486 119.652C47.2861 119.432 41.8777 115.05 36.6825 120.27Z" fill="#FFD570" fill-opacity="0.2"/>
<path d="M21.2097 128.464C27.464 129.939 31.7008 135.093 30.9317 139.746C30.1625 144.399 24.2263 146.998 18.0562 145.329C11.8018 143.854 7.48071 138.894 8.33413 134.047C9.18749 129.201 14.9553 126.989 21.2097 128.464Z" fill="#FFD570" fill-opacity="0.2"/>
<path d="M45.5964 103.132C46.1523 110.505 50.0542 115.949 54.2293 115.478C58.4045 115.006 61.1836 108.614 60.3771 101.338C59.8212 93.9648 55.9194 88.5209 51.7441 88.9922C47.569 89.4636 44.7899 95.8557 45.5964 103.132Z" fill="#FFD570" fill-opacity="0.2"/>
<path d="M23.4666 105.97C28.7066 110.74 30.8494 117.826 28.2463 121.891C25.643 125.956 19.0519 125.256 13.8119 120.487C8.57191 115.717 6.42908 108.63 9.03223 104.565C11.6354 100.501 18.2266 101.201 23.4666 105.97Z" fill="#FFD570" fill-opacity="0.2"/>
<path d="M26.0642 103.36C29.6274 110.063 35.3745 113.186 39.0575 110.482C42.7405 107.778 42.8529 100.311 39.2896 93.6072C35.7265 86.9035 29.9794 83.7813 26.2963 86.4849C22.6134 89.1886 22.501 96.6563 26.0642 103.36Z" fill="#FFD570" fill-opacity="0.2"/>
<path d="M74.3972 43.3327C68.1157 45.8046 68.5552 53.3124 64.5486 61.861C58.766 74.3303 62.6244 82.0392 68.3254 81.8062C73.8831 81.7067 76.4413 73.0966 82.1251 71.4657C87.7162 69.3557 94.0077 74.7925 98.7985 71.1676C103.446 67.6761 102.846 58.904 91.7631 52.2857C84.3265 47.9179 80.9146 41.2061 74.3972 43.3327Z" fill="#F5D280" fill-opacity="0.2"/>
<path d="M57.5133 42.9792C62.6932 47.4745 64.7745 54.2976 62.4764 58.1403C60.1782 61.9829 53.8877 61.3526 48.851 56.7235C43.6712 52.228 41.4467 45.5387 43.8879 41.5624C46.3291 37.5861 52.3335 38.4837 57.5133 42.9792Z" fill="#F5D280" fill-opacity="0.2"/>
<path d="M88.3907 32.2459C86.3627 39.2298 88.0399 46.1475 91.998 47.8244C95.9563 49.5016 100.679 45.0911 102.446 38.0682C104.474 31.0844 102.797 24.1668 98.839 22.4896C94.8808 20.8127 90.1576 25.223 88.3907 32.2459Z" fill="#F5D280" fill-opacity="0.2"/>
<path d="M67.2943 23.6655C70.4199 30.6447 69.9332 38.169 66.1695 40.5521C62.4058 42.9353 56.6535 38.9745 53.5279 31.9953C50.4023 25.0162 50.8891 17.4919 54.6527 15.1086C58.4163 12.7255 64.1687 16.6864 67.2943 23.6655Z" fill="#F5D280" fill-opacity="0.2"/>
<path d="M70.5531 22.6021C71.4894 30.4942 75.6421 36.2316 79.9198 35.6308C84.1975 35.0299 86.8656 28.2968 85.9291 20.4046C84.9928 12.5123 80.8401 6.77515 76.5624 7.3759C72.2847 7.9768 69.6166 14.71 70.5531 22.6021Z" fill="#F5D280" fill-opacity="0.2"/>
</svg>
