<svg width="75" height="153" viewBox="0 0 75 153" fill="none" xmlns="http://www.w3.org/2000/svg">
<path d="M25.9835 104.829C23.921 106.183 23.9575 108.938 22.5441 112.388C20.5023 117.416 21.6398 120.008 23.4836 119.525C25.2793 119.101 26.2259 115.729 28.0838 114.728C29.9184 113.556 31.8733 115.136 33.4709 113.458C35.0203 111.839 34.9497 108.626 31.4644 106.942C29.1248 105.839 28.1175 103.586 25.9835 104.829Z" fill="#FFD570" fill-opacity="0.2"/>
<path d="M20.5377 105.872C22.1469 107.18 22.7231 109.566 21.9273 111.152C21.1315 112.737 19.1094 112.941 17.5483 111.574C15.9391 110.267 15.3148 107.94 16.1587 106.295C17.0026 104.65 18.9285 104.565 20.5377 105.872Z" fill="#FFD570" fill-opacity="0.2"/>
<path d="M30.6568 99.7422C29.9041 102.474 30.3485 104.924 31.6028 105.271C32.8572 105.617 34.4439 103.653 35.1129 100.924C35.8655 98.1922 35.4211 95.7425 34.1668 95.3957C32.9124 95.049 31.3257 97.0138 30.6568 99.7422Z" fill="#FFD570" fill-opacity="0.2"/>
<path d="M23.9663 98.0268C24.8775 100.398 24.6148 103.224 23.3663 104.37C22.1178 105.516 20.3163 104.447 19.4051 102.075C18.4939 99.7032 18.7566 96.8778 20.0051 95.7318C21.2536 94.5859 23.0551 95.6551 23.9663 98.0268Z" fill="#FFD570" fill-opacity="0.2"/>
<path d="M25.0333 97.4055C25.2249 100.268 26.4851 102.108 27.8745 101.587C29.264 101.067 30.2198 98.3832 30.0282 95.5204C29.8366 92.6576 28.5764 90.8181 27.187 91.3386C25.7975 91.8592 24.8417 94.5428 25.0333 97.4055Z" fill="#FFD570" fill-opacity="0.2"/>
<path d="M25.7556 46.0319C22.3811 43.9164 20.2127 47.2956 15.8777 48.8791C9.58004 51.22 8.76419 56.4011 11.1974 59.1668C13.5296 61.9168 17.2841 59.5798 20.1479 61.7488C23.1233 63.6697 24.0261 69.1173 27.1443 69.9989C30.1616 70.8648 32.6594 66.8733 30.1426 58.5216C28.431 52.9485 29.1196 48.4112 25.7556 46.0319Z" fill="#FFD570" fill-opacity="0.2"/>
<path d="M18.876 37.4019C19.6133 41.895 18.339 45.8108 16.1845 46.273C14.0301 46.7351 11.623 43.31 10.9869 38.8326C10.2497 34.3394 11.4228 30.4079 13.6784 29.9615C15.9338 29.515 18.1388 32.9088 18.876 37.4019Z" fill="#FFD570" fill-opacity="0.2"/>
<path d="M35.0199 48.3972C31.9939 50.3165 30.5227 54.0691 31.6365 56.7629C32.7502 59.4567 36.0864 59.974 39.0165 57.9072C42.0424 55.9879 43.5136 52.2353 42.3999 49.5414C41.2861 46.8477 37.95 46.3304 35.0199 48.3972Z" fill="#FFD570" fill-opacity="0.2"/>
<path d="M28.9717 34.1903C28.0809 38.6964 25.5239 41.6172 23.2196 40.7292C20.9153 39.8411 19.7737 35.2853 20.6645 30.7792C21.5553 26.2732 24.1123 23.3524 26.4166 24.2404C28.7209 25.1284 29.8625 29.6843 28.9717 34.1903Z" fill="#FFD570" fill-opacity="0.2"/>
<path d="M30.6538 35.3799C28.5708 39.1704 28.494 43.6699 30.4531 45.566C32.4123 47.462 35.6247 45.9698 37.7077 42.1793C39.7908 38.3889 39.8675 33.8893 37.9084 31.9932C35.9492 30.0972 32.7368 31.5895 30.6538 35.3799Z" fill="#FFD570" fill-opacity="0.2"/>
<path d="M58.5968 70.4899C56.4966 68.4639 54.4108 69.5604 51.0445 69.1347C46.1479 68.5367 44.7556 70.9281 46.0772 73.0168C47.3285 75.0688 50.394 74.9488 52.1183 76.8573C53.9614 78.6718 53.7647 81.6846 55.8721 83.0135C57.9093 84.3059 60.3274 82.9927 59.8136 78.0532C59.4477 74.748 60.6484 72.6464 58.5968 70.4899Z" fill="#F5D280" fill-opacity="0.2"/>
<path d="M54.9861 64.1745C54.8185 66.6573 53.2929 68.2785 51.6703 67.9025C50.0479 67.5265 48.8475 65.1116 49.0854 62.6653C49.253 60.1825 50.7083 58.5247 52.4011 58.9373C54.0939 59.3498 55.1536 61.6917 54.9861 64.1745Z" fill="#F5D280" fill-opacity="0.2"/>
<path d="M64.8974 74.3096C62.4212 74.4244 60.7791 75.9073 61.1622 77.586C61.5453 79.2647 63.8662 80.4709 66.2964 80.2543C68.7726 80.1395 70.4146 78.6566 70.0316 76.9779C69.6485 75.2992 67.3276 74.093 64.8974 74.3096Z" fill="#F5D280" fill-opacity="0.2"/>
<path d="M62.7518 65.4069C61.4104 67.4354 59.116 68.1899 57.5955 67.0881C56.0749 65.9863 55.9611 63.3573 57.3025 61.3288C58.6438 59.3004 60.9382 58.5459 62.4588 59.6476C63.9793 60.7494 64.0931 63.3784 62.7518 65.4069Z" fill="#F5D280" fill-opacity="0.2"/>
<path d="M63.7776 66.4852C61.6893 67.814 60.9349 70.0696 62.0504 71.5839C63.1659 73.0981 65.71 73.2523 67.7983 71.9234C69.8866 70.5946 70.641 68.339 69.5255 66.8247C68.41 65.3105 65.8659 65.1564 63.7776 66.4852Z" fill="#F5D280" fill-opacity="0.2"/>
</svg>
