<svg width="117" height="148" viewBox="0 0 117 148" fill="none" xmlns="http://www.w3.org/2000/svg">
<g clip-path="url(#clip0_132_422)">
<path d="M31.404 123.927C32.1144 122.096 31.615 120.466 31.1338 118.891C30.7153 117.52 30.3205 116.225 30.6062 114.712C31.405 110.529 31.9721 108.074 29.399 105.972C26.826 103.869 24.5303 104.913 20.5875 106.525C19.1599 107.108 17.8069 106.977 16.3781 106.84C14.7383 106.683 13.0447 106.519 11.3925 107.576C10.7832 107.946 10.239 108.423 9.78754 108.983C7.86958 111.33 8.04659 114.66 9.97172 116.233C11.8968 117.806 15.2865 118.833 17.4526 120.603C19.6186 122.373 21.2659 125.461 23.2151 127.054C25.1642 128.647 28.4327 128.132 30.3506 125.785C30.8074 125.229 31.1646 124.599 31.404 123.927Z" fill="#E3A438"/>
<path d="M15.0228 103.449C16.6789 104.803 19.5391 104.042 21.4112 101.751C23.2832 99.46 23.4583 96.5057 21.8021 95.1524C20.1459 93.7991 17.2857 94.5594 15.4136 96.8505C13.5416 99.1416 13.3666 102.096 15.0228 103.449Z" fill="#E3A438"/>
<path d="M25.5399 102.819C27.1961 104.172 30.0563 103.412 31.9284 101.121C33.8004 98.8295 33.9755 95.8752 32.3193 94.5219C30.6631 93.1686 27.8029 93.9289 25.9309 96.22C24.0588 98.5111 23.8838 101.465 25.5399 102.819Z" fill="#E3A438"/>
<path d="M33.2512 109.119C34.9074 110.473 37.7676 109.712 39.6396 107.421C41.5117 105.13 41.6866 102.176 40.0305 100.823C38.3743 99.4693 35.5141 100.23 33.642 102.521C31.77 104.812 31.595 107.766 33.2512 109.119Z" fill="#E3A438"/>
<path d="M34.7294 119.552C36.3857 120.905 39.2459 120.144 41.1178 117.853C42.9899 115.562 43.1649 112.608 41.5088 111.255C39.8526 109.901 36.9924 110.662 35.1203 112.953C33.2483 115.244 33.0733 118.198 34.7294 119.552Z" fill="#E3A438"/>
</g>
<g clip-path="url(#clip1_132_422)">
<path d="M75.5757 42.9219C76.2861 41.0906 75.7866 39.4603 75.3054 37.8853C74.8869 36.5143 74.4921 35.2192 74.7778 33.7068C75.5766 29.5236 76.1438 27.0689 73.5707 24.9665C70.9976 22.864 68.702 23.9073 64.7591 25.5196C63.3315 26.1028 61.9785 25.9717 60.5497 25.8351C58.9099 25.678 57.2163 25.5135 55.5641 26.5705C54.9549 26.9405 54.4106 27.4175 53.9592 27.9773C52.0412 30.3245 52.2182 33.6544 54.1433 35.2274C56.0685 36.8005 59.4581 37.8281 61.6242 39.598C63.7902 41.3679 65.4375 44.4559 67.3867 46.0486C69.3359 47.6413 72.6043 47.1267 74.5222 44.7793C74.979 44.2234 75.3362 43.5936 75.5757 42.9219Z" fill="#E3A438"/>
<path d="M59.1944 22.4438C60.8506 23.7971 63.7107 23.0369 65.5828 20.7457C67.4549 18.4546 67.6299 15.5003 65.9737 14.147C64.3175 12.7938 61.4573 13.554 59.5853 15.8451C57.7132 18.1363 57.5382 21.0906 59.1944 22.4438Z" fill="#E3A438"/>
<path d="M69.7116 21.8133C71.3678 23.1666 74.228 22.4063 76.1001 20.1153C77.9721 17.8241 78.1471 14.8698 76.4909 13.5165C74.8347 12.1633 71.9745 12.9235 70.1025 15.2146C68.2304 17.5057 68.0554 20.4601 69.7116 21.8133Z" fill="#E3A438"/>
<path d="M77.4228 28.114C79.079 29.4672 81.9392 28.707 83.8112 26.4159C85.6833 24.1248 85.8583 21.1704 84.2021 19.8172C82.5459 18.4639 79.6857 19.2242 77.8136 21.5153C75.9416 23.8065 75.7666 26.7607 77.4228 28.114Z" fill="#E3A438"/>
<path d="M78.9011 38.5461C80.5573 39.8994 83.4175 39.1391 85.2895 36.848C87.1616 34.5569 87.3365 31.6025 85.6804 30.2494C84.0242 28.896 81.164 29.6563 79.2919 31.9474C77.4199 34.2385 77.2449 37.1928 78.9011 38.5461Z" fill="#E3A438"/>
</g>
<g clip-path="url(#clip2_132_422)">
<path d="M75.8276 93.488C76.538 91.6567 76.0386 90.0265 75.5574 88.4514C75.1389 87.0804 74.7441 85.7854 75.0297 84.2729C75.8286 80.0898 76.3957 77.6351 73.8226 75.5326C71.2495 73.4302 68.9539 74.4734 65.0111 76.0858C63.5834 76.6689 62.2305 76.5378 60.8017 76.4013C59.1618 76.2442 57.4682 76.0797 55.8161 77.1366C55.2068 77.5066 54.6626 77.9837 54.2111 78.5434C52.2932 80.8907 52.4702 84.2206 54.3953 85.7936C56.3204 87.3666 59.7101 88.3942 61.8761 90.1642C64.0422 91.9341 65.6895 95.022 67.6387 96.6148C69.5878 98.2074 72.8562 97.6928 74.7742 95.3455C75.231 94.7895 75.5882 94.1598 75.8276 93.488Z" fill="#E3A438"/>
<path d="M59.4464 73.01C61.1025 74.3633 63.9627 73.603 65.8348 71.3119C67.7068 69.0207 67.8818 66.0665 66.2257 64.7132C64.5695 63.3599 61.7093 64.1202 59.8372 66.4113C57.9652 68.7024 57.7902 71.6568 59.4464 73.01Z" fill="#E3A438"/>
<path d="M69.9635 72.3794C71.6197 73.7328 74.4799 72.9725 76.352 70.6814C78.224 68.3903 78.3991 65.436 76.7429 64.0827C75.0867 62.7294 72.2265 63.4897 70.3545 65.7808C68.4824 68.0719 68.3074 71.0263 69.9635 72.3794Z" fill="#E3A438"/>
<path d="M77.6747 78.6802C79.331 80.0334 82.1912 79.2731 84.0631 76.9821C85.9353 74.691 86.1102 71.7366 84.4541 70.3834C82.7979 69.0301 79.9377 69.7904 78.0656 72.0814C76.1936 74.3726 76.0186 77.3269 77.6747 78.6802Z" fill="#E3A438"/>
<path d="M79.153 89.1123C80.8092 90.4655 83.6694 89.7053 85.5414 87.4142C87.4135 85.1231 87.5885 82.1687 85.9324 80.8155C84.2762 79.4622 81.416 80.2225 79.5439 82.5136C77.6719 84.8046 77.4968 87.759 79.153 89.1123Z" fill="#E3A438"/>
</g>
<defs>
<clipPath id="clip0_132_422">
<rect width="41" height="39" fill="white" transform="translate(16.0194 83.8806) rotate(24.2523)"/>
</clipPath>
<clipPath id="clip1_132_422">
<rect width="41" height="39" fill="white" transform="translate(60.1911 2.87524) rotate(24.2523)"/>
</clipPath>
<clipPath id="clip2_132_422">
<rect width="41" height="39" fill="white" transform="translate(60.443 53.4414) rotate(24.2523)"/>
</clipPath>
</defs>
</svg>
