<svg width="100" height="50" viewBox="0 0 100 50" fill="none" xmlns="http://www.w3.org/2000/svg">
<path d="M0 27.7778H8.33333C16.6667 27.7778 33.3333 27.7778 50 31.4757C66.6667 35.2431 83.3333 42.5347 91.6667 46.3021L100 50V0H91.6667C83.3333 0 66.6667 0 50 0C33.3333 0 16.6667 0 8.33333 0H0V27.7778Z" fill="#E3A438"/>
<path d="M0 27.7778H8.33333C16.6667 27.7778 33.3333 27.7778 50 31.4757C66.6667 35.2431 83.3333 42.5347 91.6667 46.3021L100 50V0H91.6667C83.3333 0 66.6667 0 50 0C33.3333 0 16.6667 0 8.33333 0H0V27.7778Z" fill="#E3A438"/>
</svg>
