<svg width="61" height="82" viewBox="0 0 61 82" fill="none" xmlns="http://www.w3.org/2000/svg">
<path d="M38.5233 72.5102C39.6361 70.8916 39.5253 69.1902 39.4194 67.5466C39.3277 66.1161 39.2415 64.765 39.8676 63.3589C41.6077 59.4719 42.7245 57.2136 40.7043 54.5754C38.6842 51.9372 36.2101 52.4241 32.002 53.0858C30.4785 53.3248 29.192 52.8858 27.833 52.4241C26.2733 51.8938 24.663 51.344 22.812 51.9924C22.1339 52.2122 21.4945 52.5512 20.9263 52.9921C18.5197 54.8349 17.9256 58.1162 19.4371 60.0899C20.9485 62.0638 24.0107 63.8439 25.7113 66.0649C27.4119 68.2858 28.3043 71.6699 29.8347 73.6685C31.3649 75.667 34.664 75.9183 37.0707 74.0754C37.6432 73.6395 38.1357 73.1088 38.5233 72.5102Z" fill="#6AC5C4"/>
<path d="M27.2945 48.8119C28.5947 50.51 31.5531 50.4284 33.9022 48.6296C36.2513 46.8308 37.1015 43.9961 35.8012 42.298C34.5009 40.5999 31.5425 40.6815 29.1935 42.4803C26.8444 44.2791 25.9941 47.1139 27.2945 48.8119Z" fill="#6AC5C4"/>
<path d="M37.6745 50.6188C38.9747 52.3169 41.9331 52.2353 44.2822 50.4365C46.6313 48.6377 47.4815 45.803 46.1812 44.1049C44.8809 42.4068 41.9225 42.4884 39.5735 44.2872C37.2244 46.086 36.3742 48.9208 37.6745 50.6188Z" fill="#6AC5C4"/>
<path d="M43.7287 58.525C45.029 60.223 47.9874 60.1414 50.3364 58.3426C52.6855 56.5439 53.5357 53.7091 52.2354 52.011C50.9351 50.3129 47.9767 50.3945 45.6276 52.1933C43.2786 53.9921 42.4284 56.8268 43.7287 58.525Z" fill="#6AC5C4"/>
<path d="M42.7664 69.0173C44.0667 70.7153 47.0251 70.6337 49.3741 68.835C51.7232 67.0362 52.5734 64.2014 51.2731 62.5034C49.9729 60.8052 47.0145 60.8868 44.6653 62.6856C42.3164 64.4844 41.4661 67.3191 42.7664 69.0173Z" fill="#6AC5C4"/>
<path d="M26.3241 28.478C26.3119 26.5137 25.2484 25.1811 24.2221 23.893C23.3291 22.7717 22.4861 21.7123 22.1961 20.2007C21.402 16.0166 21.0275 13.5252 17.8619 12.5153C14.6963 11.5053 12.9446 13.3191 9.86994 16.2674C8.75645 17.3343 7.44997 17.7095 6.07091 18.1075C4.48807 18.5639 2.8525 19.0332 1.70426 20.6233C1.27357 21.1913 0.942709 21.835 0.728497 22.5214C-0.192837 25.4092 1.19532 28.4411 3.56374 29.1967C5.9322 29.9524 9.46233 29.6627 12.1272 30.5129C14.7921 31.3631 17.4588 33.6298 19.8568 34.3949C22.2548 35.16 25.1055 33.4804 26.0268 30.5925C26.2474 29.9077 26.3482 29.1907 26.3241 28.478Z" fill="#6AC5C4"/>
<path d="M3.56429 15.4515C5.60185 16.1016 7.9826 14.3435 8.88192 11.5248C9.78113 8.70607 8.85841 5.89413 6.82084 5.24407C4.78327 4.594 2.40249 6.35203 1.50322 9.17071C0.603949 11.9894 1.52672 14.8014 3.56429 15.4515Z" fill="#6AC5C4"/>
<path d="M13.1141 11.0007C15.1517 11.6508 17.5325 9.8928 18.4318 7.0741C19.331 4.25539 18.4083 1.44341 16.3707 0.793351C14.3331 0.143287 11.9523 1.90131 11.0531 4.72001C10.1538 7.5387 11.0766 10.3507 13.1141 11.0007Z" fill="#6AC5C4"/>
<path d="M22.601 14.0273C24.6386 14.6773 27.0194 12.9193 27.9186 10.1006C28.8179 7.28191 27.8951 4.46992 25.8576 3.81986C23.82 3.1698 21.4393 4.92782 20.5399 7.74651C19.6407 10.5653 20.5634 13.3772 22.601 14.0273Z" fill="#6AC5C4"/>
<path d="M27.809 23.1865C29.8466 23.8366 32.2274 22.0785 33.1266 19.2599C34.0259 16.4412 33.1031 13.6292 31.0656 12.9792C29.028 12.329 26.6472 14.0871 25.7479 16.9058C24.8487 19.7244 25.7714 22.5364 27.809 23.1865Z" fill="#6AC5C4"/>
</svg>
