<svg width="28" height="21" viewBox="0 0 28 21" fill="none" xmlns="http://www.w3.org/2000/svg">
<path d="M17.0145 7.15287C17.7382 7.48877 18.5092 7.71159 19.3005 7.81354C19.6961 7.85995 20.0971 7.8163 20.4735 7.68588C20.8499 7.55545 21.192 7.34163 21.4741 7.06039C21.7846 6.71023 21.963 6.26096 22.2801 5.91741C22.6528 5.59045 23.1089 5.37346 23.5978 5.29063C24.0866 5.2078 24.5887 5.2624 25.0483 5.44834C25.713 5.66881 26.3147 6.04638 26.8024 6.54899C27.29 7.05161 27.6493 7.66443 27.8496 8.33548C28.0413 9.01132 28.0499 9.72596 27.8746 10.4062C27.6993 11.0865 27.3464 11.708 26.852 12.207C26.3448 12.6917 25.7108 13.0227 25.0233 13.1618C24.3357 13.301 23.6229 13.2425 22.9672 12.9932C22.9672 12.9932 27.5919 14.6713 26.3234 18.0738C25.0549 21.4763 20.7077 21.8991 19.1683 18.9922C19.1683 18.9922 18.5076 16.8582 17.847 16.6071C17.1863 16.3561 14.907 15.3585 14.907 15.3585L10.9825 13.7728C10.2609 13.4378 9.49221 13.215 8.70321 13.1122C8.30651 13.0647 7.90422 13.1079 7.52659 13.2383C7.14896 13.3688 6.80583 13.5831 6.523 13.8653C6.21909 14.2155 6.04069 14.6648 5.72356 15.0083C5.3522 15.3399 4.89471 15.5599 4.40379 15.6429C3.91286 15.7259 3.4085 15.6685 2.94876 15.4774C2.28406 15.2569 1.68235 14.8793 1.19469 14.3767C0.707031 13.8741 0.347815 13.2613 0.147509 12.5902C-0.0420898 11.9148 -0.0490418 11.2011 0.127387 10.5221C0.303817 9.84305 0.657279 9.22301 1.15171 8.72528C1.65627 8.23873 2.28889 7.90581 2.97562 7.76542C3.66235 7.62503 4.37484 7.68299 5.02986 7.93248C5.02986 7.93248 0.405171 6.25437 1.67367 2.85189C2.94216 -0.550584 7.28937 -0.973426 8.82874 1.93354C8.82874 1.93354 9.48942 4.06753 10.1501 4.31859C10.8108 4.56965 13.0835 5.56725 13.0835 5.56725L17.0145 7.15287Z" fill="#E3A438"/>
</svg>
