<svg width="153" height="283" viewBox="0 0 153 283" fill="none" xmlns="http://www.w3.org/2000/svg">
<path d="M76.2261 159.696C74.6918 157.16 72.1636 156.242 69.7225 155.353C67.598 154.579 65.5918 153.848 64.0154 152.11C59.6644 147.292 57.2122 144.348 51.9713 145.448C46.7305 146.547 45.6632 150.231 43.608 156.391C42.8632 158.621 41.312 160.101 39.6761 161.666C37.7983 163.462 35.856 165.315 35.4663 168.249C35.2982 169.313 35.3291 170.399 35.5575 171.452C36.49 175.895 40.7881 178.768 44.7092 177.945C48.6303 177.122 53.3809 174.061 57.7928 173.135C62.2048 172.209 67.7133 173.118 71.6835 172.285C75.6537 171.452 78.3732 167.106 77.4408 162.662C77.2225 161.607 76.8107 160.601 76.2261 159.696Z" fill="#6AC5C4" fill-opacity="0.6"/>
<path d="M34.0928 160.131C37.4662 159.423 39.463 155.333 38.5529 150.996C37.6427 146.659 34.1703 143.717 30.7969 144.425C27.4236 145.133 25.4268 149.223 26.3369 153.56C27.247 157.897 30.7195 160.839 34.0928 160.131Z" fill="#6AC5C4" fill-opacity="0.6"/>
<path d="M44.1114 147.097C47.4847 146.389 49.4815 142.299 48.5714 137.962C47.6613 133.625 44.1888 130.683 40.8155 131.391C37.4422 132.099 35.4453 136.188 36.3555 140.526C37.2656 144.863 40.738 147.805 44.1114 147.097Z" fill="#6AC5C4" fill-opacity="0.6"/>
<path d="M59.8179 143.801C63.1913 143.093 65.1881 139.003 64.278 134.666C63.3678 130.329 59.8954 127.387 56.522 128.095C53.1487 128.803 51.1519 132.893 52.062 137.23C52.9721 141.567 56.4446 144.509 59.8179 143.801Z" fill="#6AC5C4" fill-opacity="0.6"/>
<path d="M74.231 151.708C77.6044 151.001 79.6012 146.911 78.691 142.574C77.7809 138.236 74.3085 135.294 70.9351 136.002C67.5618 136.71 65.565 140.8 66.4751 145.137C67.3852 149.474 70.8577 152.416 74.231 151.708Z" fill="#6AC5C4" fill-opacity="0.6"/>
<path d="M123.355 243.164C121.101 241.238 118.413 241.161 115.816 241.085C113.556 241.018 111.422 240.954 109.379 239.799C103.734 236.592 100.481 234.568 95.8513 237.26C91.2215 239.951 91.3659 243.783 91.3508 250.277C91.3445 252.628 90.3371 254.521 89.276 256.521C88.0576 258.816 86.796 261.185 87.3482 264.093C87.5229 265.156 87.8935 266.177 88.4412 267.104C90.7228 271.03 95.706 272.406 99.1699 270.393C102.634 268.38 106.182 263.98 110.079 261.715C113.976 259.449 119.492 258.581 122.999 256.542C126.506 254.504 127.722 249.524 125.44 245.598C124.902 244.665 124.194 243.839 123.355 243.164Z" fill="#6AC5C4" fill-opacity="0.6"/>
<path d="M83.4932 256.818C86.4732 255.086 87.0836 250.576 84.8566 246.744C82.6295 242.913 78.4084 241.211 75.4284 242.943C72.4485 244.675 71.8381 249.185 74.0651 253.017C76.2922 256.848 80.5133 258.55 83.4932 256.818Z" fill="#6AC5C4" fill-opacity="0.6"/>
<path d="M88.9083 241.295C91.8883 239.563 92.4986 235.053 90.2716 231.222C88.0446 227.39 83.8234 225.689 80.8435 227.421C77.8635 229.153 77.2531 233.663 79.4802 237.494C81.7072 241.326 85.9283 243.028 88.9083 241.295Z" fill="#6AC5C4" fill-opacity="0.6"/>
<path d="M102.783 233.231C105.763 231.498 106.373 226.988 104.146 223.157C101.919 219.326 97.698 217.624 94.718 219.356C91.738 221.088 91.1276 225.598 93.3547 229.43C95.5817 233.261 99.8028 234.963 102.783 233.231Z" fill="#6AC5C4" fill-opacity="0.6"/>
<path d="M118.951 236.208C121.931 234.476 122.541 229.965 120.314 226.134C118.087 222.303 113.866 220.601 110.886 222.333C107.906 224.065 107.296 228.575 109.523 232.407C111.75 236.238 115.971 237.94 118.951 236.208Z" fill="#6AC5C4" fill-opacity="0.6"/>
<path d="M144.152 102.937C142.984 100.212 140.607 98.953 138.312 97.735C136.316 96.6743 134.43 95.672 133.11 93.7321C129.468 88.3575 127.448 85.1023 122.105 85.4654C116.762 85.8284 115.195 89.3285 112.306 95.1446C111.259 97.2498 109.518 98.5008 107.681 99.8242C105.573 101.343 103.392 102.908 102.6 105.76C102.286 106.791 102.166 107.87 102.247 108.944C102.554 113.474 106.413 116.915 110.41 116.643C114.407 116.372 119.536 113.998 124.034 113.692C128.532 113.387 133.861 115.05 137.909 114.775C141.956 114.5 145.251 110.573 144.944 106.043C144.874 104.968 144.605 103.914 144.152 102.937Z" fill="#6AC5C4" fill-opacity="0.6"/>
<path d="M102.365 97.5303C105.804 97.2966 108.348 93.5229 108.048 89.1015C107.747 84.6801 104.716 81.2852 101.277 81.5189C97.8381 81.7526 95.2938 85.5263 95.5943 89.9477C95.8947 94.3691 98.926 97.764 102.365 97.5303Z" fill="#6AC5C4" fill-opacity="0.6"/>
<path d="M114.093 86.0098C117.532 85.7761 120.076 82.0024 119.776 77.581C119.475 73.1596 116.444 69.7647 113.005 69.9984C109.566 70.2321 107.022 74.0058 107.322 78.4272C107.623 82.8486 110.654 86.2435 114.093 86.0098Z" fill="#6AC5C4" fill-opacity="0.6"/>
<path d="M130.104 84.9219C133.543 84.6882 136.087 80.9145 135.787 76.4931C135.486 72.0717 132.455 68.6768 129.016 68.9105C125.577 69.1442 123.033 72.9179 123.334 77.3393C123.634 81.7607 126.665 85.1556 130.104 84.9219Z" fill="#6AC5C4" fill-opacity="0.6"/>
<path d="M143.283 94.7499C146.722 94.5162 149.266 90.7425 148.966 86.3211C148.665 81.8997 145.634 78.5048 142.195 78.7385C138.756 78.9722 136.212 82.7459 136.512 87.1673C136.813 91.5887 139.844 94.9836 143.283 94.7499Z" fill="#6AC5C4" fill-opacity="0.6"/>
<path d="M51.4316 58.7653C51.8782 55.8349 50.525 53.5105 49.2196 51.2645C48.0841 49.3094 47.0121 47.4626 46.9152 45.118C46.6608 38.6309 46.6636 34.7996 41.9348 32.2867C37.206 29.7738 34.0269 31.9185 28.5024 35.3322C26.502 36.5674 24.3626 36.7102 22.1038 36.8641C19.5114 37.0401 16.8333 37.2185 14.6542 39.222C13.8436 39.9312 13.1718 40.7848 12.6728 41.7394C10.5422 45.7488 12.0021 50.7082 15.5401 52.5883C19.0781 54.4684 24.6872 55.1609 28.668 57.2764C32.6489 59.3918 36.2967 63.6183 39.879 65.5219C43.4612 67.4255 48.3333 65.8308 50.4639 61.8214C50.9724 60.8712 51.3005 59.8351 51.4316 58.7653Z" fill="#6AC5C4" fill-opacity="0.6"/>
<path d="M18.8003 32.1087C21.844 33.7262 25.9973 31.8649 28.0768 27.9515C30.1564 24.0381 29.3748 19.5545 26.331 17.9371C23.2873 16.3196 19.134 18.1809 17.0544 22.0943C14.9749 26.0076 15.7565 30.4913 18.8003 32.1087Z" fill="#6AC5C4" fill-opacity="0.6"/>
<path d="M34.8432 28.5181C37.887 30.1356 42.0402 28.2743 44.1198 24.3609C46.1994 20.4475 45.4177 15.9639 42.374 14.3465C39.3302 12.729 35.177 14.5903 33.0974 18.5037C31.0178 22.4171 31.7995 26.9007 34.8432 28.5181Z" fill="#6AC5C4" fill-opacity="0.6"/>
<path d="M49.0146 36.049C52.0584 37.6665 56.2116 35.8052 58.2912 31.8918C60.3708 27.9784 59.5891 23.4948 56.5454 21.8774C53.5016 20.2599 49.3484 22.1212 47.2688 26.0346C45.1892 29.948 45.9709 34.4316 49.0146 36.049Z" fill="#6AC5C4" fill-opacity="0.6"/>
<path d="M55.0166 51.354C58.0603 52.9714 62.2136 51.1102 64.2931 47.1968C66.3727 43.2834 65.5911 38.7997 62.5473 37.1823C59.5036 35.5649 55.3503 37.4261 53.2707 41.3395C51.1912 45.2529 51.9728 49.7365 55.0166 51.354Z" fill="#6AC5C4" fill-opacity="0.6"/>
</svg>
