<svg width="361" height="200" viewBox="0 0 361 200" fill="none" xmlns="http://www.w3.org/2000/svg">
<g clip-path="url(#clip0_1569_2955)">
<path d="M173.135 47.3H109.633V128.822H173.135V47.3Z" fill="#EBEBEB"/>
<path d="M173.136 128.822L141.434 128.932L109.633 128.992H109.457V128.817L109.364 47.2946V47.053H109.633L173.136 47.1189H173.344V47.322L173.251 88.1159L173.136 128.822ZM173.136 128.822L172.998 88.0061L172.932 47.3L173.136 47.5087L109.633 47.5691L109.902 47.3L109.803 128.822L109.633 128.646L141.34 128.712L173.136 128.822Z" fill="#DBDBDB"/>
<path d="M116.578 64.7268L141.384 64.6609L166.19 64.7268L141.384 64.7872L116.578 64.7268Z" fill="#C7C7C7"/>
<path d="M116.578 66.747L141.384 66.6866L166.19 66.747L141.384 66.8129L116.578 66.747Z" fill="#C7C7C7"/>
<path d="M116.578 68.7733L141.384 68.7074L166.19 68.7733L141.384 68.8337L116.578 68.7733Z" fill="#C7C7C7"/>
<path d="M116.578 70.7937L141.384 70.7333L166.19 70.7937L141.384 70.8541L116.578 70.7937Z" fill="#C7C7C7"/>
<path d="M116.578 72.8197L141.384 72.7538L166.19 72.8197L141.384 72.8801L116.578 72.8197Z" fill="#C7C7C7"/>
<path d="M116.578 74.8402L141.384 74.7798L166.19 74.8402L141.384 74.9006L116.578 74.8402Z" fill="#C7C7C7"/>
<path d="M116.578 76.8606L141.384 76.8002L166.19 76.8606L141.384 76.9265L116.578 76.8606Z" fill="#C7C7C7"/>
<path d="M116.578 78.8867L141.384 78.8263L166.19 78.8867L141.384 78.9471L116.578 78.8867Z" fill="#C7C7C7"/>
<path d="M116.578 80.9071L141.384 80.8467L166.19 80.9071L141.384 80.973L116.578 80.9071Z" fill="#C7C7C7"/>
<path d="M116.578 82.9332L141.384 82.8673L166.19 82.9332L141.384 82.9936L116.578 82.9332Z" fill="#C7C7C7"/>
<path d="M116.578 84.9536L141.384 84.8932L166.19 84.9536L141.384 85.0195L116.578 84.9536Z" fill="#C7C7C7"/>
<path d="M116.578 86.9793L141.384 86.9135L166.19 86.9793L141.384 87.0397L116.578 86.9793Z" fill="#C7C7C7"/>
<path d="M116.578 88.9998L141.384 88.9395L166.19 88.9998L141.384 89.0657L116.578 88.9998Z" fill="#C7C7C7"/>
<path d="M116.578 91.026L141.384 90.9601L166.19 91.026L141.384 91.0864L116.578 91.026Z" fill="#C7C7C7"/>
<path d="M116.578 93.0462L141.384 92.9858L166.19 93.0462L141.384 93.1121L116.578 93.0462Z" fill="#C7C7C7"/>
<path d="M125.588 86.9135H121.827V95.4017H125.588V86.9135Z" fill="#E3A438"/>
<path d="M132.567 82.3839H128.806V95.4017H132.567V82.3839Z" fill="#E3A438"/>
<path d="M139.545 77.3164H135.784V95.4074H139.545V77.3164Z" fill="#E3A438"/>
<path d="M146.523 75.1422H142.762V95.4074H146.523V75.1422Z" fill="#E3A438"/>
<path d="M153.502 71.2603H149.741V95.4072H153.502V71.2603Z" fill="#E3A438"/>
<path d="M160.48 67.4225H156.719V95.4017H160.48V67.4225Z" fill="#E3A438"/>
<path d="M117.924 63.3047L118.023 71.3317L118.088 79.3532C118.138 84.7064 118.149 90.0541 118.16 95.4073L117.924 95.1712H130.003L142.082 95.1986L154.161 95.2755L166.24 95.4128L154.161 95.55L142.082 95.6269H130.003H117.924H117.693V95.3963C117.693 90.0449 117.715 84.6936 117.759 79.3422L117.83 71.3207L117.924 63.3047Z" fill="#C7C7C7"/>
<path d="M125.588 97.1039H121.827V97.4443H125.588V97.1039Z" fill="#C7C7C7"/>
<path d="M132.567 97.1039H128.806V97.4443H132.567V97.1039Z" fill="#C7C7C7"/>
<path d="M139.545 97.1039H135.784V97.4443H139.545V97.1039Z" fill="#C7C7C7"/>
<path d="M146.523 97.1039H142.762V97.4443H146.523V97.1039Z" fill="#C7C7C7"/>
<path d="M153.502 97.1039H149.741V97.4443H153.502V97.1039Z" fill="#C7C7C7"/>
<path d="M160.48 97.1039H156.719V97.4443H160.48V97.1039Z" fill="#C7C7C7"/>
<path d="M122.25 87.9842C124.087 87.9566 125.92 87.8191 127.741 87.5724C129.566 87.3344 131.378 87.0045 133.171 86.5841C136.745 85.7779 140.213 84.5562 143.504 82.944C146.803 81.3544 149.847 79.2818 152.535 76.7947L153.046 76.3335L153.529 75.8448L154.485 74.862C155.077 74.1648 155.714 73.5004 156.252 72.7592C157.392 71.3164 158.423 69.7914 159.338 68.1967H159.366C156.866 73.1863 153.143 77.4611 148.544 80.6215C147.021 81.6782 145.421 82.6179 143.756 83.4326C137.06 86.6339 129.697 88.1941 122.278 87.9842H122.25Z" fill="#263238"/>
<path d="M160.392 70.8267L159.871 70.9585L159.228 68.3889L156.714 69.218L156.549 68.7074L159.613 67.7026L160.392 70.8267Z" fill="#263238"/>
<path d="M115.519 110.116H167.25V108.024H115.519V110.116Z" fill="#DBDBDB"/>
<path d="M115.519 115.403H144.646V113.312H115.519V115.403Z" fill="#DBDBDB"/>
<path d="M126.818 58.4017L155.945 58.4017V56.3099H126.818V58.4017Z" fill="#DBDBDB"/>
<path d="M161.133 148.697L98.9268 161.479L82.5213 81.6263L128.707 72.1388L147.852 84.064L161.133 148.697Z" fill="#E3A438"/>
<path opacity="0.8" d="M161.133 148.697L98.9268 161.479L82.5213 81.6263L128.707 72.1388L147.852 84.064L161.133 148.697Z" fill="white"/>
<path d="M128.707 72.1388L147.852 84.064L131.831 87.3528L128.707 72.1388Z" fill="#E3A438"/>
<path d="M91.7616 95.8268L126.348 88.7209L125.927 86.6719L91.3406 93.7778L91.7616 95.8268Z" fill="#DBDBDB"/>
<path d="M92.8222 101L127.409 93.8945L126.988 91.8455L92.4012 98.9514L92.8222 101Z" fill="#DBDBDB"/>
<path d="M93.8939 106.173L128.48 99.0673L128.06 97.0182L93.4729 104.124L93.8939 106.173Z" fill="#DBDBDB"/>
<path d="M94.9564 111.35L145.629 100.939L145.208 98.89L94.5355 109.301L94.9564 111.35Z" fill="#DBDBDB"/>
<path d="M96.1189 116.252L146.815 105.906L146.397 103.856L95.7005 114.202L96.1189 116.252Z" fill="#DBDBDB"/>
<path d="M97.0834 121.698L147.756 111.287L147.335 109.238L96.6624 119.648L97.0834 121.698Z" fill="#DBDBDB"/>
<path d="M98.1506 126.876L148.823 116.465L148.402 114.416L97.7296 124.827L98.1506 126.876Z" fill="#DBDBDB"/>
<path d="M99.2112 132.049L149.884 121.639L149.463 119.59L98.7902 130L99.2112 132.049Z" fill="#DBDBDB"/>
<path d="M100.273 137.229L150.945 126.818L150.525 124.769L99.852 135.18L100.273 137.229Z" fill="#DBDBDB"/>
<path d="M101.334 142.403L152.006 131.992L151.585 129.943L100.913 140.354L101.334 142.403Z" fill="#DBDBDB"/>
<path d="M102.405 147.575L153.078 137.165L152.657 135.116L101.984 145.526L102.405 147.575Z" fill="#DBDBDB"/>
<path d="M103.467 152.755L154.14 142.344L153.719 140.295L103.046 150.706L103.467 152.755Z" fill="#DBDBDB"/>
<path d="M288.687 90.6582L219.008 95.7313C211.075 65.5669 219.557 35.4024 213.392 5.23796L283.06 0.164795C290.999 30.3292 282.511 60.4937 288.687 90.6582Z" fill="#EBEBEB"/>
<path d="M288.687 90.6581L219.052 95.9179H218.887C218.87 95.8621 218.855 95.8052 218.844 95.7477C210.866 65.5887 219.332 35.4243 213.122 5.25984C213.122 5.17199 213.084 5.07865 213.062 4.99081H213.337L283.016 0H283.208C283.223 0.064947 283.241 0.129087 283.263 0.192167C291.131 30.3182 282.56 60.4881 288.687 90.6581ZM288.687 90.6581C282.428 60.4991 290.884 30.3402 282.878 0.181185L283.12 0.356879L213.446 5.5124L213.661 5.21591C219.815 35.4133 211.278 65.5503 219.151 95.7203L218.937 95.561L288.687 90.6581Z" fill="#DBDBDB"/>
<path d="M221.803 18.1623L260.922 15.3457C261.01 16.118 261.087 16.8922 261.153 17.6682L221.984 20.4902C221.929 19.7106 221.869 18.9364 221.803 18.1623Z" fill="#DBDBDB"/>
<path d="M222.193 24.0317L261.433 21.2096C261.48 21.9819 261.524 22.7561 261.565 23.5321L222.286 26.3541C222.259 25.58 222.226 24.8058 222.193 24.0317Z" fill="#DBDBDB"/>
<path d="M222.374 29.8953L261.707 27.0732C261.707 27.8474 261.746 28.6215 261.762 29.3957L222.396 32.2288C222.396 31.4436 222.385 30.6695 222.374 29.8953Z" fill="#DBDBDB"/>
<path d="M222.396 35.7591L280.117 31.6302C280.117 32.4044 280.117 33.1785 280.117 33.9527L222.363 38.0815C222.385 37.3074 222.396 36.5332 222.396 35.7591Z" fill="#DBDBDB"/>
<path d="M222.319 41.6231L280.111 37.4943L280.078 39.8167L222.27 43.951L222.319 41.6231Z" fill="#DBDBDB"/>
<path d="M222.182 47.4922L280.007 43.3579C280.007 44.1321 279.974 44.9062 279.952 45.6804L222.116 49.7982C222.143 49.0405 222.165 48.2664 222.182 47.4922Z" fill="#DBDBDB"/>
<path d="M222.044 53.3562L279.864 49.2494C279.864 50.0235 279.831 50.8032 279.809 51.5773L222 55.7061C222.017 54.9045 222.028 54.1304 222.044 53.3562Z" fill="#DBDBDB"/>
<path d="M221.956 59.2196L279.765 55.0908C279.765 55.865 279.738 56.6391 279.727 57.4133L221.967 61.5421C221.945 60.7789 221.945 59.9938 221.956 59.2196Z" fill="#DBDBDB"/>
<path d="M221.962 65.0836L279.666 60.9548C279.666 61.729 279.666 62.5031 279.666 63.2773L222.017 67.4116C221.984 66.6374 221.973 65.8633 221.962 65.0836Z" fill="#DBDBDB"/>
<path d="M222.116 70.9528L279.716 66.8185C279.716 67.5926 279.749 68.3668 279.776 69.1464L222.231 73.2752C222.187 72.5029 222.149 71.7288 222.116 70.9528Z" fill="#DBDBDB"/>
<path d="M222.472 76.8168L279.924 72.6825C279.963 73.4621 280.012 74.2363 280.062 75.0104L222.665 79.1393C222.599 78.3486 222.533 77.591 222.472 76.8168Z" fill="#DBDBDB"/>
<path d="M223.076 82.6806L280.347 78.5518C280.418 79.3259 280.495 80.1001 280.583 80.8742L223.395 85.0085C223.279 84.2344 223.175 83.4547 223.076 82.6806Z" fill="#DBDBDB"/>
<path d="M278.777 122.947C254.751 118.873 230.997 114.805 207.517 110.742C210.586 80.9345 225.629 51.1489 224.861 21.3633C248.887 25.4372 272.64 29.5111 296.121 33.585C293.074 63.3706 278.008 93.1727 278.777 122.947Z" fill="#E3A438"/>
<path opacity="0.8" d="M278.777 122.947C254.751 118.873 230.997 114.805 207.517 110.742C210.586 80.9345 225.629 51.1489 224.861 21.3633C248.887 25.4372 272.64 29.5111 296.121 33.585C293.074 63.3706 278.008 93.1727 278.777 122.947Z" fill="white"/>
<path d="M230.769 35.7208C243.792 37.9865 256.755 40.2523 269.657 42.518C269.526 43.2866 269.388 44.0498 269.246 44.813C256.369 42.5509 243.442 40.2852 230.467 38.0158C230.577 37.2527 230.675 36.4895 230.769 35.7208Z" fill="#DBDBDB"/>
<path d="M229.934 41.5132C242.851 43.7789 255.723 46.0446 268.548 48.3103C268.384 49.079 268.219 49.8422 268.049 50.6053C255.256 48.3433 242.418 46.0776 229.533 43.8082C229.671 43.045 229.802 42.2818 229.934 41.5132Z" fill="#DBDBDB"/>
<path d="M228.858 47.3057L267.247 54.1028C267.06 54.866 266.879 55.6347 266.698 56.3978C253.96 54.1284 241.189 51.8627 228.386 49.6007C228.539 48.8375 228.704 48.0743 228.858 47.3057Z" fill="#DBDBDB"/>
<path d="M227.606 53.0924C246.318 56.416 264.967 59.7358 283.554 63.0521C283.351 63.8152 283.142 64.5784 282.933 65.3471C264.35 62.0308 245.725 58.7128 227.057 55.3929C227.222 54.6297 227.403 53.8666 227.606 53.0924Z" fill="#DBDBDB"/>
<path d="M226.162 58.8903C244.8 62.2138 263.4 65.5337 281.961 68.8499C281.753 69.6131 281.544 70.3763 281.33 71.1449L225.569 61.1853C225.767 60.4221 225.959 59.6809 226.162 58.8903Z" fill="#DBDBDB"/>
<path d="M224.636 64.6829L280.358 74.6425C280.15 75.4057 279.936 76.1688 279.727 76.9375L224.015 66.9779C224.224 66.2147 224.433 65.446 224.636 64.6829Z" fill="#DBDBDB"/>
<path d="M223.055 70.4752L278.783 80.4349C278.574 81.198 278.371 81.9612 278.168 82.7244C259.559 79.4082 240.975 76.0901 222.418 72.7702C222.632 72.007 222.84 71.2384 223.055 70.4752Z" fill="#DBDBDB"/>
<path d="M221.457 76.2676C240.029 79.5838 258.633 82.9018 277.267 86.2217C277.075 86.9904 276.883 87.7536 276.718 88.5167C258.051 85.2005 239.427 81.8825 220.847 78.5626C221.018 77.7994 221.243 77.0307 221.457 76.2676Z" fill="#DBDBDB"/>
<path d="M219.92 82.0601C238.521 85.3763 257.178 88.6943 275.889 92.0142C275.713 92.7829 275.543 93.5461 275.373 94.3092C256.618 90.993 237.932 87.6749 219.316 84.3551C219.486 83.5864 219.689 82.8232 219.92 82.0601Z" fill="#DBDBDB"/>
<path d="M218.404 87.8524C237.072 91.1686 255.809 94.4867 274.615 97.8066C274.461 98.5752 274.319 99.3384 274.176 100.102C255.3 96.7854 236.523 93.4673 217.844 90.1474C218.025 89.3788 218.212 88.6156 218.404 87.8524Z" fill="#DBDBDB"/>
<path d="M217.037 93.6394C235.785 96.9629 254.636 100.283 273.589 103.599C273.462 104.362 273.347 105.131 273.237 105.894C254.218 102.578 235.32 99.2525 216.543 95.9179C216.702 95.1712 216.867 94.4081 217.037 93.6394Z" fill="#DBDBDB"/>
<path d="M215.84 99.4318C234.702 102.752 253.678 106.072 272.771 109.391C272.683 110.155 272.606 110.923 272.534 111.686C253.355 108.363 234.321 105.043 215.434 101.727C215.56 100.964 215.697 100.2 215.84 99.4318Z" fill="#DBDBDB"/>
<path d="M249.71 110.736H126.565V200H249.71V110.736Z" fill="#E3A438"/>
<path d="M170.077 101.491H126.565V110.737H172.575L170.077 101.491Z" fill="#E3A438"/>
<g opacity="0.1">
<path d="M249.71 110.736H126.565V200H249.71V110.736Z" fill="black"/>
<path d="M170.077 101.491H126.565V110.737H172.575L170.077 101.491Z" fill="black"/>
</g>
<path d="M248.87 166.596C224.828 159.717 201.323 152.92 178.181 146.188C184.001 118.983 200.307 92.3326 201.417 64.7267C225.437 71.2109 248.925 77.6951 272.078 84.2067C266.154 111.84 249.87 138.743 248.87 166.596Z" fill="#EBEBEB"/>
<path d="M248.87 166.596C224.828 159.772 201.307 153.018 178.148 146.342L177.978 146.293L178.011 146.139C183.809 118.928 200.082 92.2667 201.137 64.6498C201.137 64.5674 201.137 64.4796 201.137 64.3972L201.417 64.4741C225.454 70.9748 248.953 77.4919 272.078 84.031L272.271 84.0859C272.271 84.1408 272.271 84.2012 272.232 84.2616C266.27 111.889 249.936 138.787 248.87 166.596ZM248.87 166.596C249.804 138.743 266.039 111.84 271.864 84.1518C271.914 84.2287 271.963 84.3055 272.018 84.3824C248.892 77.8982 225.41 71.4305 201.406 64.9737L201.697 64.798C200.527 92.3984 184.193 119.038 178.346 146.232L178.214 146.035C201.334 152.815 224.861 159.667 248.87 166.596Z" fill="#DBDBDB"/>
<path d="M245.066 116.051C241.491 125.599 230.659 130.919 220.551 127.933C210.443 124.946 205.145 114.86 208.631 105.367C212.117 95.8739 222.544 90.4713 232.789 93.3978C243.034 96.3242 248.684 106.498 245.066 116.051Z" fill="#455A64"/>
<path d="M226.859 110.698C222.714 115.431 218.519 120.152 214.429 124.874C211.471 122.696 209.305 119.613 208.259 116.093C207.213 112.572 207.343 108.806 208.631 105.367C212.068 95.9177 222.61 90.4877 232.789 93.3976C242.968 96.3075 248.673 106.575 245.076 116.051C239.004 114.261 232.932 112.477 226.859 110.698Z" fill="#DBDBDB"/>
<path d="M226.859 110.698C230.472 115.557 234.046 120.416 237.697 125.292C235.206 126.959 232.38 128.06 229.417 128.516C226.455 128.973 223.428 128.773 220.551 127.933C210.459 124.973 205.178 114.799 208.631 105.367C212.084 95.9343 222.61 90.4878 232.789 93.3977C242.968 96.3076 248.673 106.575 245.077 116.051C239.004 114.261 232.932 112.477 226.859 110.698Z" fill="#DBDBDB"/>
<path d="M226.859 110.698L207.758 113.882C207.334 111.015 207.634 108.088 208.631 105.367C212.068 95.9177 222.61 90.4877 232.789 93.3976C242.968 96.3075 248.673 106.575 245.077 116.051C239.004 114.261 232.932 112.477 226.859 110.698Z" fill="#E3A438"/>
<path d="M206.852 76.7014C216.614 79.4137 226.305 82.1278 235.924 84.8437C235.754 85.552 235.584 86.2548 235.402 86.9575C225.812 84.238 216.164 81.522 206.457 78.8097C206.594 78.107 206.742 77.4042 206.852 76.7014Z" fill="#DBDBDB"/>
<path d="M204.65 131.089C217.509 134.885 230.437 138.694 243.435 142.515C243.243 143.218 243.051 143.921 242.886 144.623C229.83 140.791 216.861 136.977 203.981 133.181C204.189 132.484 204.42 131.787 204.65 131.089Z" fill="#DBDBDB"/>
<path d="M202.97 136.366C215.913 140.173 228.946 143.998 242.068 147.841C241.903 148.544 241.744 149.252 241.59 149.955C228.413 146.1 215.333 142.268 202.35 138.458C202.553 137.76 202.756 137.063 202.97 136.366Z" fill="#DBDBDB"/>
<path d="M201.466 141.648C214.511 145.473 227.67 149.316 240.942 153.177C240.81 153.88 240.684 154.589 240.569 155.297C227.227 151.421 214.012 147.568 200.922 143.739C201.098 143.048 201.279 142.345 201.466 141.648Z" fill="#DBDBDB"/>
<path d="M197.046 131.145L192.368 129.772L193.077 127.686L197.749 129.064C197.513 129.755 197.277 130.453 197.046 131.145Z" fill="#E3A438"/>
<path d="M195.383 136.415L190.672 135.032C190.886 134.34 191.106 133.643 191.325 132.945L196.025 134.329C195.805 135.021 195.591 135.718 195.383 136.415Z" fill="#455A64"/>
<path d="M193.9 141.692L189.173 140.303C189.36 139.605 189.552 138.913 189.749 138.216L194.482 139.6C194.274 140.295 194.08 140.993 193.9 141.692Z" fill="#DBDBDB"/>
<path d="M249.387 200H126.242L116.743 118.143H239.888L249.387 200Z" fill="#E3A438"/>
<path d="M159.272 109.666H115.76L116.743 118.143H162.753L159.272 109.666Z" fill="#E3A438"/>
<path d="M200.955 55.4862C200.761 54.7707 200.669 54.0314 200.681 53.29C200.666 52.5486 200.758 51.8089 200.955 51.0939C201.322 52.535 201.322 54.0451 200.955 55.4862Z" fill="#263238"/>
<path d="M196.486 56.7766C195.963 56.2531 195.514 55.6601 195.152 55.0141C194.772 54.3787 194.484 53.693 194.296 52.9772C194.82 53.5002 195.269 54.0933 195.63 54.7396C196.009 55.375 196.298 56.0607 196.486 56.7766Z" fill="#263238"/>
<path d="M193.269 60.1256C192.553 59.9371 191.867 59.6488 191.232 59.2691C190.584 58.9107 189.99 58.4614 189.469 57.9349C190.185 58.1234 190.871 58.4117 191.506 58.7914C192.151 59.1545 192.744 59.6033 193.269 60.1256Z" fill="#263238"/>
<path d="M192.154 64.6223C190.713 64.9892 189.203 64.9892 187.762 64.6223C189.204 64.2626 190.712 64.2626 192.154 64.6223Z" fill="#263238"/>
<path d="M193.444 69.108C192.921 69.632 192.328 70.081 191.682 70.4422C191.047 70.8219 190.361 71.1102 189.645 71.2987C190.707 70.2599 192.014 69.5047 193.444 69.1025V69.108Z" fill="#263238"/>
<path d="M196.793 72.3088C196.604 73.0243 196.316 73.7099 195.937 74.3458C195.577 74.9912 195.128 75.5827 194.603 76.1027C194.791 75.3886 195.08 74.7047 195.459 74.0713C195.82 73.4244 196.269 72.8312 196.793 72.3088Z" fill="#263238"/>
<path d="M201.307 73.4454C201.675 74.8864 201.675 76.3968 201.307 77.8378C200.939 76.3968 200.939 74.8864 201.307 73.4454Z" fill="#263238"/>
<path d="M205.776 72.1497C206.298 72.6742 206.747 73.267 207.11 73.9121C207.49 74.5475 207.778 75.2332 207.967 75.949C207.44 75.4282 206.991 74.8347 206.633 74.1866C206.253 73.5512 205.964 72.8655 205.776 72.1497Z" fill="#263238"/>
<path d="M208.999 68.8005C209.713 68.989 210.397 69.2773 211.031 69.657C211.673 70.0182 212.263 70.4673 212.782 70.9912C211.352 70.5915 210.047 69.8359 208.988 68.795L208.999 68.8005Z" fill="#263238"/>
<path d="M210.108 64.2876C210.824 64.0968 211.563 64.0044 212.304 64.013C213.046 63.9981 213.785 64.0906 214.5 64.2876C213.785 64.4845 213.046 64.577 212.304 64.5621C211.563 64.5707 210.824 64.4783 210.108 64.2876Z" fill="#263238"/>
<path d="M208.818 59.8237C209.341 59.2998 209.934 58.8508 210.58 58.4896C211.214 58.1055 211.9 57.8152 212.617 57.6276C212.096 58.154 211.503 58.6033 210.855 58.9617C210.218 59.3409 209.533 59.631 208.818 59.8237Z" fill="#263238"/>
<path d="M205.468 56.6008C205.657 55.8849 205.945 55.1992 206.325 54.5638C206.683 53.9158 207.133 53.3223 207.659 52.8014C207.471 53.5172 207.182 54.2029 206.803 54.8383C206.441 55.4846 205.992 56.0777 205.468 56.6008Z" fill="#263238"/>
<path d="M203.195 155.412H231.411C232.237 153.648 232.712 151.741 232.811 149.796V127.214H204.596V150.109C204.596 152.376 203.195 155.412 203.195 155.412Z" fill="#455A64"/>
<path d="M208.049 133.868C211.343 133.593 214.687 133.533 218.003 133.517C221.319 133.5 224.641 133.593 227.957 133.868C224.663 134.137 221.319 134.203 218.003 134.214C214.687 134.225 211.365 134.137 208.049 133.868Z" fill="white"/>
<path d="M208.049 137.585C211.036 137.316 214.017 137.25 217.004 137.233C219.991 137.217 222.972 137.31 225.953 137.585C222.972 137.859 219.985 137.92 217.004 137.936C214.023 137.953 211.036 137.859 208.049 137.585Z" fill="white"/>
<path d="M208.049 141.307C210.657 141.033 213.27 140.972 215.878 140.956C218.494 140.941 221.109 141.059 223.713 141.307C221.1 141.576 218.492 141.642 215.878 141.653C213.265 141.664 210.657 141.576 208.049 141.307Z" fill="white"/>
<path d="M208.049 145.024C211.343 144.755 214.687 144.689 218.003 144.673C221.319 144.656 224.641 144.75 227.957 145.024C224.663 145.299 221.319 145.359 218.003 145.376C214.687 145.392 211.365 145.299 208.049 145.024Z" fill="white"/>
</g>
<defs>
<clipPath id="clip0_1569_2955">
<rect width="360.881" height="200" fill="white"/>
</clipPath>
</defs>
</svg>
