<svg width="200" height="196" viewBox="0 0 200 196" fill="none" xmlns="http://www.w3.org/2000/svg">
<path d="M8.36166 34.8431L1.4563 68.1646C4.5285 71.2841 7.78503 74.2287 13.0409 75.3394L38.3274 79.7822L44.2686 40.6141L8.36166 34.8431Z" fill="#FAFAFA"/>
<path d="M6.92001 32.7875L0.0146484 66.1089L11.5992 73.2837L36.8858 77.7266L44.3536 40.1277L6.92001 32.7875Z" fill="#F5F5F5"/>
<path d="M4.72646 64.3317L0 66.1088C0 66.1088 1.70153 68.8832 4.18292 70.3626C6.44497 71.7873 8.95648 72.7704 11.5846 73.2599C11.5846 73.2599 6.07823 70.5375 4.72646 64.3317Z" fill="#E0E0E0"/>
<path d="M3.07187 39.9385L20.3565 34.5787L19.2553 30.9393L1.68701 36.0486L3.07187 39.9385Z" fill="#EBEBEB"/>
<path d="M47.3452 49.1172L36.1387 34.9048L33.1421 37.2397L44.2068 51.8066L47.3452 49.1172Z" fill="#EBEBEB"/>
<path d="M37.85 51.197C37.85 51.2631 31.4551 50.0721 23.595 48.536C15.7349 46.9999 9.37306 45.7001 9.38724 45.6292C9.40142 45.5583 15.7821 46.7541 23.6423 48.2902C31.5024 49.8263 37.8642 51.1308 37.85 51.197Z" fill="#E0E0E0"/>
<path d="M36.7197 56.3061C36.7197 56.3722 30.3248 55.1812 22.4647 53.6404C14.6046 52.0995 8.22389 50.8281 8.25698 50.7383C8.29006 50.6485 14.6519 51.8632 22.512 53.3993C30.3721 54.9354 36.7339 56.2399 36.7197 56.3061Z" fill="#E0E0E0"/>
<path d="M35.9872 60.8863C35.9872 60.9525 29.5923 59.7614 21.7369 58.2253C13.8815 56.6892 7.51498 55.3894 7.52443 55.3185C7.53389 55.2477 13.9193 56.4434 21.7842 57.9843C29.649 59.5251 36.0014 60.8201 35.9872 60.8863Z" fill="#E0E0E0"/>
<path d="M35.1034 65.2628C35.1034 65.3289 28.7085 64.1379 20.8484 62.5971C12.9883 61.0562 6.62648 59.7612 6.64066 59.695C6.65484 59.6288 13.0356 60.8199 20.8957 62.356C28.7558 63.8921 35.1129 65.1966 35.1034 65.2628Z" fill="#E0E0E0"/>
<path d="M170.167 19.5204L161.229 41.3046C158.266 41.9048 155.255 42.3349 151.81 40.9406L135.584 33.7044L147.338 8.93311L170.167 19.5204Z" fill="#FAFAFA"/>
<path d="M171.788 18.8965L162.855 40.6855L153.431 40.3168L137.205 33.0806L147.475 8.62122L171.788 18.8965Z" fill="#F5F5F5"/>
<path d="M160.837 37.84L162.855 40.6758C161.575 41.2294 160.194 41.5142 158.8 41.5124C156.95 41.452 155.128 41.0431 153.43 40.3072C153.43 40.3072 157.661 40.9027 160.837 37.84Z" fill="#E0E0E0"/>
<path d="M171.225 24.4878L163.384 14.7277L165.426 13.064L173.527 22.791L171.225 24.4878Z" fill="#EBEBEB"/>
<path d="M142.28 12.6245L154.205 8.80554L155.023 11.3058L143.037 15.38L142.28 12.6245Z" fill="#EBEBEB"/>
<path d="M146.922 17.4882C146.945 17.4267 151.105 19.1283 156.209 21.2693C161.314 23.4104 165.431 25.2301 165.402 25.2916C165.374 25.353 161.219 23.6562 156.115 21.5104C151.01 19.3646 146.893 17.5496 146.922 17.4882Z" fill="#E0E0E0"/>
<path d="M145.594 20.8576C145.617 20.7914 149.777 22.4929 154.881 24.6387C159.986 26.7845 164.098 28.5995 164.074 28.6609C164.05 28.7224 159.886 27.0256 154.787 24.8798C149.687 22.734 145.565 20.919 145.594 20.8576Z" fill="#E0E0E0"/>
<path d="M144.237 23.7696C144.266 23.7034 148.425 25.4049 153.525 27.5507C158.625 29.6965 162.746 31.5115 162.718 31.5729C162.689 31.6344 158.535 29.9376 153.43 27.7918C148.326 25.646 144.214 23.831 144.237 23.7696Z" fill="#E0E0E0"/>
<path d="M143.056 26.6197C143.079 26.5582 147.239 28.2597 152.343 30.4008C157.448 32.5419 161.56 34.3616 161.536 34.423C161.513 34.4845 157.349 32.7877 152.244 30.6419C147.139 28.4961 143.027 26.6811 143.056 26.6197Z" fill="#E0E0E0"/>
<path d="M160.449 112.362C153.208 106.463 152.211 96.4338 153.175 87.5576C153.336 86.0735 153.289 84.4995 154.092 83.247C154.896 81.9945 156.611 81.2288 157.873 81.952C158.937 82.5522 159.324 83.8709 159.863 84.9769C160.582 86.4545 161.704 87.6984 163.101 88.5643C164.008 89.1267 165.157 89.5096 166.131 89.0653C167.463 88.4556 167.747 86.7021 167.846 85.218C168.035 82.464 168.223 79.7085 168.409 76.9514C168.43 75.4684 168.69 73.9985 169.179 72.5983C169.742 71.2277 170.852 70.0035 172.289 69.7105C173.726 69.4174 175.399 70.3627 175.598 71.8327C175.606 72.4469 175.575 73.0611 175.503 73.6712C175.503 74.2904 175.73 74.9899 176.302 75.2026C176.874 75.4153 177.502 75.0466 177.975 74.6449C179.61 73.2695 180.787 71.4215 181.898 69.5829C183.009 67.7443 184.091 65.8584 185.594 64.3318C187.097 62.8051 189.106 61.6613 191.233 61.6944C193.36 61.7275 195.515 63.2069 195.893 65.3243C196.271 67.4418 194.905 69.4694 193.459 71.0575C191.312 73.4137 188.834 75.4467 186.105 77.0932C185.581 77.3356 185.147 77.7377 184.866 78.2417C184.474 79.187 185.339 80.2505 186.284 80.6475C187.362 81.0965 188.562 81.0729 189.706 81.2903C190.85 81.5077 192.069 82.1127 192.414 83.2329C192.887 84.7879 191.526 86.2814 190.207 87.222C187.565 89.1164 184.614 90.5396 181.487 91.4285C180.371 91.7499 179.199 92.0099 178.268 92.7094C177.337 93.4089 176.708 94.6992 177.157 95.7769C177.606 96.8545 178.949 97.294 180.102 97.1664C181.255 97.0388 182.319 96.4953 183.434 96.1691C185.523 95.55 188.132 95.8856 189.304 97.7383C190.075 98.953 190.028 100.574 189.493 101.907C188.897 103.225 188.044 104.411 186.984 105.395C183.479 109.02 179.075 111.65 174.222 113.019C169.392 114.305 164.996 114.437 160.44 112.362" fill="#F5F5F5"/>
<path d="M159.844 118.951C160.558 114.855 161.666 110.838 163.152 106.955C164.988 102.217 167.094 97.5881 169.462 93.0922L171.306 89.5427C171.911 88.3799 172.511 87.222 173.173 86.1302C174.44 84.0358 175.822 82.0129 177.313 80.0708C178.731 78.2086 180.149 76.4929 181.458 74.8717C182.767 73.2506 184.058 71.8185 185.272 70.5329C187.176 68.4988 189.238 66.6196 191.44 64.9131C192.22 64.3081 192.858 63.8591 193.26 63.5614L193.733 63.221C193.786 63.1808 193.843 63.1459 193.903 63.1171C193.854 63.1632 193.802 63.2059 193.747 63.2447L193.274 63.6039C192.863 63.9158 192.253 64.379 191.488 64.9982C189.316 66.7317 187.279 68.6278 185.395 70.6699C184.19 71.9555 182.933 73.4207 181.614 75.0183C180.295 76.6158 178.896 78.3268 177.493 80.2174C176.014 82.1566 174.641 84.1746 173.381 86.2625C172.728 87.3496 172.133 88.4934 171.523 89.6608C170.913 90.8282 170.308 92.024 169.684 93.2056C167.322 97.6939 165.212 102.311 163.365 107.035C161.873 110.901 160.748 114.898 160.005 118.974" fill="#E0E0E0"/>
<path d="M173.258 86.1257C173.203 85.9172 173.171 85.7032 173.164 85.4876C173.117 85.0717 173.065 84.4714 173.017 83.7293C172.918 82.2405 172.847 80.1845 172.781 77.9158C172.715 75.6471 172.62 73.5958 172.497 72.1117C172.441 71.3744 172.384 70.7741 172.342 70.3582C172.307 70.1442 172.296 69.9271 172.308 69.7107C172.377 69.9162 172.423 70.1286 172.445 70.344C172.521 70.7552 172.606 71.3555 172.691 72.0928C172.861 73.5769 172.989 75.6329 173.055 77.9064C173.121 80.1798 173.169 82.1602 173.211 83.7199C173.211 84.4147 173.254 85.0055 173.268 85.4781C173.29 85.6936 173.287 85.9109 173.258 86.1257Z" fill="#E0E0E0"/>
<path d="M192.519 83.984C192.265 84.0215 192.009 84.0342 191.753 84.0218C191.28 84.0218 190.552 84.0218 189.678 84.0691C187.924 84.1305 185.505 84.296 182.844 84.5937C180.183 84.8915 177.781 85.2791 176.056 85.6005C175.191 85.7564 174.497 85.903 174.014 86.0022C173.767 86.0687 173.514 86.1098 173.258 86.1251C173.495 86.025 173.74 85.9475 173.991 85.8935C174.464 85.7659 175.158 85.591 176.019 85.4209C177.739 85.0475 180.14 84.6363 182.81 84.3291C185.089 84.0656 187.38 83.9173 189.673 83.8848C190.552 83.8848 191.266 83.8848 191.758 83.9226C192.013 83.9196 192.267 83.9402 192.519 83.984Z" fill="#E0E0E0"/>
<path d="M163.417 106.624C163.373 106.548 163.336 106.467 163.309 106.383L163.034 105.669C162.798 105.05 162.481 104.147 162.089 103.022C161.333 100.782 160.388 97.6484 159.39 94.1791C158.393 90.7099 157.5 87.5621 156.772 85.3123C156.427 84.2158 156.139 83.313 155.926 82.6419C155.836 82.3488 155.76 82.1078 155.704 81.914C155.67 81.8311 155.649 81.7434 155.642 81.6541C155.689 81.73 155.727 81.8108 155.756 81.8951L156.025 82.6041C156.261 83.2232 156.578 84.126 156.97 85.2509C157.727 87.4959 158.672 90.6249 159.669 94.0988C160.667 97.5727 161.56 100.716 162.288 102.966C162.633 104.062 162.921 104.965 163.134 105.631L163.361 106.364C163.393 106.447 163.412 106.535 163.417 106.624Z" fill="#E0E0E0"/>
<path d="M189.248 100.357C189.165 100.396 189.077 100.424 188.988 100.442L188.236 100.636L185.466 101.312C183.132 101.884 179.913 102.706 176.359 103.623C172.804 104.54 169.571 105.339 167.222 105.859C166.045 106.123 165.095 106.331 164.434 106.449L163.673 106.591C163.583 106.613 163.491 106.624 163.399 106.624C163.482 106.585 163.569 106.557 163.659 106.539L164.41 106.345L167.18 105.669C169.515 105.102 172.733 104.275 176.292 103.358C179.851 102.441 183.103 101.643 185.466 101.118C186.643 100.858 187.593 100.645 188.255 100.532L189.021 100.39C189.095 100.371 189.171 100.36 189.248 100.357Z" fill="#E0E0E0"/>
<path d="M200 194.914C200 194.985 155.278 195.037 100.13 195.037C44.9815 195.037 0.250244 194.985 0.250244 194.914C0.250244 194.843 44.9578 194.791 100.13 194.791C155.302 194.791 200 194.848 200 194.914Z" fill="#263238"/>
<path d="M60.5786 14.8078L71.9836 49.5756C76.5115 50.8376 81.1246 51.8396 86.6356 50.0482L112.593 40.6568L97.1615 0.95459L60.5786 14.8078Z" fill="#E0E0E0"/>
<path d="M58.136 13.6644L69.541 48.4274L84.1788 48.919L110.137 39.5228L96.9686 0.46814L58.136 13.6644Z" fill="#6AC5C4"/>
<path d="M72.977 44.2493L69.5362 48.4274C69.5362 48.4274 72.6084 50.1053 75.7231 50.1762C78.5945 50.3008 81.4636 49.8806 84.1787 48.9379C84.1787 48.9379 77.5617 49.3113 72.977 44.2493Z" fill="#6AC5C4"/>
<path opacity="0.3" d="M72.977 44.2493C71.9325 46.362 70.8738 48.8434 69.5362 48.4274C69.5362 48.4274 72.6084 50.1053 75.7231 50.1762C78.5945 50.3008 81.4636 49.8806 84.1787 48.9379C84.1787 48.9379 77.5617 49.3113 72.977 44.2493Z" fill="black"/>
<path d="M58.3808 22.3895L71.6244 8.14397L68.6514 5.34119L55.0061 19.5064L58.3808 22.3895Z" fill="#E0E0E0"/>
<path d="M104.568 7.25037L86.5174 0L84.9671 3.78116L103.084 11.438L104.568 7.25037Z" fill="#E0E0E0"/>
<path d="M96.831 14.2739C96.831 14.3354 90.2612 16.6371 82.1128 19.4116C73.9644 22.186 67.3332 24.3838 67.3048 24.3176C67.2764 24.2515 73.8699 21.9544 82.023 19.18C90.1762 16.4055 96.8074 14.2077 96.831 14.2739Z" fill="#263238"/>
<path d="M98.5 19.6336C98.5 19.6998 91.9302 21.9969 83.7818 24.776C75.6334 27.5552 69.0021 29.7435 68.9832 29.6821C68.9643 29.6206 75.5483 27.3189 83.7014 24.5397C91.8546 21.7606 98.5 19.5769 98.5 19.6336Z" fill="#263238"/>
<path d="M100.281 24.3032C100.281 24.3647 93.716 26.6664 85.5628 29.4409C77.4097 32.2153 70.7879 34.4131 70.7643 34.3469C70.7406 34.2808 77.334 31.9837 85.4872 29.2093C93.6403 26.4348 100.262 24.237 100.281 24.3032Z" fill="#263238"/>
<path d="M101.808 28.855C101.808 28.9212 95.2383 31.2182 87.0899 33.9974C78.9415 36.7766 72.315 38.9649 72.2914 38.9035C72.2677 38.842 78.8564 36.5402 87.0096 33.7611C95.1627 30.9819 101.775 28.7936 101.808 28.855Z" fill="#263238"/>
<path d="M119.296 128.432L117.008 149.701C117.008 149.701 112.551 142.966 109.536 145.967C106.662 148.831 101.586 169.718 101.586 169.718C101.586 169.718 101.52 176.528 105.14 178.329C116.753 184.114 129.694 173.243 129.694 173.243L127.846 112.367C123.032 116.419 119.968 122.175 119.296 128.432Z" fill="#6AC5C4"/>
<path d="M158.474 113.648L138.381 112.045C138.258 109.682 138.424 100.622 138.424 100.622C138.424 100.622 130.063 99.3218 129.964 90.9655C129.864 82.6091 131.306 63.4103 131.306 63.4103C136.058 61.3673 141.269 60.6306 146.401 61.2762C151.533 61.9218 156.399 63.9264 160.496 67.0827L161.735 68.028L158.474 113.648Z" fill="#B78876"/>
<path d="M138.41 100.504C142.27 100.576 146.064 99.4987 149.309 97.4077C149.309 97.4077 146.733 103.42 138.391 102.668L138.41 100.504Z" fill="#AA6550"/>
<path d="M160.71 76.6913C160.851 76.6299 166.452 74.9945 166.268 80.7088C166.084 86.4231 160.388 85.0619 160.384 84.8964C160.379 84.731 160.71 76.6913 160.71 76.6913Z" fill="#B78876"/>
<path d="M162.193 82.7887C162.221 82.7887 162.292 82.8596 162.457 82.9446C162.69 83.0538 162.957 83.0674 163.2 82.9825C163.814 82.7792 164.353 81.8387 164.414 80.8083C164.439 80.3241 164.359 79.8402 164.178 79.3904C164.131 79.2098 164.04 79.0435 163.914 78.9059C163.788 78.7683 163.63 78.6636 163.455 78.601C163.341 78.5662 163.219 78.5727 163.11 78.6194C163.001 78.6662 162.912 78.7501 162.859 78.8563C162.779 79.0122 162.807 79.1257 162.779 79.1351C162.75 79.1446 162.661 79.0359 162.713 78.7995C162.752 78.6606 162.835 78.5379 162.949 78.4498C163.11 78.3384 163.308 78.2928 163.502 78.3222C163.738 78.3794 163.956 78.4965 164.134 78.662C164.312 78.8275 164.444 79.036 164.518 79.2675C164.742 79.7706 164.843 80.3199 164.811 80.8697C164.736 82.0183 164.112 83.077 163.28 83.2897C163.125 83.3304 162.963 83.3353 162.805 83.3042C162.648 83.2731 162.5 83.2067 162.372 83.1101C162.202 82.9257 162.174 82.7981 162.193 82.7887Z" fill="#AA6550"/>
<path d="M133.15 76.3512C133.147 76.6627 133.266 76.963 133.481 77.1881C133.697 77.4132 133.992 77.5454 134.303 77.5564C134.455 77.5687 134.608 77.5503 134.752 77.5023C134.897 77.4544 135.031 77.3779 135.145 77.2775C135.26 77.177 135.353 77.0545 135.419 76.9173C135.486 76.7801 135.524 76.631 135.532 76.4788C135.534 76.1681 135.416 75.8685 135.202 75.6435C134.987 75.4185 134.694 75.2858 134.383 75.2736C134.231 75.262 134.078 75.2808 133.934 75.329C133.789 75.3771 133.655 75.4535 133.541 75.5538C133.426 75.6541 133.332 75.7763 133.265 75.9132C133.198 76.0501 133.159 76.199 133.15 76.3512Z" fill="#263238"/>
<path d="M132.889 75.1697C133.036 75.3257 133.943 74.6545 135.224 74.6593C136.505 74.664 137.45 75.3068 137.588 75.1319C137.654 75.061 137.502 74.7774 137.115 74.4796C136.56 74.0959 135.899 73.8929 135.224 73.8983C134.556 73.8958 133.903 74.106 133.362 74.4986C132.951 74.82 132.819 75.0988 132.889 75.1697Z" fill="#263238"/>
<path d="M145.731 76.8236C145.729 77.1344 145.847 77.434 146.061 77.6589C146.276 77.8839 146.569 78.0166 146.88 78.0289C147.032 78.0404 147.185 78.0216 147.329 77.9735C147.474 77.9253 147.608 77.8489 147.723 77.7486C147.837 77.6483 147.931 77.5261 147.998 77.3892C148.065 77.2523 148.105 77.1034 148.114 76.9512C148.115 76.64 147.996 76.3404 147.78 76.1156C147.565 75.8907 147.271 75.7582 146.96 75.746C146.809 75.7344 146.656 75.7533 146.512 75.8015C146.367 75.8496 146.234 75.9261 146.119 76.0265C146.005 76.1269 145.912 76.2491 145.845 76.3859C145.778 76.5228 145.74 76.6716 145.731 76.8236Z" fill="#263238"/>
<path d="M145.514 75.4058C145.665 75.5618 146.568 74.8906 147.853 74.8954C149.139 74.9001 150.079 75.5429 150.216 75.368C150.287 75.3018 150.136 75.0183 149.744 74.7205C149.188 74.3368 148.528 74.1323 147.853 74.1344C147.185 74.1336 146.533 74.3436 145.991 74.7347C145.58 75.0608 145.443 75.3397 145.514 75.4058Z" fill="#263238"/>
<path d="M140.853 84.9341C140.853 84.8632 140.059 84.7261 138.769 84.5607C138.438 84.5276 138.131 84.4614 138.074 84.2345C138.048 83.8971 138.124 83.5596 138.292 83.2656C138.607 82.4716 138.93 81.6381 139.26 80.7653C140.612 77.211 141.586 74.2854 141.439 74.2334C141.293 74.1814 140.088 77.022 138.741 80.5763C138.419 81.4507 138.107 82.2872 137.795 83.0907C137.586 83.4849 137.526 83.9413 137.625 84.3763C137.672 84.4914 137.745 84.594 137.839 84.6761C137.932 84.7581 138.044 84.8173 138.164 84.849C138.345 84.9005 138.533 84.9276 138.722 84.9293C140.04 85.0049 140.849 85.0097 140.853 84.9341Z" fill="#263238"/>
<path d="M145.183 70.3771C145.311 70.7269 146.601 70.5614 148.1 70.741C149.598 70.9206 150.827 71.3318 151.025 71.0199C151.115 70.8687 150.902 70.5473 150.411 70.2022C149.753 69.7926 149.012 69.5373 148.241 69.4555C147.471 69.3736 146.692 69.4673 145.963 69.7296C145.41 69.9375 145.131 70.2069 145.183 70.3771Z" fill="#263238"/>
<path d="M133.362 71.4545C133.589 71.7428 134.473 71.4545 135.536 71.4262C136.6 71.3978 137.502 71.6247 137.71 71.3175C137.8 71.171 137.658 70.8779 137.266 70.6038C136.738 70.2709 136.123 70.103 135.499 70.1215C134.875 70.14 134.271 70.3441 133.764 70.7078C133.386 71.0102 133.263 71.308 133.362 71.4545Z" fill="#263238"/>
<path d="M127.237 58.1355C127.178 57.6166 127.251 57.0912 127.45 56.6085C127.65 56.1257 127.968 55.7014 128.376 55.3753C128.797 55.0689 129.313 54.9222 129.833 54.9611C130.352 55.0001 130.841 55.2222 131.212 55.588C131.133 55.239 131.129 54.8774 131.199 54.5266C131.269 54.1758 131.412 53.8437 131.619 53.5517C131.826 53.2598 132.092 53.0147 132.399 52.8321C132.707 52.6496 133.05 52.5337 133.405 52.4921C134.771 52.4071 135.934 53.4374 137.247 53.7966C138.561 54.1559 139.913 53.8439 141.152 53.3476C142.39 52.8514 143.543 52.1613 144.796 51.7028C147.442 50.7364 150.363 50.8535 152.923 52.0289C155.484 53.2042 157.477 55.3428 158.469 57.9796C160.298 57.4077 162.373 58.3388 163.503 59.8701C164.633 61.4015 164.921 63.4528 164.694 65.3528C164.518 66.6347 164.201 67.8933 163.749 69.1056C163.749 69.2143 163.749 69.3183 163.749 69.427C163.659 74.0211 163.139 79.4187 161.178 79.4518C157.76 79.5038 158.578 73.0616 158.578 73.0616C154.381 71.4452 155.945 65.159 154.896 64.2043C153.847 63.2495 151.654 61.0376 142.872 65.523C139.459 67.267 134.927 67.215 132.45 66.6526L132.233 66.6053H132.181C132.157 66.5971 132.133 66.5876 132.11 66.577C131.314 66.3811 130.553 66.0622 129.855 65.6317C129.034 65.1579 128.385 64.4343 128.003 63.5662C127.818 63.1318 127.765 62.6531 127.849 62.1889C127.933 61.7246 128.151 61.2949 128.475 60.9525C127.796 60.1546 127.366 59.1753 127.237 58.1355Z" fill="#263238"/>
<path d="M174.913 166.102L175.541 177.97L176.959 194.985H123.252L125.587 169.812L121.012 130.039C121.409 115.982 126.807 110.14 137.848 108.798L136.978 108.907C138.5 108.727 136.978 108.907 137.848 108.798C144.82 111.001 152.301 111.001 159.273 108.798C162.581 108.94 165.327 109.956 168.144 110.5C177.016 112.196 184.318 119.05 186.105 125.019C187.565 129.93 198.129 172.525 198.129 172.525H177.101L174.913 166.102Z" fill="#6AC5C4"/>
<path d="M139.761 88.8854C139.94 89.4049 140.192 89.8966 140.508 90.3458C140.668 90.5699 140.874 90.7574 141.112 90.896C141.35 91.0345 141.614 91.1208 141.888 91.1493C142.181 91.1482 142.468 91.0742 142.725 90.9339C142.982 90.7936 143.199 90.5915 143.358 90.3458C143.67 89.8461 143.814 89.26 143.769 88.6727C143.769 88.1433 143.505 87.5147 142.98 87.4532C142.759 87.4448 142.54 87.4919 142.342 87.5903L139.586 88.7105" fill="#AA6550"/>
<path d="M140.863 91.1544C141.361 91.1879 141.861 91.127 142.337 90.9748C142.819 90.7851 143.214 90.4252 143.448 89.9633C143.58 89.6823 143.651 89.3767 143.657 89.0665C143.662 88.7562 143.603 88.4482 143.481 88.1625C143.419 88.0149 143.34 87.8752 143.245 87.7466C143.131 87.6332 143.155 87.6379 143.037 87.6568C142.885 87.7063 142.737 87.7647 142.593 87.8317L142.12 88.016C141.529 88.2523 140.995 88.4603 140.546 88.6305C139.643 88.966 139.071 89.1456 139.043 89.1031C139.015 89.0606 139.539 88.7486 140.409 88.328C140.844 88.12 141.354 87.8553 141.945 87.6143L142.389 87.4158C142.554 87.3376 142.723 87.2682 142.895 87.2078C143.027 87.1635 143.17 87.1635 143.302 87.2078C143.423 87.2581 143.528 87.3417 143.604 87.4488C143.731 87.6072 143.836 87.7821 143.916 87.9688C144.066 88.32 144.136 88.7002 144.122 89.0819C144.107 89.4636 144.008 89.8373 143.831 90.176C143.682 90.4493 143.48 90.6901 143.236 90.884C142.993 91.078 142.713 91.2214 142.413 91.3056C142.027 91.4322 141.612 91.4485 141.217 91.3529C140.981 91.2773 140.853 91.1827 140.863 91.1544Z" fill="#263238"/>
<path d="M120.922 163.729L108.274 124.896L107.13 118.378C107.13 118.378 103.689 103.84 103.533 102.403C103.358 100.739 102.512 100.427 101.907 100.512C100.962 100.683 100.409 101.93 100.518 103.348C100.556 103.821 101.463 111.62 101.463 111.62C100.931 110.934 100.351 110.286 99.7286 109.682C98.4193 108.349 95.626 107.791 92.861 108.193C90.096 108.595 89.354 108.935 89.458 110.017C89.4865 110.221 89.5603 110.415 89.674 110.586C89.7878 110.757 89.9384 110.9 90.1149 111.005C90.6698 111.379 91.3433 111.533 92.0055 111.44C96.4437 110.878 97.8947 113.127 97.8947 113.127L98.046 113.978C98.046 113.978 95.1345 112.343 93.0737 113.387C92.7683 113.542 92.4954 113.753 92.2702 114.011C91.6644 114.079 91.087 114.305 90.5951 114.665C90.1032 115.025 89.7141 115.508 89.4662 116.065C89.2183 116.621 89.1202 117.234 89.1818 117.84C89.2434 118.447 89.4624 119.026 89.8172 119.522C90.1575 119.995 90.7625 120.42 91.306 120.245C91.5947 120.122 91.8481 119.929 92.0433 119.683C92.1542 119.56 92.276 119.448 92.4073 119.347L93.1588 121.677C93.1588 121.677 95.1345 126.825 95.7394 129.159L101.884 168.261C102.087 169.549 102.545 170.784 103.23 171.893C103.915 173.002 104.814 173.963 105.875 174.721C106.936 175.479 108.137 176.019 109.408 176.308C110.679 176.597 111.995 176.63 113.279 176.405C114.661 176.162 115.974 175.626 117.131 174.832C118.287 174.039 119.26 173.007 119.984 171.806C120.709 170.604 121.167 169.262 121.329 167.869C121.491 166.476 121.352 165.064 120.922 163.729Z" fill="#B78876"/>
<path d="M106.936 124.499C106.147 124.811 105.244 124.301 104.724 123.63C104.204 122.959 103.935 122.122 103.467 121.413C102.049 119.286 99.1468 118.516 97.8518 116.327C97.6675 116.02 97.5399 115.59 97.7998 115.349C98.0598 115.108 98.4284 115.24 98.7451 115.349L106.515 118.615" fill="#B78876"/>
<path d="M106.501 118.634C106.253 118.454 105.983 118.306 105.698 118.194C105.168 117.939 104.393 117.589 103.434 117.159L100.059 115.684L99.0759 115.264C98.7057 115.032 98.259 114.956 97.8328 115.051C97.7028 115.109 97.5935 115.205 97.5192 115.327C97.4449 115.448 97.4093 115.589 97.4169 115.732C97.4293 115.964 97.4957 116.191 97.6107 116.393C97.8225 116.751 98.0729 117.083 98.3574 117.386C99.5154 118.596 100.914 119.276 101.964 120.141C102.471 120.527 102.918 120.988 103.287 121.507C103.623 121.98 103.854 122.524 104.119 122.987C104.296 123.382 104.556 123.734 104.883 124.018C105.209 124.302 105.594 124.511 106.01 124.632C106.633 124.75 106.955 124.509 106.927 124.499C106.636 124.537 106.341 124.521 106.057 124.452C105.685 124.31 105.347 124.092 105.063 123.812C104.78 123.532 104.558 123.196 104.412 122.826C104.171 122.353 103.939 121.829 103.609 121.285C103.23 120.722 102.766 120.221 102.233 119.801C101.156 118.889 99.7659 118.18 98.7025 117.055C98.4429 116.784 98.2146 116.484 98.0219 116.162C97.847 115.859 97.8328 115.533 98.0219 115.481C98.2109 115.429 98.5701 115.543 98.901 115.684L99.8841 116.091L103.301 117.476C104.28 117.859 105.074 118.166 105.622 118.369C105.901 118.498 106.197 118.587 106.501 118.634Z" fill="#AA6550"/>
<path d="M98.1491 114.045C98.0429 113.516 97.8129 113.021 97.478 112.598C97.0941 112.169 96.5818 111.876 96.0175 111.762C95.3137 111.626 94.5929 111.6 93.8811 111.686C93.1456 111.775 92.4029 111.79 91.6644 111.729C91.0436 111.67 90.449 111.45 89.9393 111.091C89.7678 110.961 89.6281 110.794 89.5306 110.603C89.4332 110.411 89.3806 110.2 89.3768 109.985C89.3665 109.831 89.4027 109.678 89.4808 109.545C89.5092 109.545 89.4808 109.706 89.4808 109.98C89.502 110.17 89.5646 110.353 89.6643 110.517C89.7639 110.68 89.8981 110.819 90.0574 110.925C90.5452 111.234 91.1025 111.416 91.6786 111.455C92.3993 111.498 93.1223 111.474 93.8386 111.384C94.5833 111.296 95.3375 111.334 96.0695 111.497C96.684 111.637 97.2333 111.98 97.6292 112.471C97.8874 112.8 98.0596 113.188 98.1302 113.6C98.1741 113.745 98.1806 113.897 98.1491 114.045Z" fill="#AA6550"/>
<path d="M100.484 102.819C100.591 103.328 100.654 103.845 100.673 104.365C100.772 105.428 100.895 106.695 101.032 108.094C101.169 109.493 101.33 110.755 101.448 111.818C101.539 112.33 101.585 112.849 101.585 113.369C101.41 112.878 101.291 112.369 101.231 111.851C101.065 110.906 100.876 109.587 100.725 108.127C100.574 106.666 100.484 105.338 100.451 104.379C100.404 103.859 100.415 103.336 100.484 102.819Z" fill="#AA6550"/>
<path d="M96.5805 115.987C96.4185 115.963 96.2599 115.92 96.1079 115.86C95.9141 115.782 95.7057 115.748 95.4973 115.76C95.289 115.773 95.0859 115.831 94.9026 115.931C94.7918 116.006 94.7029 116.11 94.6448 116.231C94.5867 116.352 94.5615 116.487 94.5718 116.621C94.5885 116.959 94.6489 117.295 94.7514 117.618C94.8871 118.023 94.8686 118.464 94.6994 118.856C94.5848 119.06 94.4235 119.234 94.2288 119.364C94.0342 119.494 93.8116 119.576 93.5792 119.603C93.3507 119.626 93.1198 119.603 92.9005 119.535C92.6812 119.467 92.478 119.355 92.3031 119.206C91.9782 118.94 91.7383 118.586 91.613 118.185C91.4543 117.533 91.3922 116.861 91.4287 116.191C91.4367 115.738 91.5247 115.289 91.6886 114.867C91.7412 114.706 91.8358 114.563 91.9628 114.451C91.9628 114.451 91.8871 114.612 91.8021 114.924C91.6913 115.345 91.6404 115.779 91.6508 116.214C91.6452 116.852 91.7247 117.488 91.8871 118.105C91.993 118.458 92.2125 118.767 92.5115 118.983C92.8106 119.199 93.1725 119.311 93.5414 119.301C93.7242 119.278 93.8994 119.214 94.0535 119.113C94.2075 119.013 94.3364 118.878 94.43 118.719C94.5673 118.392 94.5824 118.026 94.4725 117.689C94.3741 117.339 94.3217 116.979 94.3165 116.616C94.3132 116.443 94.355 116.272 94.4379 116.121C94.5208 115.969 94.6419 115.841 94.7892 115.751C94.9991 115.644 95.2316 115.587 95.4674 115.587C95.7033 115.587 95.9357 115.644 96.1457 115.751C96.4435 115.874 96.6089 115.968 96.5805 115.987Z" fill="#AA6550"/>
<path d="M92.412 118.955C92.412 118.955 92.4877 119.111 92.412 119.399C92.3539 119.602 92.2499 119.788 92.1081 119.944C91.9663 120.1 91.7905 120.221 91.5944 120.297C91.2958 120.398 90.9763 120.419 90.6672 120.358C90.3581 120.298 90.0701 120.158 89.8314 119.952C89.2647 119.447 88.9143 118.743 88.853 117.986C88.7719 117.241 88.9256 116.489 89.2926 115.836C89.5948 115.308 90.0341 114.872 90.564 114.574C90.9125 114.371 91.2955 114.235 91.6936 114.172C91.8381 114.137 91.9887 114.137 92.1332 114.172C91.6231 114.301 91.1333 114.5 90.6774 114.763C90.1481 115.097 89.7246 115.575 89.456 116.14C89.1875 116.706 89.0849 117.336 89.1602 117.958C89.2139 118.637 89.5189 119.273 90.0157 119.74C90.2161 119.921 90.459 120.048 90.7217 120.11C90.9845 120.172 91.2586 120.166 91.5187 120.094C91.693 120.035 91.8526 119.94 91.9871 119.814C92.1216 119.689 92.2278 119.536 92.2986 119.366C92.3979 119.116 92.3837 118.955 92.412 118.955Z" fill="#AA6550"/>
<path d="M98.3338 123.583C98.5679 123.483 98.8272 123.458 99.0759 123.512C99.7255 123.579 100.333 123.864 100.801 124.32L100.551 124.424C100.546 124.07 100.567 123.716 100.612 123.365C100.844 121.314 101.808 119.891 101.865 119.943C101.921 119.995 101.141 121.427 100.919 123.403C100.878 123.742 100.854 124.083 100.848 124.424V124.778L100.603 124.528C100.179 124.106 99.642 123.817 99.057 123.696C98.608 123.616 98.3338 123.616 98.3338 123.583Z" fill="#AA6550"/>
<path d="M96.7602 110.348C96.8358 110.377 96.5947 110.968 95.9425 111.331C95.2902 111.695 94.6663 111.61 94.6805 111.53C94.6947 111.45 95.2288 111.388 95.7912 111.057C96.3537 110.726 96.6798 110.301 96.7602 110.348Z" fill="#AA6550"/>
<path d="M130.942 110.344C130.942 110.344 130.768 110.533 130.47 110.896C129.998 111.409 129.626 112.005 129.373 112.655C129.298 112.876 129.257 113.107 129.25 113.34C129.251 113.589 129.313 113.834 129.43 114.054C129.752 114.539 130.234 114.897 130.791 115.065C132.19 115.504 133.651 115.71 135.116 115.675C135.929 115.675 136.808 115.722 137.706 115.774L139.081 115.935C139.554 115.987 140.027 116.114 140.499 116.2C142.551 116.618 144.487 117.48 146.171 118.723C147.089 119.409 147.888 120.241 148.534 121.186C148.697 121.433 148.847 121.689 148.983 121.952C149.12 122.231 149.215 122.5 149.328 122.774C149.539 123.333 149.697 123.911 149.801 124.499C150.277 126.976 149.884 129.542 148.69 131.764C147.457 133.969 145.475 135.66 143.104 136.533C141.989 136.951 140.814 137.184 139.625 137.223C138.491 137.229 137.36 137.093 136.26 136.816C135.245 136.555 134.211 136.37 133.169 136.263C132.205 136.17 131.234 136.342 130.361 136.76C129.559 137.19 128.845 137.769 128.258 138.466C127.667 139.128 127.166 139.822 126.67 140.479C125.691 141.798 124.652 142.961 123.442 143.57C122.887 143.868 122.27 144.03 121.641 144.043C121.115 144.049 120.593 143.953 120.105 143.76C119.715 143.604 119.358 143.378 119.051 143.093C118.83 142.879 118.651 142.625 118.521 142.346C118.411 142.12 118.354 141.871 118.356 141.618C118.389 141.618 118.398 141.878 118.611 142.304C118.751 142.559 118.933 142.789 119.15 142.984C119.452 143.243 119.798 143.444 120.171 143.58C120.682 143.769 121.227 143.844 121.77 143.801C122.313 143.757 122.84 143.597 123.314 143.329C124.448 142.729 125.436 141.6 126.391 140.276C126.864 139.614 127.374 138.905 127.974 138.215C128.581 137.468 129.325 136.844 130.167 136.377C131.104 135.917 132.148 135.721 133.188 135.81C134.253 135.913 135.31 136.095 136.35 136.353C137.413 136.616 138.506 136.745 139.601 136.736C140.733 136.69 141.85 136.463 142.91 136.065C145.17 135.226 147.058 133.611 148.237 131.509C149.376 129.386 149.753 126.937 149.305 124.57C149.196 124.008 149.038 123.456 148.832 122.921C148.719 122.656 148.624 122.382 148.506 122.145C148.382 121.898 148.243 121.658 148.09 121.427C147.48 120.523 146.726 119.725 145.859 119.064C144.229 117.849 142.356 117.001 140.367 116.578C139.894 116.488 139.422 116.36 138.982 116.308L137.63 116.133C136.742 116.072 135.891 116.034 135.064 116.006C133.563 116.019 132.071 115.781 130.649 115.302C130.057 115.096 129.554 114.694 129.222 114.162C129.092 113.907 129.028 113.622 129.038 113.335C129.051 113.081 129.103 112.831 129.194 112.593C129.47 111.929 129.88 111.329 130.399 110.83C130.556 110.643 130.739 110.48 130.942 110.344Z" fill="#FAFAFA"/>
<path d="M166.896 141.86C166.766 141.519 166.689 141.161 166.669 140.797C166.564 139.805 166.629 138.803 166.863 137.833C167.209 136.389 167.834 135.026 168.701 133.82C169.757 132.341 171.107 131.095 172.667 130.162C174.235 129.262 175.94 128.623 177.715 128.271C179.153 127.974 180.618 127.824 182.086 127.822C183.072 127.812 184.057 127.86 185.036 127.969C185.397 127.984 185.755 128.047 186.099 128.158C186.099 128.243 184.563 128.073 182.091 128.158C180.65 128.211 179.217 128.395 177.809 128.706C176.091 129.08 174.44 129.718 172.917 130.597C171.413 131.497 170.104 132.687 169.065 134.099C168.213 135.249 167.581 136.547 167.203 137.928C166.947 138.86 166.831 139.825 166.858 140.792C166.897 141.146 166.91 141.503 166.896 141.86Z" fill="#FAFAFA"/>
<path d="M192.721 150.083C192.577 150.387 192.389 150.667 192.163 150.915C191.601 151.628 190.967 152.282 190.273 152.867C189.238 153.744 188.092 154.482 186.865 155.06C183.838 156.516 180.415 156.93 177.129 156.237C175.798 155.967 174.509 155.522 173.295 154.914C172.478 154.512 171.704 154.029 170.984 153.472C170.705 153.286 170.456 153.058 170.247 152.796C170.303 152.721 171.381 153.661 173.447 154.602C176.127 155.846 179.101 156.318 182.034 155.963C184.967 155.609 187.744 154.444 190.051 152.598C191.823 151.185 192.645 150.012 192.721 150.083Z" fill="#FAFAFA"/>
<path d="M168.981 148.562C168.844 148.637 168.7 148.697 168.551 148.741C168.145 148.906 167.777 149.15 167.468 149.46C166.994 149.964 166.625 150.556 166.381 151.204C166.051 152.068 165.795 152.958 165.615 153.865C165.421 154.981 165.165 156.085 164.85 157.173C164.651 157.792 164.376 158.385 164.032 158.936C163.651 159.516 163.186 160.035 162.652 160.477C161.499 161.395 160.171 162.065 158.748 162.448C157.292 162.883 155.751 163.119 154.201 163.422C151.284 163.902 148.519 165.054 146.124 166.787C145.098 167.555 144.191 168.469 143.429 169.5C142.781 170.409 142.264 171.405 141.893 172.459C141.348 173.99 141.176 175.63 141.392 177.242C141.563 178.381 141.822 178.977 141.77 178.995C141.687 178.862 141.62 178.72 141.572 178.57C141.499 178.395 141.437 178.215 141.388 178.031C141.311 177.783 141.25 177.53 141.203 177.275C140.907 175.629 141.031 173.935 141.563 172.35C141.922 171.253 142.438 170.214 143.094 169.264C143.867 168.189 144.794 167.233 145.845 166.428C148.284 164.628 151.116 163.433 154.107 162.94C155.671 162.632 157.198 162.401 158.611 161.994C159.975 161.636 161.252 161.004 162.364 160.137C162.866 159.732 163.306 159.254 163.668 158.719C163.999 158.202 164.265 157.646 164.462 157.065C164.79 155.988 165.061 154.894 165.275 153.789C165.475 152.865 165.759 151.96 166.121 151.086C166.398 150.417 166.812 149.813 167.336 149.313C167.67 149 168.073 148.768 168.513 148.637C168.663 148.586 168.822 148.561 168.981 148.562Z" fill="#FAFAFA"/>
<path d="M156.318 146.591C156.481 146.888 156.566 147.221 156.564 147.56C156.611 148.491 156.345 149.411 155.808 150.174C155.446 150.712 154.959 151.154 154.39 151.464C154.069 151.639 153.723 151.765 153.364 151.837C152.984 151.908 152.595 151.924 152.211 151.885C151.384 151.795 150.599 151.477 149.942 150.968C149.22 150.423 148.704 149.65 148.477 148.775C148.332 148.205 148.324 147.609 148.453 147.035C148.593 146.491 148.851 145.984 149.209 145.551C149.516 145.141 149.863 144.762 150.245 144.421C150.429 144.252 150.63 144.101 150.845 143.972C151.066 143.825 151.322 143.735 151.587 143.712L151.648 144.133L151.417 144.19L151.299 143.783C152.158 143.539 153.075 143.589 153.903 143.925C154.535 144.167 155.099 144.558 155.548 145.064C155.835 145.383 156.063 145.751 156.219 146.151C156.318 146.43 156.342 146.586 156.323 146.591C156.066 146.101 155.749 145.645 155.377 145.234C154.93 144.792 154.389 144.456 153.794 144.251C153.034 143.975 152.204 143.954 151.431 144.19L151.313 143.783L151.544 143.717L151.61 144.143C151.205 144.24 150.837 144.453 150.552 144.757C150.203 145.087 149.887 145.45 149.606 145.839C149.278 146.225 149.049 146.685 148.939 147.179C148.828 147.673 148.84 148.187 148.973 148.675C149.177 149.443 149.627 150.122 150.254 150.608C150.84 151.066 151.539 151.358 152.277 151.454C152.618 151.494 152.963 151.486 153.303 151.431C153.621 151.372 153.93 151.269 154.22 151.124C154.745 150.854 155.2 150.466 155.548 149.989C156.073 149.295 156.369 148.454 156.394 147.583C156.379 146.945 156.271 146.605 156.318 146.591Z" fill="#FAFAFA"/>
<path d="M125.818 131.178C125.826 131.22 125.826 131.263 125.818 131.305C125.818 131.4 125.818 131.523 125.818 131.674C125.818 132.019 125.775 132.497 125.747 133.092C125.671 134.33 125.601 136.122 125.501 138.334C125.317 142.762 125.133 148.878 124.991 155.642C124.849 162.406 124.759 168.526 124.693 172.955C124.66 175.157 124.632 176.944 124.613 178.206C124.613 178.806 124.589 179.284 124.584 179.624C124.584 179.775 124.584 179.898 124.584 179.997C124.591 180.04 124.591 180.083 124.584 180.125C124.577 180.083 124.577 180.04 124.584 179.997C124.584 179.898 124.584 179.775 124.584 179.624C124.584 179.279 124.584 178.802 124.584 178.206V172.96C124.584 168.526 124.665 162.406 124.811 155.637C124.958 148.869 125.161 142.758 125.393 138.329C125.516 136.117 125.615 134.326 125.719 133.092C125.766 132.487 125.804 132.01 125.832 131.674C125.832 131.523 125.861 131.4 125.87 131.301C125.848 131.262 125.83 131.221 125.818 131.178Z" fill="#263238"/>
<g opacity="0.2">
<path d="M116.786 175.101C119.423 176.363 122.869 173.938 124.216 171.348C124.216 171.348 124.92 165.629 124.826 162.708C124.641 157.301 125.038 151.946 124.854 146.539C124.44 149.776 123.101 152.826 120.997 155.321C120.416 156.006 119.764 156.687 119.546 157.557C119.159 159.116 120.35 161.919 121.115 163.332C123.479 167.652 118.327 175.148 116.956 174.992" fill="black"/>
</g>
<g opacity="0.2">
<path d="M166.144 139.818C167.004 150.594 167.868 161.372 168.734 172.152C168.759 173.173 168.951 174.184 169.301 175.143C169.481 175.623 169.771 176.053 170.149 176.398C170.527 176.743 170.982 176.993 171.475 177.128C173.007 177.44 174.496 176.122 174.926 174.619C175.356 173.116 175.016 171.513 174.637 169.996C173.995 167.411 173.271 164.849 172.544 162.287C170.436 154.851 168.326 147.416 166.215 139.983" fill="black"/>
</g>
<path d="M136.519 195.018C136.846 194.486 137.089 193.908 137.242 193.302C137.507 192.135 137.342 190.329 136.434 188.377C135.99 187.399 135.361 186.383 134.728 185.267C134.004 184.083 133.465 182.795 133.13 181.448C132.848 179.92 132.962 178.345 133.461 176.873C133.934 175.351 134.619 173.872 135.172 172.322C136.282 169.423 136.365 166.232 135.409 163.28C134.997 162.002 134.393 160.794 133.617 159.697C132.933 158.745 132.131 157.883 131.23 157.131C129.912 156.045 128.409 155.206 126.792 154.654C125.644 154.271 124.972 154.181 124.982 154.125C125.141 154.116 125.3 154.13 125.455 154.167C125.92 154.235 126.38 154.338 126.83 154.475C128.501 154.958 130.063 155.76 131.429 156.838C132.372 157.59 133.212 158.462 133.929 159.433C134.743 160.556 135.381 161.798 135.82 163.114C136.833 166.161 136.759 169.465 135.612 172.463C135.045 174.042 134.355 175.512 133.901 176.991C133.416 178.384 133.296 179.878 133.551 181.33C133.862 182.639 134.372 183.892 135.063 185.045C135.673 186.165 136.292 187.196 136.732 188.212C137.62 190.24 137.743 192.125 137.403 193.326C137.277 193.785 137.081 194.222 136.822 194.621C136.647 194.905 136.533 195.027 136.519 195.018Z" fill="#FAFAFA"/>
<path d="M180.892 117.263C180.8 117.607 180.639 117.929 180.419 118.208C179.881 119.009 179.183 119.688 178.368 120.203C177.153 120.97 175.769 121.427 174.336 121.536C172.594 121.654 170.846 121.431 169.189 120.879C167.501 120.388 165.958 119.492 164.694 118.27C164.151 117.72 163.708 117.081 163.385 116.379C163.111 115.765 162.939 115.111 162.874 114.441C162.767 113.472 162.951 112.493 163.404 111.629C163.473 111.496 163.552 111.368 163.64 111.246C163.7 111.153 163.77 111.066 163.848 110.986C163.966 110.859 164.037 110.793 164.051 110.807C164.065 110.821 163.839 111.119 163.579 111.714C163.219 112.562 163.098 113.492 163.229 114.404C163.309 115.03 163.488 115.639 163.758 116.209C164.08 116.857 164.508 117.447 165.025 117.953C166.248 119.103 167.727 119.946 169.34 120.411C170.939 120.946 172.624 121.175 174.308 121.087C175.676 121.006 177.006 120.603 178.188 119.91C178.986 119.44 179.69 118.828 180.268 118.104C180.461 117.813 180.669 117.533 180.892 117.263Z" fill="#FAFAFA"/>
<path d="M174.421 168.106C174.421 168.106 174.397 168.063 174.369 167.973C174.341 167.883 174.298 167.742 174.246 167.576C174.142 167.212 173.991 166.702 173.797 166.05L172.19 160.411C170.848 155.633 169.004 149.067 166.991 141.789C165.979 138.149 165.02 134.699 164.155 131.528C163.718 130.036 163.382 128.517 163.148 126.981C162.95 125.635 162.95 124.267 163.148 122.921C163.43 120.953 164.374 119.139 165.823 117.778C166.227 117.426 166.673 117.125 167.152 116.885L167.534 116.724C167.576 116.702 167.62 116.686 167.667 116.677C167.02 116.981 166.42 117.375 165.885 117.849C164.484 119.214 163.582 121.01 163.323 122.949C163.142 124.278 163.156 125.627 163.366 126.952C163.606 128.478 163.947 129.986 164.387 131.466C165.266 134.623 166.235 138.083 167.251 141.723C169.26 148.997 171.079 155.581 172.398 160.364C173.045 162.727 173.565 164.669 173.934 166.035C174.104 166.692 174.241 167.212 174.336 167.581C174.378 167.746 174.411 167.879 174.435 167.983C174.435 168.024 174.431 168.065 174.421 168.106Z" fill="#263238"/>
<path d="M155.17 63.4386C155.209 63.1026 155.209 62.7632 155.17 62.4271C155.026 61.5106 154.565 60.6738 153.865 60.0639C152.814 59.1752 151.458 58.7296 150.084 58.8209C148.539 58.8209 146.894 59.3408 145.192 59.9127C144.342 60.1915 143.496 60.4609 142.664 60.6453C141.861 60.8227 141.042 60.9224 140.22 60.943C138.827 60.9794 137.436 60.7976 136.099 60.4042C135.202 60.1343 134.339 59.7666 133.523 59.3077C133.3 59.1878 133.083 59.0552 132.875 58.9107C132.798 58.866 132.727 58.812 132.663 58.75C132.663 58.75 132.984 58.9296 133.57 59.2226C134.394 59.6437 135.259 59.9809 136.151 60.2293C137.472 60.5933 138.841 60.7527 140.211 60.702C141.019 60.6749 141.822 60.5737 142.612 60.3995C143.429 60.2152 144.261 59.9269 145.117 59.6669C146.814 59.095 148.491 58.5798 150.08 58.5798C151.5 58.5019 152.895 58.9838 153.965 59.9221C154.677 60.5606 155.133 61.4354 155.25 62.3846C155.306 62.7374 155.279 63.0984 155.17 63.4386Z" fill="#455A64"/>
<path d="M161.674 77.566C161.674 77.566 161.626 77.5092 161.56 77.3911C161.494 77.2729 161.409 77.0933 161.3 76.857C161.009 76.1897 160.788 75.4945 160.638 74.7821C160.412 73.7204 160.338 72.6317 160.421 71.5492C160.579 70.2383 160.829 68.9401 161.168 67.664C161.497 66.4059 161.497 65.0843 161.168 63.8262C161.011 63.2871 160.738 62.7888 160.369 62.3657C160.04 62.0091 159.627 61.7395 159.169 61.5811C158.5 61.3274 157.758 61.3461 157.103 61.6331C156.875 61.7598 156.661 61.9103 156.465 62.0821C156.614 61.8556 156.819 61.6716 157.061 61.548C157.394 61.3822 157.758 61.2851 158.129 61.2624C158.501 61.2397 158.874 61.2918 159.225 61.4157C159.718 61.5745 160.163 61.8539 160.52 62.2286C160.915 62.6692 161.21 63.19 161.385 63.7553C161.729 65.0532 161.729 66.4181 161.385 67.716C161.048 68.9822 160.794 70.2689 160.624 71.5681C160.535 72.6292 160.589 73.6976 160.785 74.7443C160.918 75.4515 161.113 76.1457 161.366 76.8192C161.57 77.2966 161.692 77.5565 161.674 77.566Z" fill="#455A64"/>
<path d="M155.973 62.7629C155.962 62.6513 155.962 62.5389 155.973 62.4273C155.973 62.1863 155.973 61.8696 156.011 61.482C156.063 60.3109 155.932 59.1388 155.623 58.0081C155.391 57.2399 155.012 56.524 154.508 55.9001C153.936 55.182 153.152 54.664 152.267 54.4207C151.277 54.191 150.243 54.2335 149.275 54.5436C148.227 54.8742 147.223 55.3296 146.283 55.9001C145.33 56.4752 144.339 56.9837 143.315 57.422C142.339 57.803 141.305 58.0109 140.257 58.0364C139.313 58.0603 138.37 57.9457 137.459 57.6961C136.67 57.4669 135.909 57.1499 135.19 56.7508C134.154 56.1657 133.241 55.3857 132.501 54.4538C132.297 54.2042 132.114 53.9387 131.953 53.6597C131.89 53.5677 131.836 53.4696 131.792 53.3667C131.869 53.4472 131.938 53.536 131.995 53.6314C132.17 53.8982 132.362 54.1524 132.572 54.3923C133.33 55.2844 134.245 56.0307 135.271 56.5949C135.982 56.9745 136.734 57.2741 137.511 57.4882C138.405 57.7228 139.329 57.8278 140.253 57.8001C141.271 57.7694 142.277 57.5632 143.225 57.1904C144.237 56.7514 145.218 56.2446 146.161 55.6732C147.118 55.0964 148.142 54.6362 149.209 54.3025C150.218 53.9855 151.294 53.9463 152.324 54.1891C153.252 54.4495 154.072 55.0013 154.663 55.763C155.181 56.41 155.563 57.1541 155.788 57.9514C156.092 59.0988 156.199 60.2894 156.105 61.4726C156.081 61.8932 156.048 62.2146 156.02 62.4179C156.019 62.5344 156.003 62.6503 155.973 62.7629Z" fill="#455A64"/>
<path d="M143.491 180.947L178.849 175.677L178.282 172.53H197.283L197.836 177.37C198.241 179.473 198.179 181.64 197.654 183.717C197.129 185.794 196.154 187.73 194.798 189.388C193.443 191.047 191.739 192.387 189.808 193.314C187.876 194.241 185.765 194.733 183.623 194.753L142.399 194.281L143.491 180.947Z" fill="#B78876"/>
<path d="M146.043 181.557C145.854 181.619 143.472 180.55 141.34 179.563C139.077 178.511 136.592 178.024 134.099 178.145L124.273 178.646C124.273 178.646 124.878 180.267 125.922 180.843C126.967 181.42 133.073 181.543 133.073 181.543L132.757 181.864C131.471 183.19 129.716 183.959 127.87 184.005L126.924 184.029C126.227 183.974 125.539 183.839 124.873 183.627L122.448 182.649C121.716 182.318 120.94 182.37 120.619 183.122C120.331 183.788 120.543 184.71 122.548 185.716C123.663 186.279 127.813 187.716 127.813 187.716C127.84 188.305 127.92 188.89 128.054 189.464C128.233 190.069 129.864 190.67 129.864 190.67C130.287 191.568 130.77 192.436 131.31 193.269C131.499 193.482 132.979 193.94 134.548 194.385C137.082 195.097 139.767 195.076 142.29 194.323L146.038 193.208V181.803" fill="#B78876"/>
<path d="M132.596 189.006C130.865 188.961 129.168 188.514 127.638 187.701C127.666 187.635 128.739 188.051 130.105 188.406C131.471 188.76 132.606 188.935 132.596 189.006Z" fill="#AA6550"/>
<path d="M132.251 191.308C131.791 191.407 131.312 191.373 130.871 191.209C130.407 191.125 129.976 190.912 129.628 190.594C130.073 190.689 130.51 190.815 130.937 190.972C131.382 191.053 131.822 191.165 132.251 191.308Z" fill="#AA6550"/>
<path d="M188.174 183.92C188.127 183.92 187.896 183.235 187.328 182.2C186.996 181.595 186.617 181.016 186.194 180.47C185.677 179.803 185.103 179.181 184.478 178.613C183.845 178.054 183.165 177.549 182.446 177.105C181.858 176.744 181.243 176.428 180.607 176.16C179.516 175.711 178.792 175.55 178.807 175.503C178.982 175.517 179.155 175.552 179.322 175.607C179.52 175.646 179.716 175.698 179.908 175.763C180.135 175.834 180.38 175.904 180.674 176.018C181.329 176.265 181.961 176.569 182.564 176.925C183.302 177.366 183.998 177.874 184.644 178.443C185.277 179.02 185.857 179.653 186.378 180.333C186.796 180.896 187.165 181.493 187.48 182.12C187.626 182.38 187.721 182.635 187.82 182.852C187.903 183.037 187.974 183.226 188.033 183.419C188.1 183.58 188.148 183.748 188.174 183.92Z" fill="#AA6550"/>
<path d="M134.048 180.674C133.83 180.974 133.576 181.245 133.291 181.482C132.639 182.098 131.921 182.642 131.15 183.103C130.37 183.557 129.523 183.884 128.641 184.072C128.281 184.17 127.907 184.21 127.535 184.19C127.511 184.1 129.236 183.944 131.023 182.89C131.78 182.436 132.499 181.92 133.173 181.349C133.442 181.096 133.735 180.87 134.048 180.674Z" fill="#AA6550"/>
<path d="M32.3673 169.462C33.2086 169.462 25.9298 189.02 24.0534 194.016C23.8454 194.569 23.7037 195.056 23.7037 195.056L74.6644 195.141L74.0641 147.721C74.0662 147.689 74.0662 147.658 74.0641 147.626L69.8103 113.709C69.7893 113.545 69.7203 113.39 69.6118 113.265C69.5033 113.14 69.3603 113.049 69.2006 113.005C67.1824 112.461 59.9084 110.585 54.3453 110.377C47.8275 110.136 38.3935 111.431 38.3935 111.431C38.3935 111.431 29.919 112.272 25.2398 113.974C25.0589 114.039 24.9059 114.164 24.8068 114.328C24.7077 114.493 24.6687 114.687 24.6962 114.877L32.3673 169.462Z" fill="#6AC5C4"/>
<path d="M55.8999 148.429C55.8349 148.643 55.7495 148.851 55.6446 149.048C55.5405 149.288 55.4205 149.52 55.2854 149.743C55.122 150.047 54.9421 150.342 54.7466 150.627C54.5172 150.98 54.2679 151.319 53.9998 151.643C53.7052 152.021 53.3896 152.383 53.0545 152.726C52.276 153.51 51.4209 154.215 50.5022 154.829C49.5702 155.424 48.5824 155.928 47.5529 156.332C47.0803 156.497 46.6076 156.668 46.1775 156.776C45.7734 156.891 45.3631 156.982 44.9487 157.05C44.6095 157.116 44.2672 157.163 43.923 157.192C43.663 157.228 43.4008 157.245 43.1384 157.244C42.9169 157.269 42.6935 157.269 42.472 157.244C42.472 157.192 43.4173 157.197 44.9156 156.894C45.3222 156.814 45.7245 156.713 46.1208 156.592C46.5556 156.478 46.9999 156.304 47.4679 156.119C48.4782 155.711 49.4482 155.21 50.3652 154.621C51.2713 154.017 52.118 153.329 52.8938 152.565C53.2389 152.201 53.5792 151.865 53.8391 151.511C54.1106 151.197 54.3646 150.869 54.6001 150.528C55.4887 149.285 55.8526 148.406 55.8999 148.429Z" fill="#263238"/>
<g opacity="0.2">
<path d="M25.4334 190.306C27.8216 191.284 30.4219 191.63 32.983 191.31C35.544 190.989 37.979 190.014 40.0523 188.476C41.8909 187.144 43.4318 185.4 45.4169 184.289C48.1677 182.757 51.4431 182.611 54.5862 182.398C58.788 182.096 63.0277 181.581 66.979 180.115C67.8034 179.874 68.551 179.423 69.1484 178.806C69.692 178.149 69.8763 177.114 69.3422 176.443C68.8081 175.772 67.7919 175.724 66.9175 175.753C53.7402 176.14 41.6972 177.194 28.8695 180.243" fill="black"/>
</g>
<path d="M39.6363 61.586C43.7105 57.4361 50.1385 54.9689 55.4605 57.3322C59.0431 58.9013 61.4725 62.2618 64.6156 64.5825C66.9032 66.2746 69.7297 67.5838 70.9302 70.1645C71.9889 72.4379 71.4785 75.0894 71.2232 77.585C70.968 80.0806 71.1476 82.959 73.0807 84.5612C74.0922 85.3978 75.444 85.7334 76.5736 86.3856C78.8754 87.7043 80.2413 90.2708 80.7329 92.8751C81.2244 95.4793 80.9598 98.164 80.6951 100.806L69.7249 102.895L67.9242 99.8655L67.305 104.616L53.3052 105.878L39.6363 61.586Z" fill="#263238"/>
<path d="M37.8263 66.1135V69.1621L36.9613 114.919C36.8857 120.222 41.9619 124.736 47.6431 124.773C53.3763 124.811 55.7159 120.52 55.8814 115.146C56.0515 109.526 56.354 103.608 56.354 103.608C56.354 103.608 63.628 102.606 65.391 93.2102C66.2654 88.531 66.2418 80.8222 66.0196 74.5124C65.9727 73.166 65.6538 71.843 65.0821 70.6231C64.5105 69.4032 63.6979 68.3115 62.6934 67.4138C61.6888 66.5161 60.513 65.831 59.2368 65.3995C57.9605 64.9681 56.6101 64.7994 55.2669 64.9035L37.8263 66.1135Z" fill="#FFBE9D"/>
<path d="M63.4857 80.5763C63.4808 80.8919 63.3522 81.1929 63.1278 81.4147C62.9033 81.6365 62.6008 81.7615 62.2852 81.7627C62.1308 81.7709 61.9763 81.7482 61.8308 81.6958C61.6853 81.6434 61.5518 81.5623 61.4382 81.4575C61.3245 81.3526 61.233 81.2261 61.169 81.0853C61.1051 80.9445 61.07 80.7924 61.0658 80.6378C61.0719 80.3222 61.2006 80.0213 61.4247 79.799C61.6488 79.5767 61.9506 79.4503 62.2663 79.4467C62.4211 79.4384 62.576 79.4613 62.7217 79.5141C62.8675 79.5668 63.0013 79.6482 63.115 79.7536C63.2287 79.8589 63.3201 79.986 63.3838 80.1273C63.4475 80.2687 63.4821 80.4214 63.4857 80.5763Z" fill="#263238"/>
<path d="M64.1996 78.4593C64.0437 78.6153 63.1456 77.9063 61.8364 77.8779C60.5272 77.8496 59.5582 78.4687 59.4212 78.3033C59.355 78.2324 59.5157 77.9536 59.9411 77.6605C60.5147 77.2824 61.1925 77.0939 61.8789 77.1217C62.564 77.1329 63.227 77.365 63.7695 77.7834C64.1476 78.1001 64.2753 78.3884 64.1996 78.4593Z" fill="#263238"/>
<path d="M50.639 80.5763C50.6329 80.8915 50.504 81.1918 50.2798 81.4134C50.0555 81.6349 49.7537 81.7603 49.4385 81.7627C49.2841 81.7709 49.1296 81.7482 48.9841 81.6958C48.8386 81.6434 48.7051 81.5623 48.5915 81.4575C48.4778 81.3526 48.3863 81.2261 48.3223 81.0853C48.2584 80.9445 48.2233 80.7924 48.2191 80.6378C48.2252 80.3222 48.3539 80.0213 48.578 79.799C48.8021 79.5767 49.1039 79.4503 49.4196 79.4467C49.5744 79.4384 49.7293 79.4613 49.8751 79.5141C50.0208 79.5668 50.1546 79.6482 50.2683 79.7536C50.382 79.8589 50.4734 79.986 50.5371 80.1273C50.6008 80.2687 50.6354 80.4214 50.639 80.5763Z" fill="#263238"/>
<path d="M51.3725 78.3505C51.2165 78.5018 50.3185 77.7975 49.0092 77.7644C47.7 77.7313 46.7311 78.36 46.594 78.1945C46.5278 78.1236 46.6886 77.8401 47.1139 77.5517C47.6878 77.1737 48.3651 76.9837 49.0518 77.0082C49.7366 77.0208 50.3992 77.2527 50.9424 77.6699C51.3205 77.9913 51.4481 78.2796 51.3725 78.3505Z" fill="#263238"/>
<path d="M55.8383 88.1672C55.8383 88.0916 56.6512 87.9734 57.9652 87.8411C58.3008 87.8174 58.6174 87.7607 58.6789 87.5339C58.7176 87.191 58.6499 86.8445 58.4851 86.5413C58.1968 85.7236 57.8895 84.8729 57.5681 83.9748C56.3015 80.3307 55.394 77.3578 55.5405 77.2822C55.687 77.2066 56.8356 80.1511 58.1022 83.8C58.4095 84.698 58.7025 85.5535 58.9766 86.3759C59.1777 86.7818 59.2263 87.2464 59.1137 87.6851C59.0624 87.8017 58.985 87.9049 58.8875 87.9869C58.79 88.0688 58.6749 88.1273 58.5513 88.1577C58.3658 88.2038 58.175 88.2244 57.9841 88.2192C56.6607 88.2428 55.843 88.2239 55.8383 88.1672Z" fill="#263238"/>
<path d="M56.3154 103.608C51.8636 103.555 47.5143 102.265 43.7525 99.8839C43.7525 99.8839 46.6404 106.458 56.1264 105.835L56.3154 103.608Z" fill="#EB996E"/>
<path d="M55.2008 91.2774C54.9619 90.9562 54.6453 90.7009 54.2807 90.5356C53.9161 90.3702 53.5155 90.3002 53.1165 90.3321C52.828 90.3506 52.5462 90.4272 52.2879 90.5571C52.0297 90.687 51.8003 90.8677 51.6134 91.0883C51.434 91.301 51.3238 91.5635 51.2976 91.8405C51.2715 92.1176 51.3305 92.396 51.4669 92.6386C51.6719 92.8769 51.943 93.0491 52.2459 93.1332C52.5488 93.2174 52.8699 93.2097 53.1685 93.1112C53.7886 92.9093 54.3634 92.5882 54.8605 92.166C55.0116 92.0661 55.1416 91.9376 55.2434 91.7878C55.2895 91.7177 55.3141 91.6355 55.3141 91.5515C55.3141 91.4675 55.2895 91.3854 55.2434 91.3152" fill="#EB996E"/>
<path d="M51.9768 88.9472C52.1895 88.9472 52.1517 90.3651 53.3333 91.3955C54.5149 92.4259 56.0321 92.3172 56.0368 92.5157C56.0368 92.6055 55.6918 92.7851 55.0537 92.7804C54.2246 92.7715 53.4256 92.4683 52.7992 91.9249C52.1965 91.4052 51.8201 90.6711 51.7499 89.8783C51.7074 89.2828 51.8776 88.9378 51.9768 88.9472Z" fill="#263238"/>
<path d="M51.7875 74.5551C51.6457 74.9049 50.3696 74.7017 48.8146 74.8434C47.2595 74.9852 46.0307 75.3681 45.8369 75.0467C45.7518 74.8907 45.9739 74.574 46.4844 74.2337C47.1623 73.8321 47.9225 73.5898 48.7078 73.5251C49.493 73.4604 50.2826 73.5751 51.0171 73.8603C51.5701 74.1014 51.8442 74.3897 51.7875 74.5551Z" fill="#263238"/>
<path d="M64.2471 75.8264C63.9588 76.1147 62.8765 75.7744 61.5578 75.7224C60.2391 75.6704 59.1284 75.8548 58.8779 75.5381C58.7692 75.3868 58.9535 75.0938 59.4498 74.8291C60.132 74.4958 60.8903 74.3491 61.6476 74.4037C62.4018 74.4286 63.1359 74.6538 63.7745 75.056C64.2282 75.3727 64.3747 75.6846 64.2471 75.8264Z" fill="#263238"/>
<path d="M28.0757 113.109C28.0757 113.109 12.8754 116.673 9.92607 131.07C8.56957 137.687 6.67426 175.72 15.5317 181.643C26.965 189.271 41.5272 182.333 41.5272 182.333L39.6366 163.937H30.1837L28.9123 143.784C29.2809 145.358 28.0757 113.109 28.0757 113.109Z" fill="#6AC5C4"/>
<path d="M82.1454 176.414C85.127 176.109 87.8791 174.676 89.8392 172.408C91.7992 170.141 92.819 167.21 92.6901 164.216L86.4795 137.828C86.4795 137.828 82.4526 115.188 69.7242 113.146L74.0631 147.649L73.6472 154.923C73.6472 154.923 73.8457 159.735 74.3325 168.753L82.1454 176.414Z" fill="#6AC5C4"/>
<path d="M83.7905 159.905C83.023 159.934 82.2584 160.017 81.5029 160.156C79.679 160.526 78.008 161.435 76.7056 162.764C75.4031 164.094 74.5289 165.783 74.1958 167.614C74.0723 168.374 74.0043 169.142 73.9926 169.911C73.9429 169.707 73.919 169.497 73.9217 169.287C73.8963 168.717 73.9312 168.145 74.0257 167.581C74.3278 165.7 75.2085 163.961 76.5451 162.604C77.8818 161.247 79.6081 160.34 81.484 160.009C82.0467 159.906 82.6182 159.858 83.1903 159.868C83.3911 159.856 83.5927 159.868 83.7905 159.905Z" fill="#263238"/>
<path d="M44.5753 60.5319C46.2862 62.829 47.0992 64.592 48.1248 68.6803C48.6306 70.6796 46.9999 72.0928 45.3835 73.317C45.2097 73.4491 45.0055 73.5352 44.7896 73.5676C44.5737 73.5999 44.3532 73.5774 44.1483 73.502C43.9435 73.4267 43.7609 73.3009 43.6175 73.1364C43.474 72.9719 43.3743 72.7739 43.3275 72.5608C43.3275 72.5608 43.8852 78.8233 41.6212 81.6308C40.5625 82.9495 40.5152 84.6368 40.7657 86.0595C41.0498 87.5065 41.7534 88.8379 42.7887 89.8879C45.4166 92.6482 46.1444 97.1525 44.3342 100.537C43.8098 101.368 43.3286 102.226 42.8926 103.108C42.6722 103.634 42.5705 104.202 42.5949 104.772C42.6226 105.106 42.5224 105.438 42.3145 105.701C42.1065 105.965 41.8064 106.139 41.4747 106.189C33.6966 107.314 25.8157 107.551 17.9842 106.894C17.7149 106.872 17.4592 106.766 17.2532 106.592C17.0471 106.417 16.9011 106.182 16.8357 105.92C16.2212 103.292 17.2469 100.456 18.5561 98.093C20.0213 95.4226 21.8646 92.8609 22.3893 89.8596C22.8619 87.0237 22.0915 83.9893 23.2258 81.352C24.6438 78.1238 28.4249 76.5971 30.3155 73.6337C32.1069 70.8403 31.9603 67.1773 33.5626 64.2753C35.6233 60.5414 40.6854 58.821 44.5894 60.5272" fill="#263238"/>
<path d="M45.01 63.9965C47.9829 65.5279 49.3583 69.1625 52.2462 70.8451C54.8741 72.3765 58.1543 71.9747 61.165 71.521C61.0563 70.8546 60.9429 70.1834 60.8295 69.517C61.1004 70.1203 61.4783 70.6695 61.9449 71.1382C62.1819 71.3694 62.4772 71.532 62.7993 71.6086C63.1215 71.6851 63.4584 71.6728 63.7741 71.573C64.7855 71.1665 64.9179 69.7769 64.6626 68.7371C64.2004 67.0448 63.293 65.5073 62.0347 64.2848C59.7866 62.0031 56.7922 60.607 53.5992 60.3518C50.4062 60.0967 47.228 60.9995 44.6461 62.8952" fill="#263238"/>
<path d="M72.8822 131.277C72.904 131.401 72.9135 131.526 72.9106 131.651C72.9106 131.915 72.9106 132.27 72.9437 132.714C72.9437 133.659 73.0098 134.978 73.0807 136.628C73.2178 139.936 73.525 144.493 73.8984 149.526C74.2718 154.56 74.5507 159.126 74.6405 162.434C74.6877 164.088 74.7114 165.426 74.6972 166.352C74.6972 166.797 74.6972 167.151 74.6972 167.416C74.7085 167.54 74.7085 167.665 74.6972 167.789C74.6754 167.666 74.6659 167.541 74.6688 167.416C74.6688 167.151 74.6688 166.797 74.6357 166.352C74.6357 165.407 74.5696 164.093 74.4987 162.439C74.3663 159.13 74.0544 154.579 73.6857 149.54C73.3171 144.502 73.0287 139.946 72.9389 136.637C72.8917 134.983 72.8728 133.641 72.8822 132.714C72.8822 132.27 72.8822 131.915 72.8822 131.651C72.874 131.526 72.874 131.402 72.8822 131.277Z" fill="#263238"/>
<path d="M30.1968 163.942C30.1753 163.855 30.1642 163.766 30.1637 163.677C30.1637 163.474 30.1354 163.205 30.1117 162.916C30.0739 162.222 30.0219 161.281 29.9605 160.128C29.8234 157.764 29.6155 154.517 29.3697 150.921C29.1239 147.324 28.897 144.105 28.7316 141.718C28.656 140.57 28.5946 139.624 28.5473 138.93C28.5473 138.622 28.5189 138.372 28.5095 138.173C28.4982 138.084 28.4982 137.993 28.5095 137.904C28.5325 137.99 28.5468 138.079 28.552 138.169C28.552 138.367 28.604 138.618 28.6371 138.925C28.7033 139.615 28.7931 140.555 28.9018 141.709C29.1097 144.072 29.3744 147.31 29.6107 150.906C29.8471 154.503 30.0361 157.76 30.1259 160.118C30.1685 161.3 30.2015 162.255 30.2063 162.912V163.673C30.2153 163.762 30.2121 163.853 30.1968 163.942Z" fill="#263238"/>
<path d="M30.1972 163.942C30.1972 163.984 29.7245 164.008 28.9588 164.259C27.99 164.579 27.1292 165.163 26.4725 165.944C25.8157 166.725 25.3887 167.673 25.2391 168.682C25.1209 169.458 25.1824 169.949 25.1398 169.954C25.0973 169.959 25.0926 169.836 25.0642 169.614C25.0291 169.299 25.0291 168.982 25.0642 168.668C25.1748 167.609 25.5994 166.606 26.2837 165.79C26.9758 164.982 27.8893 164.393 28.9116 164.098C29.2202 164.012 29.537 163.958 29.8569 163.937C30.0743 163.913 30.1972 163.923 30.1972 163.942Z" fill="#263238"/>
<path d="M41.5034 182.337C41.4735 182.242 41.4545 182.144 41.4467 182.044C41.4183 181.827 41.3852 181.548 41.3379 181.203C41.2529 180.442 41.1347 179.397 40.9882 178.112C40.7093 175.474 40.3312 171.878 39.9153 167.907C39.7782 166.527 39.6412 165.19 39.5183 163.951L39.6364 164.06L32.0741 164.013L29.8763 163.98H29.2902C29.2227 163.988 29.1545 163.988 29.087 163.98C29.1532 163.962 29.2217 163.954 29.2902 163.956H29.8763L32.0741 163.923L39.6364 163.88H39.7404V163.989L40.1469 167.94C40.5345 171.915 40.8842 175.503 41.1442 178.159C41.2576 179.445 41.3521 180.494 41.4183 181.255C41.4467 181.6 41.4656 181.883 41.4845 182.101C41.4974 182.179 41.5037 182.258 41.5034 182.337Z" fill="#263238"/>
<path d="M41.5028 182.337C41.3859 182.387 41.2659 182.43 41.1436 182.465L40.1085 182.796C39.2058 183.079 37.8965 183.476 36.2612 183.911C34.347 184.434 32.4023 184.838 30.4382 185.121C28.0174 185.448 25.5572 185.332 23.1783 184.776C21.9456 184.51 20.7302 184.169 19.539 183.755C18.9671 183.547 18.4046 183.339 17.8611 183.112C17.5917 182.999 17.3223 182.89 17.067 182.753L16.6795 182.559L16.3155 182.328C15.427 181.727 14.655 180.969 14.0374 180.092C13.494 179.337 13.0194 178.535 12.6194 177.696C12.0578 176.482 11.5839 175.229 11.2015 173.948C11.0597 173.475 10.9557 173.144 10.8943 172.903C10.8557 172.781 10.8257 172.656 10.8045 172.53C10.861 172.645 10.9069 172.765 10.9415 172.889L11.2913 173.919C11.7106 175.182 12.2095 176.416 12.7849 177.615C13.1879 178.443 13.6623 179.234 14.2028 179.979C14.8128 180.83 15.5718 181.563 16.4431 182.143L16.7929 182.366L17.1663 182.555C17.4121 182.687 17.6815 182.791 17.9509 182.904C18.4897 183.126 19.0474 183.334 19.6193 183.533C20.8013 183.943 22.0072 184.281 23.2303 184.544C25.5825 185.094 28.0141 185.217 30.4098 184.908C32.3666 184.636 34.3061 184.251 36.2187 183.755C37.854 183.339 39.168 182.966 40.0802 182.715L41.1294 182.427C41.2505 182.384 41.3757 182.354 41.5028 182.337Z" fill="#263238"/>
<path d="M33.4824 71.7287C33.9365 70.6131 34.0472 69.3875 33.8005 68.2087C33.5538 67.0298 32.9608 65.9515 32.0976 65.1116C31.2103 64.3007 30.1238 63.7395 28.9489 63.4855C27.774 63.2314 26.5527 63.2935 25.4096 63.6653C24.3684 63.9788 23.4533 64.6142 22.7959 65.4803C21.6379 67.0778 21.8506 69.4316 23.0606 71.0055C23.6936 71.7672 24.4819 72.3851 25.3727 72.8179C26.2636 73.2507 27.2365 73.4885 28.2266 73.5153C30.2106 73.5549 32.1781 73.1478 33.9834 72.3242" fill="#263238"/>
<path d="M49.1976 146.69C52.5061 149.417 60.2858 155.874 60.2858 155.874L64.6389 155.099L51.4426 143.996C51.1006 143.71 50.6625 143.565 50.2174 143.59C49.7722 143.616 49.3535 143.81 49.0463 144.133C48.8796 144.307 48.7506 144.513 48.6673 144.738C48.5841 144.964 48.5485 145.205 48.5627 145.445C48.5769 145.685 48.6406 145.92 48.7499 146.134C48.8591 146.348 49.0116 146.538 49.1976 146.69Z" fill="#455A64"/>
<path d="M48.8719 145.272L47.161 143.727C47 143.581 46.9018 143.378 46.8868 143.162C46.8719 142.945 46.9413 142.731 47.0806 142.564C47.1538 142.479 47.2435 142.409 47.3442 142.358C47.445 142.308 47.5548 142.278 47.6672 142.271C47.7796 142.264 47.8923 142.28 47.9986 142.317C48.1048 142.355 48.2025 142.413 48.2859 142.489L49.9354 144.001L48.8719 145.272Z" fill="#455A64"/>
<path d="M53.9474 146.104C53.6576 146.586 53.2994 147.024 52.8839 147.404C52.526 147.838 52.1092 148.22 51.6456 148.538C51.9359 148.055 52.294 147.615 52.709 147.234C53.0646 146.799 53.4818 146.418 53.9474 146.104Z" fill="#263238"/>
<path d="M54.0704 151.54C53.6048 151.295 53.1633 151.007 52.7517 150.679C51.9671 150.112 50.9037 149.29 49.7835 148.316C49.2099 147.889 48.7358 147.342 48.3939 146.714C48.152 146.164 48.1367 145.541 48.3514 144.979C48.4948 144.607 48.7366 144.28 49.0509 144.034C49.2731 143.869 49.4196 143.817 49.4243 143.831C49.429 143.845 49.3061 143.925 49.1124 144.11C48.8377 144.37 48.6329 144.695 48.5168 145.055C48.3415 145.574 48.3719 146.141 48.6019 146.638C48.943 147.228 49.4015 147.741 49.9489 148.146C51.0597 149.115 52.0995 149.956 52.8604 150.557C53.2838 150.859 53.6879 151.187 54.0704 151.54Z" fill="#263238"/>
<path d="M39.7828 165.412C42.9211 164.362 46.2486 165.071 49.3822 164.017C50.4581 163.735 51.466 163.238 52.3457 162.557C53.343 161.673 53.8487 160.373 54.6428 159.305C57.006 156.11 61.4442 155.448 65.4049 155.051C66.3234 154.903 67.2605 154.916 68.1746 155.089C68.6316 155.181 69.057 155.39 69.4097 155.694C69.7624 155.999 70.0306 156.39 70.1881 156.828C70.4433 157.722 69.8667 158.837 68.9403 158.932C69.81 158.97 70.415 159.849 70.5757 160.704C70.7364 161.56 70.5757 162.439 70.708 163.299C70.8687 164.509 71.5304 165.639 71.4926 166.858C71.4406 168.526 70.0747 169.902 68.5149 170.545C66.9552 171.187 65.2679 171.272 63.6183 171.49C55.4888 172.634 49.3444 177.242 41.5032 180.725" fill="#FFBE9D"/>
<path d="M70.6511 161.815C70.731 161.945 70.8369 162.058 70.9621 162.146C71.0873 162.233 71.2292 162.295 71.3791 162.325C71.5289 162.356 71.6834 162.355 71.833 162.324C71.9826 162.292 72.1241 162.23 72.2487 162.141C72.4913 161.948 72.6768 161.692 72.785 161.402C72.8933 161.111 72.9203 160.797 72.8631 160.492C72.7394 159.882 72.4702 159.311 72.0785 158.828C71.388 157.934 70.6295 157.095 69.8098 156.318L67.3048 158.426L70.6511 161.815Z" fill="#FFBE9D"/>
<path d="M69.7245 159.064C69.7245 159.145 68.1837 159.017 66.3262 159.305C64.4687 159.594 63.0177 160.151 63.0177 160.08C63.3005 159.894 63.6096 159.751 63.9346 159.655C64.7019 159.383 65.4932 159.184 66.2978 159.06C67.1031 158.937 67.9184 158.895 68.732 158.932C69.0675 158.928 69.4018 158.972 69.7245 159.064Z" fill="#EB996E"/>
<path d="M70.8302 163.989C70.8302 164.064 69.5398 163.8 67.947 163.847C66.3542 163.894 65.0875 164.206 65.0733 164.131C66.9285 163.473 68.9448 163.424 70.8302 163.989Z" fill="#EB996E"/>
<path d="M70.5663 162.533C70.5238 162.533 70.5663 162.164 70.4954 161.588C70.4046 160.839 70.1443 160.122 69.7344 159.489C69.6361 159.336 69.5288 159.19 69.413 159.05L69.3421 158.96L69.4178 158.884C69.6334 158.665 69.8027 158.405 69.9156 158.119C70.0285 157.833 70.0826 157.528 70.0747 157.22C70.0747 156.748 69.933 156.483 69.966 156.469C70.1349 156.68 70.2281 156.941 70.2307 157.211C70.2669 157.547 70.228 157.888 70.1169 158.207C70.0057 158.527 69.8251 158.818 69.5879 159.059V158.894C69.712 159.044 69.8272 159.202 69.9329 159.366C70.3646 160.031 70.6155 160.797 70.6608 161.588C70.6983 161.906 70.666 162.229 70.5663 162.533Z" fill="#EB996E"/>
<path d="M70.6553 161.545L74.7768 165.411L75.3015 167.708L71.4919 166.848C70.9437 164.91 70.5419 163.062 70.6553 161.545Z" fill="#455A64"/>
<path d="M65.0745 166.47C64.9894 166.621 42.8223 177.549 42.8223 177.549V179.912L65.4432 168.143L93.5042 167.099V165.435L65.0745 166.47Z" fill="#F5F5F5"/>
<path d="M42.8223 180.239C42.9783 180.135 67.296 177.942 67.296 177.942L93.5042 167.071L65.4432 168.13L42.8223 179.898V180.239Z" fill="#263238"/>
<path d="M66.1045 174.42C65.9107 173.144 67.1301 172.057 68.3732 171.712C69.6162 171.367 70.9444 171.509 72.2016 171.239C72.9994 171.02 73.7798 170.742 74.5365 170.408C78.4122 168.923 82.666 168.843 86.8253 168.786C87.0669 169.35 87.1047 169.98 86.9322 170.568C86.7597 171.156 86.3876 171.666 85.88 172.01C86.2236 173.027 86.1781 174.135 85.7524 175.12C85.3237 176.096 84.7377 176.995 84.0178 177.781C83.4744 178.5 82.7746 179.087 81.9712 179.497C81.1308 179.805 80.2375 179.943 79.3433 179.903C76.5547 179.96 73.5676 179.964 71.2658 178.4C69.4744 177.181 68.2361 175.091 66.1612 174.477H66.6338" fill="#FFBE9D"/>
<path d="M84.6798 172.875C84.5062 172.914 84.3284 172.931 84.1505 172.926L82.6947 172.974C81.4658 173.002 79.769 173.021 77.8973 173.03H75.2505C74.8545 173.036 74.4601 172.977 74.0831 172.856C73.7464 172.737 73.4522 172.521 73.2371 172.236C73.1467 172.119 73.081 171.984 73.0436 171.84C73.0063 171.696 72.9981 171.547 73.0196 171.4C73.055 171.18 73.1574 170.977 73.3127 170.818C73.3706 170.75 73.4432 170.696 73.5251 170.66C73.6069 170.624 73.6959 170.607 73.7853 170.611C73.6237 170.667 73.4778 170.761 73.3599 170.885C73.2084 171.057 73.1248 171.279 73.1248 171.509C73.1248 171.738 73.2084 171.96 73.3599 172.132C73.5601 172.38 73.8278 172.564 74.1304 172.662C74.4893 172.767 74.8625 172.815 75.2363 172.804H77.8784C79.769 172.804 81.4469 172.804 82.6758 172.804L84.1316 172.832C84.3154 172.822 84.4997 172.836 84.6798 172.875Z" fill="#EB996E"/>
<path d="M83.2513 175.209C83.0334 175.271 82.8104 175.314 82.5849 175.337C82.1501 175.408 81.5214 175.498 80.7416 175.573C79.8229 175.665 78.8985 175.686 77.9766 175.635C76.8506 175.543 75.7343 175.356 74.6397 175.077C72.6637 174.595 70.638 174.346 68.604 174.335C67.8242 174.335 67.1861 174.363 66.756 174.387C66.528 174.407 66.2987 174.407 66.0706 174.387C66.2917 174.327 66.5181 174.289 66.7465 174.273C67.3614 174.198 67.9799 174.153 68.5993 174.141C70.6509 174.099 72.6993 174.326 74.6917 174.817C75.7781 175.094 76.8842 175.287 78.0002 175.394C78.9114 175.456 79.8257 175.456 80.7369 175.394C81.5167 175.342 82.1548 175.275 82.5802 175.238C82.8024 175.206 83.0272 175.196 83.2513 175.209Z" fill="#EB996E"/>
<path d="M80.9408 177.705C80.7703 177.757 80.5942 177.789 80.4162 177.8C80.0806 177.847 79.5891 177.908 78.9983 177.96C77.4105 178.127 75.8074 178.074 74.234 177.804C72.367 177.45 70.9255 176.495 69.8053 176.056C69.2011 175.81 68.5763 175.619 67.9383 175.484C68.1151 175.462 68.2943 175.471 68.4677 175.512C68.9534 175.585 69.4292 175.713 69.8856 175.895C71.0436 176.306 72.4852 177.218 74.3001 177.563C75.861 177.827 77.4479 177.902 79.0266 177.785L80.4446 177.705C80.6095 177.687 80.7759 177.687 80.9408 177.705Z" fill="#EB996E"/>
<g opacity="0.2">
<path d="M74.6546 165.015C74.8363 163.282 75.3026 161.591 76.0348 160.01C76.7754 158.429 78.03 157.146 79.5938 156.37C80.3794 155.995 81.2476 155.826 82.1167 155.879C82.9858 155.931 83.8271 156.205 84.5613 156.673C85.0047 156.959 85.3508 157.372 85.5539 157.859C85.653 158.102 85.683 158.367 85.6405 158.626C85.5979 158.884 85.4845 159.126 85.3128 159.324C84.7929 159.882 83.8949 159.797 83.1481 159.759C81.4052 159.711 79.685 160.164 78.1915 161.064C76.6979 161.963 75.4935 163.272 74.7208 164.835" fill="black"/>
</g>
<g opacity="0.2">
<path d="M33.6094 163.578C35.5 160.189 34.8194 155.94 33.3778 152.348C31.9363 148.756 29.7857 145.447 28.6845 141.732C28.4772 149.268 29.5725 156.783 31.9221 163.946" fill="black"/>
</g>
<path d="M36.9377 111.743C36.9377 111.743 39.2301 117.145 47.5014 116.8C55.7727 116.455 56.0374 110.041 56.0374 110.041L61.572 115.926L56.3162 126.754L49.2549 132.024L39.6365 128.073L31.7103 121.928L36.9377 111.743Z" fill="#6AC5C4"/>
<g opacity="0.5">
<path d="M17.5679 134.836C17.653 134.94 16.5754 135.951 15.1527 137.091C13.7301 138.23 12.5154 139.066 12.4303 138.957C12.3452 138.849 13.4228 137.847 14.8408 136.708C16.2587 135.569 17.4829 134.727 17.5679 134.836Z" fill="#FAFAFA"/>
</g>
<path d="M21.4579 129.009C21.4154 129.131 20.1109 128.763 18.6977 127.888C17.2844 127.014 16.3628 126.026 16.4526 125.932C16.5424 125.837 17.5822 126.636 18.9529 127.472C20.3236 128.309 21.4957 128.876 21.4579 129.009Z" fill="#FAFAFA"/>
<path d="M28.5473 129.642C28.6607 129.727 27.602 131.244 26.4251 133.172C25.2482 135.101 24.336 136.708 24.2131 136.646C24.0902 136.585 24.7944 134.864 26.0091 132.912C27.2238 130.96 28.448 129.557 28.5473 129.642Z" fill="#FAFAFA"/>
<path d="M22.4785 146.066C22.3839 146.151 21.2921 145.036 20.3374 143.387C19.3826 141.737 18.9478 140.239 19.0707 140.196C19.1936 140.154 19.8222 141.534 20.7628 143.136C21.7033 144.738 22.5872 145.972 22.4785 146.066Z" fill="#FAFAFA"/>
<path d="M16.1358 154.011C16.0034 154.011 15.7246 152.83 15.5213 151.327C15.3181 149.824 15.2614 148.59 15.3937 148.571C15.5261 148.552 15.8049 149.758 16.0082 151.261C16.2114 152.764 16.2587 153.993 16.1358 154.011Z" fill="#FAFAFA"/>
<g opacity="0.5">
<path d="M22.111 156.176C21.9928 156.11 22.5837 154.844 23.4675 153.341C24.3514 151.838 25.1312 150.689 25.2494 150.755C25.3675 150.821 24.7767 152.093 23.8929 153.591C23.009 155.089 22.2292 156.228 22.111 156.176Z" fill="#FAFAFA"/>
</g>
<path d="M15.1721 164.405C15.0729 164.495 14.0189 163.46 12.9932 161.966C11.9676 160.472 11.3862 159.13 11.4997 159.059C11.6131 158.988 12.393 160.222 13.3902 161.687C14.3875 163.152 15.2761 164.315 15.1721 164.405Z" fill="#FAFAFA"/>
<path d="M24.6012 163.048C24.6957 163.143 23.6086 164.395 22.1765 165.842C20.7444 167.288 19.5013 168.389 19.4021 168.295C19.3028 168.2 20.3899 166.948 21.8268 165.496C23.2636 164.045 24.5019 162.954 24.6012 163.048Z" fill="#FAFAFA"/>
<g opacity="0.5">
<path d="M19.2416 180.03C19.1518 180.125 18.1025 179.255 17.1478 177.885C16.193 176.514 15.7298 175.238 15.8433 175.186C15.9567 175.134 16.6231 176.282 17.5542 177.601C18.4854 178.92 19.3408 179.931 19.2416 180.03Z" fill="#FAFAFA"/>
</g>
<path d="M31.4072 176.594C31.4734 176.712 30.3107 177.502 28.8124 178.357C27.3141 179.213 26.0379 179.813 25.9765 179.695C25.9151 179.577 27.073 178.787 28.5713 177.932C30.0696 177.076 31.341 176.476 31.4072 176.594Z" fill="#FAFAFA"/>
<path d="M36.1475 172.681C36.0624 172.78 34.9611 171.939 33.9591 170.564C32.9571 169.188 32.4892 167.884 32.6121 167.836C32.7349 167.789 33.3872 168.952 34.3561 170.275C35.3251 171.599 36.2467 172.577 36.1475 172.681Z" fill="#FAFAFA"/>
<path d="M44.5092 145.462C44.5943 145.57 43.3418 146.648 41.7158 147.863C40.0899 149.077 38.7098 149.975 38.6247 149.867C38.5397 149.758 39.7969 148.685 41.4228 147.47C43.0487 146.256 44.4288 145.358 44.5092 145.462Z" fill="#FAFAFA"/>
<path d="M35.6988 144.885C35.5617 144.885 35.5854 143.576 35.7461 141.992C35.9068 140.409 36.1478 139.156 36.2849 139.156C36.4219 139.156 36.3983 140.466 36.2376 142.049C36.0769 143.632 35.8311 144.908 35.6988 144.885Z" fill="#FAFAFA"/>
<g opacity="0.5">
<path d="M43.8242 133.82C43.7486 133.929 42.2834 133.026 40.6764 131.65C39.0694 130.275 37.9445 128.975 38.039 128.886C38.1336 128.796 39.405 129.921 40.9978 131.277C42.5906 132.634 43.9046 133.707 43.8242 133.82Z" fill="#FAFAFA"/>
</g>
<path d="M37.7217 120.009C37.8257 120.099 36.7764 121.489 35.4152 123.115C34.054 124.741 32.8345 125.984 32.7306 125.899C32.6266 125.814 33.6758 124.419 35.0371 122.793C36.3983 121.167 37.6177 119.924 37.7217 120.009Z" fill="#FAFAFA"/>
<g opacity="0.5">
<path d="M30.7312 118.53C30.6556 118.653 29.6016 118.109 28.2262 117.651C26.8508 117.192 25.7117 116.97 25.7117 116.829C25.7117 116.687 26.9595 116.696 28.3963 117.183C29.8332 117.67 30.8021 118.417 30.7312 118.53Z" fill="#FAFAFA"/>
</g>
<path d="M48.498 124.897C48.3704 124.859 48.5925 123.71 48.999 122.33C49.4055 120.95 49.8403 119.863 49.9443 119.901C50.0483 119.939 49.8545 121.087 49.4716 122.467C49.0888 123.847 48.6303 124.939 48.498 124.897Z" fill="#FAFAFA"/>
<path d="M52.747 135.777C52.61 135.777 52.5627 134.643 52.643 133.262C52.7234 131.882 52.8983 130.772 53.0306 130.776C53.163 130.781 53.215 131.911 53.1346 133.291C53.0543 134.671 52.8794 135.786 52.747 135.777Z" fill="#FAFAFA"/>
<path d="M59.7421 143.939C59.657 144.048 58.6219 143.358 57.4308 142.398C56.2398 141.439 55.3417 140.579 55.4268 140.475C55.5119 140.371 56.547 141.056 57.738 142.016C58.9291 142.975 59.813 143.835 59.7421 143.939Z" fill="#FAFAFA"/>
<path d="M67.168 132.544C67.2578 132.643 66.3361 133.607 65.1072 134.69C63.8783 135.772 62.8102 136.58 62.744 136.467C62.6778 136.353 63.5759 135.403 64.8047 134.321C66.0336 133.239 67.0782 132.44 67.168 132.544Z" fill="#FAFAFA"/>
<g opacity="0.5">
<path d="M63.7508 127.161C63.6751 127.274 62.5077 126.631 61.2505 125.587C59.9932 124.542 59.1424 123.512 59.237 123.422C59.3315 123.332 60.3241 124.183 61.5624 125.204C62.8007 126.225 63.8264 127.047 63.7508 127.161Z" fill="#FAFAFA"/>
</g>
<path d="M72.3436 117.566C72.4523 117.641 71.871 118.62 70.869 119.565C69.867 120.51 68.8508 121.03 68.7799 120.917C68.709 120.803 69.5597 120.123 70.5287 119.211C71.4976 118.298 72.2302 117.471 72.3436 117.566Z" fill="#FAFAFA"/>
<g opacity="0.5">
<path d="M66.4349 116.668C66.4349 116.8 64.9082 116.691 63.1263 116.233C61.3445 115.774 59.9454 115.16 59.9927 115.032C60.04 114.905 61.4721 115.311 63.2492 115.755C65.0264 116.2 66.4538 116.526 66.4349 116.668Z" fill="#FAFAFA"/>
</g>
<g opacity="0.5">
<path d="M77.4097 131.943C77.282 131.915 77.5751 130.053 78.251 127.869C78.9268 125.686 79.7067 123.975 79.8296 124.022C79.9525 124.069 79.3853 125.832 78.7236 128.011C78.0619 130.19 77.5467 131.972 77.4097 131.943Z" fill="#FAFAFA"/>
</g>
<path d="M79.844 142.37C79.7447 142.46 78.5773 141.387 77.235 139.964C75.8926 138.542 74.8717 137.318 74.9899 137.223C75.108 137.129 76.2519 138.206 77.5942 139.629C78.9365 141.051 79.9432 142.276 79.844 142.37Z" fill="#FAFAFA"/>
<g opacity="0.5">
<path d="M83.6106 148.273C83.4736 148.273 83.3885 146.723 83.4216 144.814C83.4547 142.904 83.5917 141.363 83.7288 141.363C83.8659 141.363 83.9462 142.914 83.9131 144.823C83.88 146.733 83.743 148.278 83.6106 148.273Z" fill="#FAFAFA"/>
</g>
<path d="M79.7871 158C79.6783 158.076 78.6669 156.838 77.731 155.108C76.7952 153.378 76.3131 151.851 76.4313 151.799C76.5494 151.747 77.2395 153.17 78.1659 154.867C79.0923 156.564 79.9005 157.92 79.7871 158Z" fill="#FAFAFA"/>
<path d="M89.547 159.778C89.6462 159.872 88.9892 160.666 88.0865 161.55C87.1837 162.434 86.3708 163.067 86.2763 162.968C86.1817 162.869 86.8387 162.075 87.7415 161.191C88.6442 160.307 89.4524 159.678 89.547 159.778Z" fill="#FAFAFA"/>
<g opacity="0.5">
<path d="M65.7832 148.694C65.6603 148.656 66.0951 147.106 67.2011 145.49C68.3071 143.873 69.6069 142.914 69.6872 143.018C69.7676 143.122 68.6758 144.209 67.6076 145.773C66.5394 147.338 65.9155 148.746 65.7832 148.694Z" fill="#FAFAFA"/>
</g>
<path d="M38.2233 161.659C38.091 161.626 38.3226 160.241 38.7385 158.52C39.1545 156.8 39.6082 155.462 39.7405 155.495C39.8729 155.529 39.6366 156.937 39.2206 158.639C38.8047 160.34 38.351 161.692 38.2233 161.659Z" fill="#FAFAFA"/>
<path d="M49.8164 162.817C49.7407 162.93 48.5638 162.292 47.1884 161.399C45.813 160.506 44.7543 159.683 44.8252 159.57C44.8961 159.456 46.073 160.09 47.4531 160.988C48.8332 161.886 49.9062 162.704 49.8164 162.817Z" fill="#FAFAFA"/>
<path d="M49.2492 154.442C49.1358 154.517 48.5828 153.889 48.0109 153.024C47.439 152.159 47.0656 151.421 47.1838 151.346C47.3019 151.27 47.8502 151.899 48.4221 152.764C48.994 153.629 49.3438 154.366 49.2492 154.442Z" fill="#FAFAFA"/>
<path d="M54.369 156.351C54.4447 156.46 53.9484 156.942 53.2583 157.429C52.5682 157.916 51.9444 158.218 51.864 158.109C51.7837 158.001 52.2847 157.514 52.9747 157.027C53.6648 156.54 54.2887 156.228 54.369 156.351Z" fill="#FAFAFA"/>
<g opacity="0.5">
<path d="M41.002 190.329C40.8649 190.287 41.0871 189.214 41.2808 187.89C41.4746 186.567 41.5833 185.475 41.7251 185.475C41.8669 185.475 41.9709 186.595 41.7677 187.961C41.5644 189.327 41.1249 190.372 41.002 190.329Z" fill="#FAFAFA"/>
</g>
<g opacity="0.5">
<path d="M52.7802 186.477C52.662 186.543 51.764 185.187 50.7761 183.452C49.7883 181.718 49.0793 180.248 49.1975 180.182C49.3157 180.115 50.2137 181.467 51.2015 183.206C52.1894 184.946 52.8983 186.425 52.7802 186.477Z" fill="#FAFAFA"/>
</g>
<g opacity="0.5">
<path d="M65.2719 181.226C65.3807 181.306 64.199 183.036 62.6299 185.088C61.0607 187.139 59.6994 188.732 59.5907 188.651C59.482 188.571 60.6684 186.841 62.2376 184.79C63.8067 182.739 65.168 181.141 65.2719 181.226Z" fill="#FAFAFA"/>
</g>
<g opacity="0.5">
<path d="M68.7939 191.26C68.7939 191.393 67.2484 191.733 65.3011 192.012C63.3538 192.291 61.7562 192.414 61.7373 192.281C61.7184 192.149 63.2781 191.809 65.2302 191.525C67.1822 191.242 68.775 191.123 68.7939 191.26Z" fill="#FAFAFA"/>
</g>
<path d="M69.3372 186.203C69.2001 186.17 69.3372 185.163 69.3703 183.925C69.4034 182.687 69.3703 181.671 69.5357 181.652C69.7011 181.633 69.9233 182.654 69.8618 183.944C69.8004 185.234 69.4648 186.236 69.3372 186.203Z" fill="#FAFAFA"/>
<path d="M52.4685 192.092C52.4212 192.21 51.1403 191.79 49.8075 190.826C48.4746 189.861 47.6617 188.793 47.7609 188.713C47.8602 188.632 48.8055 189.507 50.0958 190.424C51.3861 191.341 52.5252 191.96 52.4685 192.092Z" fill="#FAFAFA"/>
<path d="M32.4235 191.346C32.2912 191.313 32.4235 190.23 32.7733 188.935C33.123 187.64 33.4728 186.61 33.6051 186.643C33.7374 186.676 33.5767 187.754 33.2506 189.053C32.9245 190.353 32.5558 191.379 32.4235 191.346Z" fill="#FAFAFA"/>
<path d="M30.2452 71.7948C30.2736 71.757 30.8124 72.2201 31.8002 72.7401C32.3807 73.053 32.9862 73.317 33.6105 73.5294C34.3801 73.7778 35.1713 73.9535 35.9737 74.054C36.7761 74.1394 37.585 74.1473 38.3889 74.0776C39.0476 74.0174 39.6994 73.8972 40.3362 73.7184C41.4233 73.4159 42.0472 73.0898 42.0708 73.1324C41.938 73.2327 41.7936 73.3168 41.6407 73.3829C41.4697 73.4746 41.2929 73.5551 41.1114 73.6239C40.8735 73.7248 40.6306 73.8132 40.3835 73.8886C39.7418 74.0917 39.0816 74.231 38.4126 74.3045C37.5923 74.3896 36.7655 74.3896 35.9453 74.3045C35.1277 74.2032 34.3229 74.0162 33.5443 73.7468C32.91 73.5232 32.2989 73.2382 31.7199 72.896C31.4694 72.759 31.2472 72.603 31.0724 72.4754C30.907 72.3663 30.7491 72.2463 30.5997 72.1162C30.3634 71.9271 30.231 71.8089 30.2452 71.7948Z" fill="#455A64"/>
<path d="M42.4536 77.235C42.2882 77.306 42.1154 77.3583 41.9385 77.391C41.6029 77.476 41.116 77.5895 40.5205 77.6934C38.9232 78.0057 37.2815 78.0153 35.6806 77.7218C34.0665 77.4097 32.5981 76.5801 31.4977 75.3586C31.1754 74.9823 30.908 74.5622 30.7036 74.1108C30.6204 73.9507 30.563 73.7784 30.5335 73.6003C30.8328 74.19 31.2008 74.7421 31.63 75.2452C32.7316 76.4027 34.1649 77.1904 35.7326 77.4997C37.3069 77.7825 38.9178 77.7968 40.4969 77.5422C41.1066 77.4571 41.5981 77.372 41.9148 77.3153C42.0907 77.2676 42.2715 77.2406 42.4536 77.235Z" fill="#455A64"/>
<path d="M25.6224 106.161C25.5999 106.141 25.5793 106.119 25.561 106.095C25.5279 106.047 25.4665 105.981 25.4003 105.882C25.2171 105.593 25.0904 105.273 25.0269 104.937C24.9321 104.311 24.9757 103.673 25.1545 103.066C25.3334 102.459 25.6431 101.899 26.062 101.425C26.6381 100.776 27.3051 100.214 28.0424 99.7564C28.8175 99.246 29.6872 98.778 30.5427 98.2014C31.449 97.628 32.2238 96.8693 32.8161 95.9753C33.1122 95.5007 33.3054 94.9694 33.3833 94.4155C33.4569 93.8413 33.4265 93.2585 33.2935 92.6951C32.9832 91.5792 32.5833 90.4901 32.0977 89.4386C31.6379 88.4348 31.3671 87.3549 31.2989 86.253C31.2427 84.3757 31.8131 82.5332 32.9201 81.016C33.6393 79.9869 34.5937 79.1443 35.704 78.5583L36.2334 78.3031L36.6398 78.1613C36.75 78.118 36.8639 78.0848 36.9801 78.062C36.8773 78.1197 36.7698 78.1687 36.6587 78.2085L36.2664 78.374L35.7513 78.6434C34.6777 79.251 33.7577 80.0967 33.0619 81.1153C32.0033 82.6109 31.4637 84.4122 31.5258 86.2435C31.598 87.317 31.8672 88.368 32.3198 89.3441C32.8149 90.4117 33.2212 91.5182 33.5345 92.6526C33.6704 93.2444 33.7008 93.8556 33.6243 94.4581C33.5434 95.0457 33.3388 95.6095 33.0241 96.1123C32.4078 97.0341 31.6022 97.814 30.6609 98.3999C29.7912 98.9766 28.9168 99.4398 28.1464 99.9408C27.42 100.379 26.7609 100.92 26.1896 101.548C25.7798 102.002 25.4716 102.538 25.2858 103.121C25.0999 103.704 25.0407 104.32 25.112 104.927C25.1979 105.368 25.3715 105.788 25.6224 106.161Z" fill="#455A64"/>
<path d="M38.213 106.331C38.1159 106.29 38.0239 106.238 37.9389 106.175C37.6928 105.998 37.4854 105.773 37.3292 105.514C37.0857 105.098 36.9403 104.633 36.9038 104.152C36.8536 103.515 36.9242 102.873 37.1118 102.262C37.4946 100.877 38.6526 99.615 39.5223 98.008C39.9959 97.1895 40.2423 96.2594 40.236 95.3139C40.1877 94.2995 39.9286 93.3063 39.475 92.3977C38.577 90.5071 37.1968 88.9852 36.2421 87.4065C35.773 86.6685 35.3983 85.8745 35.1267 85.0433C34.8978 84.3071 34.8191 83.5324 34.8951 82.7652C34.9683 81.6422 35.4609 80.5878 36.2752 79.8111C36.5031 79.6178 36.7578 79.4586 37.0314 79.3385C37.125 79.2932 37.2233 79.2583 37.3245 79.2345C36.9678 79.4111 36.6357 79.6335 36.3366 79.8962C35.5778 80.6769 35.1277 81.7063 35.0699 82.7935C35.007 83.5374 35.0938 84.2863 35.3252 84.996C35.5947 85.8139 35.968 86.5938 36.4359 87.3167C36.9085 88.0871 37.4946 88.8575 38.076 89.6799C38.6964 90.5123 39.2391 91.3999 39.6971 92.3315C40.1698 93.271 40.4357 94.3008 40.477 95.3517C40.4787 96.336 40.2193 97.3031 39.7255 98.1545C38.818 99.7662 37.66 100.99 37.2772 102.333C37.0895 102.92 37.0094 103.536 37.0409 104.152C37.0668 104.615 37.1926 105.066 37.4095 105.476C37.6141 105.814 37.8879 106.106 38.213 106.331Z" fill="#455A64"/>
<path d="M56.8643 70.8494C56.8643 70.8494 56.7982 70.8494 56.6847 70.7737C56.5208 70.6849 56.3629 70.5855 56.2121 70.476C55.6713 70.0571 55.2116 69.5429 54.8556 68.9588C54.3386 68.0956 53.9004 67.1876 53.5464 66.2458C53.3289 65.7259 53.0737 65.1823 52.809 64.6483C52.5129 64.0964 52.1647 63.5742 51.7692 63.0885C50.3582 61.3755 48.4484 60.1447 46.3054 59.5673C45.4138 59.3525 44.5038 59.2228 43.5877 59.1798C43.8328 59.1387 44.0816 59.1244 44.3298 59.1372C45.0096 59.1545 45.6859 59.2416 46.348 59.3972C48.5511 59.9382 50.5195 61.1786 51.9583 62.9326C52.3664 63.431 52.7257 63.9676 53.0312 64.5348C53.3195 65.0831 53.5464 65.6361 53.7591 66.1607C54.1022 67.0953 54.5195 68.0009 55.0068 68.869C55.3453 69.4447 55.7746 69.9618 56.2783 70.4003C56.6422 70.7076 56.8785 70.8305 56.8643 70.8494Z" fill="#455A64"/>
<path d="M63.4574 70.8115C63.3714 70.8147 63.2854 70.8052 63.2022 70.7831C62.9603 70.7456 62.7228 70.6838 62.4932 70.5988C61.6432 70.2842 60.8733 69.7855 60.2387 69.1383C59.3064 68.1808 58.5197 67.0916 57.9038 65.9054C57.1618 64.6057 56.4434 63.1121 55.3327 61.8123C54.2742 60.5976 52.8768 59.7269 51.3199 59.312C50.0473 58.974 48.7372 58.7977 47.4205 58.7874C46.2909 58.7638 45.3787 58.7874 44.7454 58.8347L44.0175 58.863C43.9328 58.8746 43.847 58.8746 43.7623 58.863C43.8433 58.837 43.9277 58.8227 44.0128 58.8205L44.7406 58.7449C45.3693 58.6929 46.2862 58.6173 47.4205 58.622C48.7559 58.604 50.0877 58.7629 51.3813 59.0946C52.9876 59.5097 54.4299 60.4031 55.517 61.6564C56.6608 62.9939 57.3745 64.4922 58.0976 65.8015C58.6969 66.9742 59.4591 68.0563 60.3616 69.0154C60.97 69.6613 61.7076 70.1718 62.5263 70.5137C63.1124 70.7406 63.4622 70.7831 63.4574 70.8115Z" fill="#455A64"/>
<path d="M74.6171 101.486C74.5934 101.486 74.7399 101.151 74.8959 100.541C75.1226 99.6714 75.2182 98.7729 75.1795 97.8751C75.1345 96.5433 74.7922 95.2385 74.1775 94.0562C73.8111 93.3626 73.3567 92.7193 72.8257 92.142C72.2775 91.5322 71.6488 90.9556 71.0202 90.3506C70.3856 89.7689 69.7991 89.1366 69.2667 88.4601C68.7776 87.8259 68.3547 87.1433 68.0047 86.423C67.4159 85.2003 67.0388 83.8866 66.8893 82.5378C66.7852 81.6311 66.7947 80.715 66.9176 79.8107C66.9446 79.5656 66.9873 79.3224 67.0453 79.0828C67.0577 78.9965 67.0815 78.9123 67.1162 78.8323C67.1398 78.8323 67.0642 79.1868 67.0122 79.8248C66.9263 80.7202 66.9422 81.6224 67.0594 82.5142C67.2363 83.8372 67.6241 85.1234 68.208 86.3237C68.5571 87.0266 68.9751 87.6931 69.4558 88.3135C69.9845 88.9727 70.5628 89.5905 71.1857 90.1616C71.819 90.7666 72.4476 91.3479 73.0053 91.9718C73.547 92.5656 74.0078 93.2283 74.376 93.9427C74.9963 95.1572 75.331 96.4974 75.3544 97.861C75.3771 98.7742 75.2542 99.6852 74.9904 100.56C74.9216 100.798 74.8347 101.03 74.7305 101.255C74.7046 101.337 74.6664 101.415 74.6171 101.486Z" fill="#455A64"/>
<path d="M22.8382 70.4383C22.8371 70.2786 22.8578 70.1196 22.8997 69.9656C22.9952 69.5548 23.1463 69.1588 23.3487 68.7887C23.6865 68.1607 24.1533 67.6113 24.7185 67.1764C25.2837 66.7416 25.9345 66.4312 26.6281 66.2656C27.3217 66.1 28.0425 66.0829 28.7432 66.2156C29.4438 66.3482 30.1085 66.6275 30.6936 67.0352C31.0477 67.2704 31.366 67.5553 31.6389 67.8812C31.748 67.9948 31.8375 68.1258 31.9036 68.2688C31.5039 67.8644 31.0654 67.5003 30.5943 67.1817C30.0226 66.8098 29.3812 66.5581 28.7091 66.4421C28.0369 66.3261 27.3482 66.3481 26.6849 66.5068C26.0216 66.6656 25.3975 66.9577 24.8508 67.3655C24.304 67.7732 23.846 68.288 23.5046 68.8785C23.2327 69.3757 23.0095 69.8981 22.8382 70.4383Z" fill="#455A64"/>
<path d="M27.4184 72.4284C27.4151 72.0665 27.4596 71.7058 27.5508 71.3555C27.6962 70.4787 28.0842 69.66 28.6709 68.9923C28.9924 68.6704 29.395 68.4415 29.8361 68.33C30.2771 68.2185 30.7401 68.2285 31.176 68.359C31.4379 68.4538 31.6696 68.617 31.8471 68.8316C31.9653 68.9829 31.9984 69.0868 31.9889 69.0916C31.7481 68.8418 31.4517 68.6524 31.124 68.5386C30.7209 68.4426 30.3001 68.4512 29.9013 68.5637C29.5026 68.6762 29.1392 68.8889 28.8458 69.1814C28.2923 69.8225 27.9059 70.5904 27.7209 71.417C27.6511 71.7627 27.5499 72.1012 27.4184 72.4284Z" fill="#455A64"/>
<path d="M33.4259 65.5042C32.9519 66.3327 32.5366 67.1935 32.1829 68.0801C31.9095 68.9934 31.6948 69.9232 31.5401 70.8639C31.4356 68.8975 32.1155 66.9699 33.4307 65.5042H33.4259Z" fill="#6AC5C4"/>
<path d="M109.039 77.027C109.039 77.3178 109.126 77.602 109.287 77.8437C109.449 78.0854 109.678 78.2738 109.947 78.3851C110.215 78.4963 110.511 78.5254 110.796 78.4687C111.081 78.412 111.343 78.272 111.549 78.0664C111.754 77.8609 111.894 77.599 111.951 77.3138C112.008 77.0287 111.979 76.7331 111.867 76.4645C111.756 76.1959 111.568 75.9664 111.326 75.8049C111.084 75.6433 110.8 75.5571 110.509 75.5571C110.316 75.5571 110.125 75.5951 109.947 75.669C109.769 75.7429 109.606 75.8512 109.47 75.9877C109.333 76.1242 109.225 76.2862 109.151 76.4645C109.077 76.6429 109.039 76.834 109.039 77.027Z" fill="#455A64"/>
<path d="M104.621 78.497C105.433 78.497 106.091 77.8389 106.091 77.027C106.091 76.2152 105.433 75.5571 104.621 75.5571C103.809 75.5571 103.151 76.2152 103.151 77.027C103.151 77.8389 103.809 78.497 104.621 78.497Z" fill="#455A64"/>
<path d="M97.2802 76.2894C97.1351 76.5412 97.0679 76.8304 97.0871 77.1204C97.1062 77.4105 97.211 77.6883 97.388 77.9188C97.5651 78.1493 97.8065 78.3222 98.0818 78.4155C98.3571 78.5088 98.6539 78.5184 98.9346 78.4431C99.2153 78.3678 99.4675 78.211 99.6591 77.9924C99.8507 77.7739 99.9732 77.5034 100.011 77.2152C100.049 76.927 100.001 76.6341 99.8722 76.3734C99.7436 76.1127 99.5407 75.8959 99.289 75.7505C99.1217 75.6539 98.9371 75.5912 98.7456 75.566C98.5541 75.5408 98.3595 75.5536 98.173 75.6037C97.9864 75.6537 97.8115 75.74 97.6584 75.8577C97.5052 75.9753 97.3767 76.122 97.2802 76.2894Z" fill="#455A64"/>
<path d="M104.531 59.8465C104.432 59.835 104.332 59.835 104.233 59.8465L103.359 59.8701C103.17 59.8701 102.952 59.8701 102.716 59.8985L101.945 60.0072L101.047 60.1348L100.041 60.3853C98.3197 60.8226 96.6817 61.5378 95.1913 62.5028C92.9761 63.9124 91.1128 65.8101 89.7439 68.0507C88.375 70.2913 87.5367 72.8153 87.2933 75.4296C87.2249 76.2154 87.2091 77.0049 87.2461 77.7928C87.2744 78.1946 87.2461 78.5963 87.3217 78.9981L87.506 80.2128C87.8143 81.8831 88.3653 83.4993 89.1414 85.0101C89.974 86.5883 91.0294 88.0384 92.275 89.3159C93.603 90.6235 95.1257 91.7172 96.7888 92.5583C98.5066 93.4362 100.366 94.0042 102.281 94.2362C102.768 94.3096 103.259 94.3522 103.751 94.3638C104.244 94.3898 104.737 94.3898 105.23 94.3638C106.23 94.3239 107.225 94.199 108.203 93.9904C110.303 93.541 112.302 92.706 114.097 91.5279H113.918L119.939 93.9478L120.298 94.0896L120.194 93.721C119.589 91.509 118.994 89.3585 118.427 87.2788L118.393 87.4395C120.03 85.2739 121.131 82.7524 121.607 80.0804C121.839 78.8342 121.918 77.5646 121.844 76.2993C121.831 75.6923 121.773 75.0872 121.669 74.4891C121.626 74.1913 121.579 73.8982 121.537 73.6052C121.494 73.3122 121.39 73.038 121.324 72.7544C120.316 68.795 117.934 65.3225 114.603 62.9565C113.373 62.073 112.028 61.3636 110.604 60.8485L109.706 60.5271L108.851 60.3097L108.066 60.1159C107.816 60.0639 107.594 60.0403 107.348 60.0072C106.875 59.9458 106.492 59.8701 106.142 59.8512L105.254 59.8229H104.715C104.592 59.8229 104.531 59.8229 104.531 59.8229H104.715L105.254 59.8654L106.133 59.9221C106.478 59.9505 106.875 60.0403 107.329 60.1065C110.598 60.6692 113.634 62.1693 116.068 64.4247C118.501 66.6801 120.227 69.5935 121.036 72.8112C121.102 73.09 121.187 73.3642 121.239 73.6477C121.291 73.9313 121.324 74.2244 121.371 74.5127C121.466 75.1021 121.518 75.6976 121.527 76.2946C121.596 77.5302 121.515 78.7697 121.286 79.9859C120.807 82.6147 119.716 85.0936 118.1 87.2221L118.048 87.293L118.072 87.3828C118.639 89.4624 119.224 91.6098 119.826 93.825L120.081 93.5981L114.064 91.1734L113.97 91.1356L113.88 91.1923C112.12 92.3532 110.16 93.177 108.099 93.6217C107.144 93.8264 106.173 93.9497 105.197 93.9904C104.713 94.0093 104.229 93.9999 103.746 93.962C103.271 93.9528 102.798 93.9133 102.328 93.8439C100.453 93.6137 98.6327 93.057 96.9495 92.1991C93.7262 90.6045 91.0989 88.0186 89.4533 84.8211C88.6819 83.3466 88.1309 81.7669 87.818 80.1324C87.7565 79.7307 87.6951 79.3384 87.6384 78.9414C87.5817 78.5443 87.5864 78.1521 87.5533 77.7598C87.5161 76.9893 87.5287 76.2173 87.5911 75.4485C87.8215 72.877 88.634 70.3916 89.9671 68.1807C91.3003 65.9697 93.1191 64.0911 95.2858 62.6871C96.7567 61.7138 98.375 60.9844 100.078 60.5271L101.071 60.2624L101.964 60.1159L102.725 59.9883C102.962 59.9883 103.174 59.9599 103.363 59.941L104.233 59.8796C104.333 59.8768 104.433 59.8658 104.531 59.8465Z" fill="#455A64"/>
</svg>
